SplineFontDB: 3.0
FontName: VT321
FullName: VT321
FamilyName: VT321
Weight: Medium
Copyright: Created by Peter Hull,,,, with FontForge 2.0 (http://fontforge.sf.net)
UComments: "2011-1-2: Created." 
Version: 001.000
ItalicAngle: 0
UnderlinePosition: -100
UnderlineWidth: 50
Ascent: 800
Descent: 200
LayerCount: 2
Layer: 0 0 "Back"  1
Layer: 1 0 "Fore"  0
NeedsXUIDChange: 1
XUID: [1021 167 62782154 13401273]
FSType: 0
OS2Version: 0
OS2_WeightWidthSlopeOnly: 0
OS2_UseTypoMetrics: 1
CreationTime: 1294031443
ModificationTime: 1294031928
OS2TypoAscent: 0
OS2TypoAOffset: 1
OS2TypoDescent: 0
OS2TypoDOffset: 1
OS2TypoLinegap: 90
OS2WinAscent: 0
OS2WinAOffset: 1
OS2WinDescent: 0
OS2WinDOffset: 1
HheadAscent: 0
HheadAOffset: 1
HheadDescent: 0
HheadDOffset: 1
DEI: 91125
Encoding: UnicodeBmp
Compacted: 1
UnicodeInterp: none
NameList: Adobe Glyph List
DisplaySize: -96
AntiAlias: 1
FitToEm: 1
WinInfo: 90 18 7
BeginChars: 65536 209

StartChar: uni2581
Encoding: 9601 9601 0
Width: 446
VWidth: 0
Flags: W
HStem: 133 84<15 431>
LayerCount: 2
Back
Fore
SplineSet
15 175 m 1
 15 217 l 1
 223 217 l 1
 431 217 l 1
 431 175 l 1
 431 133 l 1
 223 133 l 1
 15 133 l 1
 15 175 l 1
EndSplineSet
Validated: 1
EndChar

StartChar: ampersand
Encoding: 38 38 1
Width: 446
VWidth: 0
Flags: W
HStem: -33 83<140 223 362.433 389.567> 217 166<223.371 250.567 334 390> 300 83<167 223> 383 84<112.433 139.629 279.248 305.567> 467 83<167 251>
VStem: 56 84<50 216.996> 84 83<217.003 300> 112 55<383.004 466.996> 140 111<300.004 382.997> 223 56<50.0038 132.997 217.003 299.996> 251 83<133.004 216.996> 251 55<383 466.996> 306 56<50.0038 132.997> 334 56<217 383>
CounterMasks: 2 a8 0468
LayerCount: 2
Back
Fore
SplineSet
223 258 m 2xd840
 223 300 l 1
 195 300 l 1
 167 300 l 1
 167 258 l 2xba40
 167 221 166 217 154 217 c 0
 141 217 140 212 140 133 c 2
 140 50 l 1
 181 50 l 1
 223 50 l 1
 223 92 l 2xdc40
 223 129 225 133 237 133 c 0
 249 133 251 138 251 175 c 0xd820
 251 212 249 217 237 217 c 0
 225 217 223 221 223 258 c 2xd840
251 425 m 1xb910
 251 467 l 1
 209 467 l 1
 167 467 l 1
 167 425 l 1
 167 383 l 1
 209 383 l 1
 251 383 l 1
 251 425 l 1xb910
140 508 m 2xb880
 140 550 l 1x9880
 209 550 l 1
 279 550 l 1
 279 508 l 2x9840
 279 471 280 467 292 467 c 0
 304 467 306 462 306 425 c 2
 306 383 l 1x9810
 279 383 l 1x9840
 251 383 l 1x9810
 251 342 l 2
 251 305 253 300 265 300 c 0xb880
 277 300 279 295 279 258 c 2
 279 217 l 1
 306 217 l 1xd848
 334 217 l 1xd804
 334 175 l 2xd820
 334 138 336 133 348 133 c 0
 360 133 362 129 362 92 c 0xd808
 362 55 364 50 376 50 c 0
 388 50 390 45 390 8 c 2
 390 -33 l 1xd804
 348 -33 l 1
 306 -33 l 1
 306 50 l 2
 306 129 305 133 292 133 c 0
 280 133 279 129 279 92 c 0xd848
 279 55 277 50 265 50 c 0
 253 50 251 45 251 8 c 2
 251 -33 l 1
 181 -33 l 1
 112 -33 l 1
 112 8 l 1
 112 50 l 1xd910
 84 50 l 1xda
 56 50 l 1
 56 133 l 2
 56 212 57 217 70 217 c 0xdc
 82 217 84 221 84 258 c 2
 84 300 l 1xba
 112 300 l 1xb9
 140 300 l 1
 140 342 l 2xb880
 140 379 138 383 126 383 c 0
 114 383 112 388 112 425 c 0xb9
 112 462 114 467 126 467 c 0
 138 467 140 471 140 508 c 2xb880
334 217 m 1xd804
 334 300 l 1xb804
 334 383 l 1xd804
 362 383 l 1xd808
 390 383 l 1xd804
 390 300 l 1xb804
 390 217 l 1xd804
 362 217 l 1xd808
 334 217 l 1xd804
EndSplineSet
Validated: 8388613
EndChar

StartChar: parenleft
Encoding: 40 40 2
Width: 446
VWidth: 0
Flags: W
HStem: -117 84<251 306> -33 21G<195 251> -33 21G<195 251> 530 20G<195 251> 550 83<251 306>
VStem: 140 83<133.551 382.536> 195 56<-33 49.9962 467.003 550> 251 55<-117 -33 550 633>
LayerCount: 2
Back
Fore
SplineSet
251 592 m 1x9b
 251 633 l 1
 279 633 l 1
 306 633 l 1
 306 592 l 1
 306 550 l 1
 279 550 l 1
 251 550 l 1
 251 592 l 1x9b
251 -33 m 1
 223 -33 l 1x9d
 195 -33 l 1
 195 8 l 2x9b
 195 45 193 50 181 50 c 0
 169 50 167 55 167 92 c 0
 167 129 166 133 154 133 c 0
 141 133 140 138 140 258 c 0x9d
 140 378 141 383 154 383 c 0
 166 383 167 388 167 425 c 0
 167 462 169 467 181 467 c 0
 193 467 195 471 195 508 c 2
 195 550 l 1x9b
 223 550 l 1x9d
 251 550 l 1
 251 508 l 2x9b
 251 471 249 467 237 467 c 0
 223 467 223 462 223 258 c 0x9d
 223 54 223 50 237 50 c 0
 249 50 251 45 251 8 c 2
 251 -33 l 1
251 -33 m 1x9b
 279 -33 l 1
 306 -33 l 1
 306 -75 l 1
 306 -117 l 1
 279 -117 l 1
 251 -117 l 1
 251 -75 l 1
 251 -33 l 1x9b
EndSplineSet
Validated: 8388613
EndChar

StartChar: ordfeminine
Encoding: 170 170 3
Width: 446
VWidth: 0
Flags: W
HStem: 50 83<112 334> 217 83<167 279> 383 84<167 279> 550 83<140 279>
VStem: 112 55<300.004 382.997> 140 166<550.004 633> 279 55<300 383 467 549.996>
CounterMasks: 1 f0
LayerCount: 2
Back
Fore
SplineSet
279 342 m 1xfa
 279 383 l 1
 223 383 l 1
 167 383 l 1
 167 342 l 1
 167 300 l 1
 223 300 l 1
 279 300 l 1
 279 342 l 1xfa
140 592 m 1xf4
 140 633 l 1
 223 633 l 1
 306 633 l 1
 306 592 l 2xf4
 306 555 308 550 320 550 c 0
 334 550 334 545 334 383 c 2
 334 217 l 1xf2
 237 217 l 1
 140 217 l 1
 140 258 l 2xf4
 140 295 138 300 126 300 c 0
 114 300 112 305 112 342 c 0xf8
 112 379 114 383 126 383 c 0
 138 383 140 388 140 425 c 2
 140 467 l 1xf4
 209 467 l 1
 279 467 l 1
 279 508 l 1
 279 550 l 1xf2
 209 550 l 1
 140 550 l 1
 140 592 l 1xf4
112 92 m 1xfa
 112 133 l 1
 223 133 l 1
 334 133 l 1
 334 92 l 1
 334 50 l 1
 223 50 l 1
 112 50 l 1
 112 92 l 1xfa
EndSplineSet
Validated: 1
EndChar

StartChar: igrave
Encoding: 236 236 4
Width: 446
VWidth: 0
Flags: W
HStem: -33 83<98 181 265 348> 300 83<126 181> 467 83<209 265> 550 83<126 181>
VStem: 126 83<550 633> 181 84<50 300 467 550>
LayerCount: 2
Back
Fore
SplineSet
126 592 m 1xf8
 126 633 l 1
 167 633 l 1
 209 633 l 1
 209 592 l 1
 209 550 l 1xf8
 237 550 l 1
 265 550 l 1
 265 508 l 1
 265 467 l 1
 223 467 l 1
 181 467 l 1
 181 508 l 1
 181 550 l 1xf4
 154 550 l 1
 126 550 l 1
 126 592 l 1xf8
126 342 m 1
 126 383 l 1xf8
 195 383 l 1
 265 383 l 1
 265 217 l 1
 265 50 l 1
 306 50 l 1
 348 50 l 1
 348 8 l 1
 348 -33 l 1
 223 -33 l 1
 98 -33 l 1
 98 8 l 1
 98 50 l 1
 140 50 l 1
 181 50 l 1
 181 175 l 1
 181 300 l 1xf4
 154 300 l 1
 126 300 l 1
 126 342 l 1
EndSplineSet
Validated: 8388609
EndChar

StartChar: ograve
Encoding: 242 242 5
Width: 446
VWidth: 0
Flags: W
HStem: -33 83<167 279> 133 84<56.4326 83.6292 362.371 389.567> 300 83<167 279> 467 83<223 279> 550 83<140 195>
VStem: 56 84<133.004 216.996> 84 83<50 132.997 217.003 300> 140 166<-33 50 300 383> 140 83<550 633> 195 84<467 550> 279 83<50 132.997 217.003 300> 306 84<133.004 216.996>
LayerCount: 2
Back
Fore
SplineSet
140 592 m 1xf880
 140 633 l 1
 181 633 l 1
 223 633 l 1
 223 592 l 1
 223 550 l 1xf880
 251 550 l 1
 279 550 l 1
 279 508 l 1
 279 467 l 1
 237 467 l 1
 195 467 l 1
 195 508 l 1
 195 550 l 1
 167 550 l 1xfa40
 140 550 l 1
 140 592 l 1xf880
279 258 m 2xf820
 279 300 l 1
 223 300 l 1xf8a0
 167 300 l 1
 167 258 l 2xfa
 167 221 166 217 154 217 c 0
 142 217 140 212 140 175 c 0xfc
 140 138 142 133 154 133 c 0
 166 133 167 129 167 92 c 2
 167 50 l 1xfa
 223 50 l 1
 279 50 l 1
 279 92 l 2xf8a0
 279 129 280 133 292 133 c 0
 304 133 306 138 306 175 c 0xf810
 306 212 304 217 292 217 c 0
 280 217 279 221 279 258 c 2xf820
140 342 m 1xf9
 140 383 l 1xf9
 223 383 l 1xf880
 306 383 l 1
 306 342 l 1
 306 300 l 1xf9
 334 300 l 1
 362 300 l 1
 362 258 l 2xf820
 362 221 364 217 376 217 c 0
 388 217 390 212 390 175 c 0xf810
 390 138 388 133 376 133 c 0
 364 133 362 129 362 92 c 2
 362 50 l 1xf820
 334 50 l 1
 306 50 l 1
 306 8 l 1
 306 -33 l 1xf9
 223 -33 l 1xf880
 140 -33 l 1
 140 8 l 1
 140 50 l 1xf9
 112 50 l 1
 84 50 l 1
 84 92 l 2xfa
 84 129 82 133 70 133 c 0
 58 133 56 138 56 175 c 0xfc
 56 212 58 217 70 217 c 0
 82 217 84 221 84 258 c 2
 84 300 l 1xfa
 112 300 l 1
 140 300 l 1
 140 342 l 1xf9
EndSplineSet
Validated: 8388609
EndChar

StartChar: lessequal
Encoding: 8804 8804 6
Width: 446
VWidth: 0
Flags: W
HStem: -33 83<84 362> 133 84<195 362> 467 83<306 362>
VStem: 84 111<217 300> 140 111<300 383> 195 111<383 467> 251 111<467 550>
LayerCount: 2
Back
Fore
SplineSet
251 508 m 1xe2
 251 550 l 1xe2
 306 550 l 1xe4
 362 550 l 1
 362 508 l 1
 362 467 l 1xe2
 334 467 l 1
 306 467 l 1
 306 425 l 1
 306 383 l 1xe4
 279 383 l 1
 251 383 l 1
 251 342 l 1
 251 300 l 1xe8
 223 300 l 1
 195 300 l 1
 195 258 l 1
 195 217 l 1
 279 217 l 1
 362 217 l 1
 362 175 l 1
 362 133 l 1
 223 133 l 1
 84 133 l 1
 84 217 l 1
 84 300 l 1xf2
 112 300 l 1
 140 300 l 1
 140 342 l 1
 140 383 l 1xe8
 167 383 l 1
 195 383 l 1
 195 425 l 1
 195 467 l 1xe4
 223 467 l 1
 251 467 l 1
 251 508 l 1xe2
84 8 m 1xf2
 84 50 l 1
 223 50 l 1
 362 50 l 1
 362 8 l 1
 362 -33 l 1
 223 -33 l 1
 84 -33 l 1
 84 8 l 1xf2
EndSplineSet
Validated: 1
EndChar

StartChar: SF020000
Encoding: 9492 9492 7
Width: 446
VWidth: 0
Flags: W
HStem: 300 83<248 415>
VStem: 193 55<383 800>
LayerCount: 2
Back
Fore
SplineSet
193 550 m 5
 193 800 l 5
 221 800 l 5
 248 800 l 5
 248 592 l 5
 248 383 l 5
 332 383 l 5
 415 383 l 5
 415 342 l 5
 415 300 l 5
 304 300 l 5
 193 300 l 5
 193 550 l 5
EndSplineSet
Validated: 1
EndChar

StartChar: percent
Encoding: 37 37 8
Width: 446
VWidth: 0
Flags: W
HStem: -33 83<112.433 139.567 306.433 333.567> 50 83<251.433 278.567 362.433 389.567> 383 84<56.4326 83.6292 167.371 194.567> 467 83<112.433 139.567 306.433 333.629>
VStem: 56 56<383.004 466.996> 84 83<300 382.997 467.003 550> 112 55<-33 49.9962> 140 55<50.0038 132.997 383.004 466.996> 167 56<133.004 216.996> 195 56<217.003 299.996> 223 56<300.004 382.997> 251 55<50.0038 132.997 383.004 466.996> 279 83<-33 49.9962 133.004 217> 279 55<467.003 550> 334 56<50.0038 132.997>
CounterMasks: 2 0910 0424
LayerCount: 2
Back
Fore
SplineSet
140 425 m 0xf9
 140 462 138 467 126 467 c 0
 114 467 112 462 112 425 c 0
 112 388 114 383 126 383 c 0
 138 383 140 388 140 425 c 0xf9
84 508 m 2xf4
 84 550 l 1
 126 550 l 1
 167 550 l 1
 167 508 l 2xf4
 167 471 169 467 181 467 c 0
 193 467 195 462 195 425 c 0xf1
 195 388 193 383 181 383 c 0
 169 383 167 379 167 342 c 2
 167 300 l 1
 126 300 l 1
 84 300 l 1
 84 342 l 2xf4
 84 379 82 383 70 383 c 0
 58 383 56 388 56 425 c 0xf8
 56 462 58 467 70 467 c 0
 82 467 84 471 84 508 c 2xf4
279 508 m 2xf004
 279 550 l 1xf004
 306 550 l 1xf010
 334 550 l 1
 334 508 l 2xf004
 334 471 332 467 320 467 c 0
 308 467 306 462 306 425 c 0xf010
 306 388 304 383 292 383 c 0
 280 383 279 379 279 342 c 0xf020
 279 305 277 300 265 300 c 0
 253 300 251 295 251 258 c 0xf040
 251 221 249 217 237 217 c 0
 225 217 223 212 223 175 c 0xf080
 223 138 221 133 209 133 c 0
 197 133 195 129 195 92 c 0xf1
 195 55 193 50 181 50 c 0
 169 50 167 45 167 8 c 2
 167 -33 l 1xf2
 140 -33 l 1xf1
 112 -33 l 1
 112 8 l 2xf2
 112 45 114 50 126 50 c 0
 138 50 140 55 140 92 c 0xf1
 140 129 142 133 154 133 c 0
 166 133 167 138 167 175 c 0xf080
 167 212 169 217 181 217 c 0
 193 217 195 221 195 258 c 0xf040
 195 295 197 300 209 300 c 0
 221 300 223 305 223 342 c 0xf020
 223 379 225 383 237 383 c 0
 249 383 251 388 251 425 c 0xf010
 251 462 253 467 265 467 c 0
 277 467 279 471 279 508 c 2xf004
334 92 m 0xf012
 334 129 332 133 320 133 c 0
 308 133 306 129 306 92 c 0
 306 55 308 50 320 50 c 0
 332 50 334 55 334 92 c 0xf012
279 175 m 2xf008
 279 217 l 1
 320 217 l 1
 362 217 l 1
 362 175 l 2xf008
 362 138 364 133 376 133 c 0
 388 133 390 129 390 92 c 0xf002
 390 55 388 50 376 50 c 0
 364 50 362 45 362 8 c 2
 362 -33 l 1
 320 -33 l 1
 279 -33 l 1
 279 8 l 2xf008
 279 45 277 50 265 50 c 0
 253 50 251 55 251 92 c 0xf010
 251 129 253 133 265 133 c 0
 277 133 279 138 279 175 c 2xf008
EndSplineSet
Validated: 8388609
EndChar

StartChar: uni00B5
Encoding: 181 181 9
Width: 446
VWidth: 0
Flags: W
HStem: -33 83<167 251 334 390> 363 20G<112 195 279 362>
VStem: 56 56<-117 49.9968> 84 83<50.0032 216.996> 112 83<217.003 383> 140 111<-33 49.9962> 251 83<50 216.996> 279 111<-33 49.9962> 279 83<217.003 383>
CounterMasks: 1 25
LayerCount: 2
Back
Fore
SplineSet
112 300 m 2xc8
 112 383 l 1
 154 383 l 1
 195 383 l 1
 195 300 l 2xc8
 195 221 194 217 181 217 c 0
 168 217 167 212 167 133 c 2
 167 50 l 1
 209 50 l 1
 251 50 l 1
 251 133 l 2xd2
 251 212 252 217 265 217 c 0
 278 217 279 221 279 300 c 2
 279 383 l 1
 320 383 l 1
 362 383 l 1
 362 300 l 2xc080
 362 221 361 217 348 217 c 0
 335 217 334 212 334 133 c 2
 334 50 l 1xc2
 362 50 l 1xc080
 390 50 l 1
 390 8 l 1
 390 -33 l 1xc1
 334 -33 l 1xc2
 279 -33 l 1
 279 8 l 2
 279 45 277 50 265 50 c 0
 253 50 251 45 251 8 c 2
 251 -33 l 1xc5
 195 -33 l 1xc8
 140 -33 l 1
 140 8 l 2
 140 45 138 50 126 50 c 0
 113 50 112 46 112 -33 c 2
 112 -117 l 1xe4
 84 -117 l 1xd0
 56 -117 l 1
 56 -33 l 2xe0
 56 46 57 50 70 50 c 0
 83 50 84 54 84 133 c 0xd0
 84 212 85 217 98 217 c 0
 111 217 112 221 112 300 c 2xc8
EndSplineSet
Validated: 1
EndChar

StartChar: s
Encoding: 115 115 10
Width: 446
VWidth: 0
Flags: W
HStem: -33 83<98 292> 50 83<320 376> 133 84<154 292> 217 83<70 126> 300 83<154 348>
VStem: 70 84<217 300> 292 84<50 133>
LayerCount: 2
Back
Fore
SplineSet
126 342 m 1
 126 383 l 1
 237 383 l 1
 348 383 l 1
 348 342 l 1
 348 300 l 1
 251 300 l 1
 154 300 l 1
 154 258 l 1
 154 217 l 1
 237 217 l 1
 320 217 l 1
 320 175 l 1
 320 133 l 1
 348 133 l 1
 376 133 l 1
 376 92 l 1
 376 50 l 1
 348 50 l 1
 320 50 l 1
 320 8 l 1
 320 -33 l 1
 209 -33 l 1
 98 -33 l 1
 98 8 l 1
 98 50 l 1
 195 50 l 1
 292 50 l 1
 292 92 l 1
 292 133 l 1
 209 133 l 1
 126 133 l 1
 126 175 l 1
 126 217 l 1
 98 217 l 1
 70 217 l 1
 70 258 l 1
 70 300 l 1
 98 300 l 1
 126 300 l 1
 126 342 l 1
EndSplineSet
Validated: 8388609
EndChar

StartChar: aacute
Encoding: 225 225 11
Width: 446
VWidth: 0
Flags: W
HStem: -33 83<154 265 349.792 375.567> 133 84<154 265> 300 83<126 265> 467 83<181 237> 550 83<265 320>
VStem: 70 84<50.0038 132.997> 126 166<300 383> 181 84<467 550> 237 83<550 633> 265 83<50.0041 133 217 300> 292 84<-33 49.9962>
LayerCount: 2
Back
Fore
SplineSet
237 592 m 1xf880
 237 633 l 1
 279 633 l 1
 320 633 l 1
 320 592 l 1
 320 550 l 1xf880
 292 550 l 1
 265 550 l 1
 265 508 l 1
 265 467 l 1
 223 467 l 1
 181 467 l 1
 181 508 l 1
 181 550 l 1xf920
 209 550 l 1
 237 550 l 1
 237 592 l 1xf880
265 92 m 1xfc40
 265 133 l 1
 209 133 l 1
 154 133 l 1
 154 92 l 1
 154 50 l 1
 209 50 l 1
 265 50 l 1
 265 92 l 1xfc40
126 342 m 1xfa
 126 383 l 1
 209 383 l 1
 292 383 l 1
 292 342 l 1
 292 300 l 1xfa
 320 300 l 1xf880
 348 300 l 1
 348 175 l 2xf840
 348 55 349 50 362 50 c 0
 374 50 376 45 376 8 c 2
 376 -33 l 1
 334 -33 l 1
 292 -33 l 1
 292 8 l 2xf820
 292 45 291 50 279 50 c 0
 267 50 265 45 265 8 c 2
 265 -33 l 1
 181 -33 l 1
 98 -33 l 1
 98 8 l 2
 98 45 96 50 84 50 c 0
 72 50 70 55 70 92 c 0
 70 129 72 133 84 133 c 0
 96 133 98 138 98 175 c 2
 98 217 l 1
 181 217 l 1
 265 217 l 1
 265 258 l 1
 265 300 l 1xfd40
 195 300 l 1
 126 300 l 1
 126 342 l 1xfa
EndSplineSet
Validated: 8388609
EndChar

StartChar: exclam
Encoding: 33 33 12
Width: 446
VWidth: 0
Flags: W
HStem: -33 83<181 265> 530 20G<181 265>
VStem: 181 84<-33 50 133 550>
LayerCount: 2
Back
Fore
SplineSet
181 342 m 1
 181 550 l 1
 223 550 l 1
 265 550 l 1
 265 342 l 1
 265 133 l 1
 223 133 l 1
 181 133 l 1
 181 342 l 1
181 8 m 1
 181 50 l 1
 223 50 l 1
 265 50 l 1
 265 8 l 1
 265 -33 l 1
 223 -33 l 1
 181 -33 l 1
 181 8 l 1
EndSplineSet
Validated: 1
EndChar

StartChar: uni2594
Encoding: 9620 9620 13
Width: 446
VWidth: 0
Flags: W
HStem: 717 83<15 431>
LayerCount: 2
Back
Fore
SplineSet
15 758 m 1
 15 800 l 1
 223 800 l 1
 431 800 l 1
 431 758 l 1
 431 717 l 1
 223 717 l 1
 15 717 l 1
 15 758 l 1
EndSplineSet
Validated: 1
EndChar

StartChar: zero
Encoding: 48 48 14
Width: 446
VWidth: 0
Flags: W
HStem: -33 83<167 279> 467 83<167 279>
VStem: 84 83<133.004 382.996> 112 55<50 132.997 383.004 467> 167 112<-33 50 467 550> 279 83<133.004 382.996> 279 55<50 132.997 383.004 467>
LayerCount: 2
Back
Fore
SplineSet
167 508 m 1xd8
 167 550 l 1
 223 550 l 1
 279 550 l 1
 279 508 l 1
 279 467 l 1
 223 467 l 1
 167 467 l 1xd8
 167 258 l 1xe8
 167 50 l 1xd8
 223 50 l 1
 279 50 l 1
 279 258 l 1
 279 467 l 1
 306 467 l 1
 334 467 l 1xc8
 334 425 l 2xc8
 334 388 336 383 348 383 c 0
 361 383 362 378 362 258 c 0xc8
 362 138 361 133 348 133 c 0
 336 133 334 129 334 92 c 2xc8
 334 50 l 1xc8
 306 50 l 1
 279 50 l 1
 279 8 l 1
 279 -33 l 1
 223 -33 l 1
 167 -33 l 1
 167 8 l 1
 167 50 l 1
 140 50 l 1
 112 50 l 1
 112 92 l 2xd8
 112 129 110 133 98 133 c 0
 85 133 84 138 84 258 c 0xe8
 84 378 85 383 98 383 c 0
 110 383 112 388 112 425 c 2
 112 467 l 1
 140 467 l 1
 167 467 l 1
 167 508 l 1xd8
EndSplineSet
Validated: 8388613
EndChar

StartChar: G
Encoding: 71 71 15
Width: 446
VWidth: 0
Flags: W
HStem: -33 83<167 306> 217 83<251 306> 383 84<334 390> 467 83<167 306>
VStem: 56 84<133.004 382.996> 84 83<50 132.997 383.004 467> 140 194<-33 50 467 550> 251 139<217 300> 306 84<50 217 383 467>
LayerCount: 2
Back
Fore
SplineSet
140 508 m 1xf2
 140 550 l 1
 237 550 l 1
 334 550 l 1
 334 508 l 1
 334 467 l 1xf2
 362 467 l 1
 390 467 l 1
 390 425 l 1
 390 383 l 1
 348 383 l 1
 306 383 l 1
 306 425 l 1
 306 467 l 1
 237 467 l 1
 167 467 l 1
 167 425 l 2xf480
 167 388 166 383 154 383 c 0
 141 383 140 378 140 258 c 0xf8
 140 138 141 133 154 133 c 0
 166 133 167 129 167 92 c 2
 167 50 l 1
 237 50 l 1
 306 50 l 1
 306 133 l 1
 306 217 l 1xf480
 279 217 l 1
 251 217 l 1
 251 258 l 1
 251 300 l 1
 320 300 l 1
 390 300 l 1xf1
 390 175 l 1
 390 50 l 1xf080
 362 50 l 1
 334 50 l 1
 334 8 l 1
 334 -33 l 1
 237 -33 l 1
 140 -33 l 1
 140 8 l 1
 140 50 l 1xf2
 112 50 l 1
 84 50 l 1
 84 92 l 2xf4
 84 129 82 133 70 133 c 0
 57 133 56 138 56 258 c 0xf8
 56 378 57 383 70 383 c 0
 82 383 84 388 84 425 c 2
 84 467 l 1xf4
 112 467 l 1
 140 467 l 1
 140 508 l 1xf2
EndSplineSet
Validated: 8388609
EndChar

StartChar: o
Encoding: 111 111 16
Width: 446
VWidth: 0
Flags: W
HStem: -33 83<167 279> 133 84<56.4326 83.6292 362.371 389.567> 300 83<167 279>
VStem: 56 84<133.004 216.996> 84 83<50 132.997 217.003 300> 140 166<-33 50 300 383> 279 83<50 132.997 217.003 300> 306 84<133.004 216.996>
CounterMasks: 1 e0
LayerCount: 2
Back
Fore
SplineSet
279 258 m 2xe2
 279 300 l 1
 223 300 l 1
 167 300 l 1
 167 258 l 2xea
 167 221 166 217 154 217 c 0
 142 217 140 212 140 175 c 0xf0
 140 138 142 133 154 133 c 0
 166 133 167 129 167 92 c 2
 167 50 l 1
 223 50 l 1
 279 50 l 1
 279 92 l 2xea
 279 129 280 133 292 133 c 0
 304 133 306 138 306 175 c 0xe1
 306 212 304 217 292 217 c 0
 280 217 279 221 279 258 c 2xe2
140 342 m 1xe4
 140 383 l 1
 223 383 l 1
 306 383 l 1
 306 342 l 1
 306 300 l 1xe4
 334 300 l 1
 362 300 l 1
 362 258 l 2xe2
 362 221 364 217 376 217 c 0
 388 217 390 212 390 175 c 0xe1
 390 138 388 133 376 133 c 0
 364 133 362 129 362 92 c 2
 362 50 l 1xe2
 334 50 l 1
 306 50 l 1
 306 8 l 1
 306 -33 l 1
 223 -33 l 1
 140 -33 l 1
 140 8 l 1
 140 50 l 1xe4
 112 50 l 1
 84 50 l 1
 84 92 l 2xe8
 84 129 82 133 70 133 c 0
 58 133 56 138 56 175 c 0xf0
 56 212 58 217 70 217 c 0
 82 217 84 221 84 258 c 2
 84 300 l 1xe8
 112 300 l 1
 140 300 l 1
 140 342 l 1xe4
EndSplineSet
Validated: 1
EndChar

StartChar: hyphen
Encoding: 45 45 17
Width: 446
VWidth: 0
Flags: W
HStem: 217 83<98 348>
VStem: 98 250<217 300>
LayerCount: 2
Back
Fore
SplineSet
98 258 m 1
 98 300 l 1
 223 300 l 1
 348 300 l 1
 348 258 l 1
 348 217 l 1
 223 217 l 1
 98 217 l 1
 98 258 l 1
EndSplineSet
Validated: 1
EndChar

StartChar: asciitilde
Encoding: 126 126 18
Width: 446
VWidth: 0
Flags: W
HStem: 530 20G<112 223 306 390>
VStem: 56 84<217 382.997> 84 167<383.004 466.996> 112 111<467.003 550> 223 111<217 299.996> 306 84<383.004 550>
LayerCount: 2
Back
Fore
SplineSet
112 508 m 2x90
 112 550 l 1
 167 550 l 1
 223 550 l 1
 223 508 l 2x90
 223 471 225 467 237 467 c 0
 249 467 251 462 251 425 c 2
 251 383 l 1
 279 383 l 1
 306 383 l 1
 306 467 l 1
 306 550 l 1
 348 550 l 1
 390 550 l 1
 390 467 l 2xa4
 390 388 389 383 376 383 c 0
 364 383 362 379 362 342 c 0
 362 305 360 300 348 300 c 0
 336 300 334 295 334 258 c 2
 334 217 l 1
 279 217 l 1
 223 217 l 1
 223 258 l 2
 223 295 221 300 209 300 c 0
 197 300 195 305 195 342 c 2
 195 383 l 1
 167 383 l 1
 140 383 l 1
 140 300 l 1
 140 217 l 1
 98 217 l 1
 56 217 l 1
 56 300 l 2xc8
 56 379 57 383 70 383 c 0
 82 383 84 388 84 425 c 0xa0
 84 462 86 467 98 467 c 0
 110 467 112 471 112 508 c 2x90
EndSplineSet
Validated: 1
EndChar

StartChar: e
Encoding: 101 101 19
Width: 446
VWidth: 0
Flags: W
HStem: -33 83<167 362> 133 84<56.4326 83.6292 167 306> 300 83<167 306>
VStem: 84 83<50 132.997 217.003 300> 306 84<217 300>
CounterMasks: 1 e0
LayerCount: 2
Back
Fore
SplineSet
306 258 m 1
 306 300 l 1
 237 300 l 1
 167 300 l 1
 167 258 l 1
 167 217 l 1
 237 217 l 1
 306 217 l 1
 306 258 l 1
140 342 m 1
 140 383 l 1
 237 383 l 1
 334 383 l 1
 334 342 l 1
 334 300 l 1
 362 300 l 1
 390 300 l 1
 390 217 l 1
 390 133 l 1
 279 133 l 1
 167 133 l 1
 167 92 l 1
 167 50 l 1
 265 50 l 1
 362 50 l 1
 362 8 l 1
 362 -33 l 1
 251 -33 l 1
 140 -33 l 1
 140 8 l 1
 140 50 l 1
 112 50 l 1
 84 50 l 1
 84 92 l 2
 84 129 82 133 70 133 c 0
 58 133 56 138 56 175 c 0
 56 212 58 217 70 217 c 0
 82 217 84 221 84 258 c 2
 84 300 l 1
 112 300 l 1
 140 300 l 1
 140 342 l 1
EndSplineSet
Validated: 1
EndChar

StartChar: SF070000
Encoding: 9524 9524 20
Width: 446
VWidth: 0
Flags: W
HStem: 300 83<15 181 237 431>
VStem: 181 56<383 800>
LayerCount: 2
Back
Fore
SplineSet
181 592 m 1
 181 800 l 1
 209 800 l 1
 237 800 l 1
 237 592 l 1
 237 383 l 1
 334 383 l 1
 431 383 l 1
 431 342 l 1
 431 300 l 1
 223 300 l 1
 15 300 l 1
 15 342 l 1
 15 383 l 1
 98 383 l 1
 181 383 l 1
 181 592 l 1
EndSplineSet
Validated: 1
EndChar

StartChar: idieresis
Encoding: 239 239 21
Width: 446
VWidth: 0
Flags: W
HStem: -33 83<98 181 265 348> 300 83<126 181> 467 83<98 181 237 320>
VStem: 98 83<467 550> 126 139<300 383> 181 84<50 300> 237 83<467 550>
LayerCount: 2
Back
Fore
SplineSet
98 508 m 1xf0
 98 550 l 1
 140 550 l 1
 181 550 l 1
 181 508 l 1
 181 467 l 1
 140 467 l 1
 98 467 l 1
 98 508 l 1xf0
237 508 m 1xe2
 237 550 l 1
 279 550 l 1
 320 550 l 1
 320 508 l 1
 320 467 l 1
 279 467 l 1
 237 467 l 1
 237 508 l 1xe2
126 342 m 1xe8
 126 383 l 1
 195 383 l 1
 265 383 l 1xe8
 265 217 l 1
 265 50 l 1
 306 50 l 1
 348 50 l 1
 348 8 l 1
 348 -33 l 1
 223 -33 l 1
 98 -33 l 1
 98 8 l 1
 98 50 l 1
 140 50 l 1
 181 50 l 1
 181 175 l 1
 181 300 l 1xf4
 154 300 l 1
 126 300 l 1
 126 342 l 1xe8
EndSplineSet
Validated: 8388609
EndChar

StartChar: Egrave
Encoding: 200 200 22
Width: 446
VWidth: 0
Flags: W
HStem: -33 83<181 348> 217 83<181 348> 467 83<181 348> 633 84<237 292> 717 83<154 209>
VStem: 98 250<-33 50 217 300 467 550> 98 83<50 217 300 467> 154 83<717 800> 209 83<633 717>
LayerCount: 2
Back
Fore
SplineSet
154 758 m 1xf9
 154 800 l 1
 195 800 l 1
 237 800 l 1
 237 758 l 1
 237 717 l 1xf9
 265 717 l 1
 292 717 l 1
 292 675 l 1
 292 633 l 1
 251 633 l 1
 209 633 l 1
 209 675 l 1
 209 717 l 1
 181 717 l 1xfa80
 154 717 l 1
 154 758 l 1xf9
98 258 m 1xfc
 98 550 l 1
 223 550 l 1
 348 550 l 1
 348 508 l 1
 348 467 l 1xfc
 265 467 l 1
 181 467 l 1
 181 383 l 1
 181 300 l 1xfa
 265 300 l 1
 348 300 l 1
 348 258 l 1
 348 217 l 1xfc
 265 217 l 1
 181 217 l 1
 181 133 l 1
 181 50 l 1xfa
 265 50 l 1
 348 50 l 1
 348 8 l 1
 348 -33 l 1
 223 -33 l 1
 98 -33 l 1
 98 258 l 1xfc
EndSplineSet
Validated: 8388609
EndChar

StartChar: egrave
Encoding: 232 232 23
Width: 446
VWidth: 0
Flags: W
HStem: -33 83<167 362> 133 84<56.4326 83.6292 167 306> 300 83<167 306> 467 83<223 279> 550 83<140 195>
VStem: 84 83<50 132.997 217.003 300> 140 83<550 633> 195 84<467 550> 306 84<217 300>
LayerCount: 2
Back
Fore
SplineSet
140 592 m 1xfa80
 140 633 l 1
 181 633 l 1
 223 633 l 1
 223 592 l 1
 223 550 l 1xfa80
 251 550 l 1
 279 550 l 1
 279 508 l 1
 279 467 l 1
 237 467 l 1
 195 467 l 1
 195 508 l 1
 195 550 l 1
 167 550 l 1xfd80
 140 550 l 1
 140 592 l 1xfa80
306 258 m 1
 306 300 l 1
 237 300 l 1
 167 300 l 1
 167 258 l 1
 167 217 l 1xfc80
 237 217 l 1
 306 217 l 1
 306 258 l 1
140 342 m 1xfa80
 140 383 l 1xfa80
 237 383 l 1
 334 383 l 1
 334 342 l 1
 334 300 l 1
 362 300 l 1
 390 300 l 1
 390 217 l 1
 390 133 l 1
 279 133 l 1
 167 133 l 1
 167 92 l 1
 167 50 l 1xfd80
 265 50 l 1
 362 50 l 1
 362 8 l 1
 362 -33 l 1
 251 -33 l 1
 140 -33 l 1
 140 8 l 1
 140 50 l 1xfa80
 112 50 l 1
 84 50 l 1
 84 92 l 2
 84 129 82 133 70 133 c 0
 58 133 56 138 56 175 c 0
 56 212 58 217 70 217 c 0
 82 217 84 221 84 258 c 2
 84 300 l 1xfc80
 112 300 l 1
 140 300 l 1
 140 342 l 1xfa80
EndSplineSet
Validated: 8388609
EndChar

StartChar: x
Encoding: 120 120 24
Width: 446
VWidth: 0
Flags: W
HStem: -33 166<112 167 279 334> -33 83<84.4326 111.567 334.433 361.567> 133 84<195 251> 217 166<112 167 279 334> 300 83<84.4326 111.567 334.433 361.567>
VStem: 84 83<-33 49.9962 300.004 383> 112 83<50.0038 133 217 299.996> 167 112<133 217> 251 83<50.0038 133 217 299.996> 279 83<-33 49.9962 300.004 383>
LayerCount: 2
Back
Fore
SplineSet
84 342 m 2xac
 84 383 l 1xac
 126 383 l 1x24
 167 383 l 1x24
 167 342 l 2x24
 167 305 169 300 181 300 c 0
 193 300 195 295 195 258 c 2
 195 217 l 1
 223 217 l 1
 251 217 l 1
 251 258 l 2
 251 295 253 300 265 300 c 0x2a80
 277 300 279 305 279 342 c 2
 279 383 l 1x2040
 320 383 l 1x2040
 362 383 l 1
 362 342 l 2x2840
 362 305 360 300 348 300 c 0
 336 300 334 295 334 258 c 2
 334 217 l 1x2880
 306 217 l 1
 279 217 l 1
 279 175 l 1
 279 133 l 1xa1
 306 133 l 1
 334 133 l 1
 334 92 l 2xa080
 334 55 336 50 348 50 c 0
 360 50 362 45 362 8 c 2
 362 -33 l 1x6040
 320 -33 l 1
 279 -33 l 1
 279 8 l 2xa040
 279 45 277 50 265 50 c 0
 253 50 251 55 251 92 c 2
 251 133 l 1
 223 133 l 1
 195 133 l 1
 195 92 l 2
 195 55 193 50 181 50 c 0x6280
 169 50 167 45 167 8 c 2
 167 -33 l 1
 126 -33 l 1xa4
 84 -33 l 1
 84 8 l 2
 84 45 86 50 98 50 c 0x64
 110 50 112 55 112 92 c 2
 112 133 l 1xa2
 140 133 l 1
 167 133 l 1
 167 175 l 1
 167 217 l 1xa1
 140 217 l 1
 112 217 l 1
 112 258 l 2xa2
 112 295 110 300 98 300 c 0
 86 300 84 305 84 342 c 2xac
EndSplineSet
Validated: 8388609
EndChar

StartChar: d
Encoding: 100 100 25
Width: 446
VWidth: 0
Flags: W
HStem: -33 83<167 279> 300 83<167 279> 530 20G<306 390>
VStem: 56 84<133.004 216.996> 84 83<50 132.997 217.003 300> 140 139<-33 49.9962 300.004 383> 279 111<50 132.997 217.003 300> 306 84<-33 49.9962 133.004 216.996 300.004 550>
LayerCount: 2
Back
Fore
SplineSet
279 258 m 2xe2
 279 300 l 1
 223 300 l 1
 167 300 l 1
 167 258 l 2xea
 167 221 166 217 154 217 c 0
 142 217 140 212 140 175 c 0xf0
 140 138 142 133 154 133 c 0
 166 133 167 129 167 92 c 2
 167 50 l 1
 223 50 l 1
 279 50 l 1
 279 92 l 2xea
 279 129 280 133 292 133 c 0
 304 133 306 138 306 175 c 0xe1
 306 212 304 217 292 217 c 0
 280 217 279 221 279 258 c 2xe2
306 425 m 2xe5
 306 550 l 1
 348 550 l 1
 390 550 l 1xe5
 390 258 l 1xe2
 390 -33 l 1
 348 -33 l 1
 306 -33 l 1
 306 8 l 2
 306 45 304 50 292 50 c 0
 280 50 279 45 279 8 c 2
 279 -33 l 1
 209 -33 l 1
 140 -33 l 1
 140 8 l 1
 140 50 l 1xe5
 112 50 l 1
 84 50 l 1
 84 92 l 2xe8
 84 129 82 133 70 133 c 0
 58 133 56 138 56 175 c 0xf0
 56 212 58 217 70 217 c 0
 82 217 84 221 84 258 c 2
 84 300 l 1xe8
 112 300 l 1
 140 300 l 1
 140 342 l 1
 140 383 l 1
 209 383 l 1
 279 383 l 1
 279 342 l 2
 279 305 280 300 292 300 c 0
 305 300 306 305 306 425 c 2xe5
EndSplineSet
Validated: 1
EndChar

StartChar: asciicircum
Encoding: 94 94 26
Width: 446
VWidth: 0
Flags: W
HStem: 300 83<98.3708 125.567 320.433 347.629> 530 20G<154 292>
VStem: 98 83<300 382.997> 126 83<383.004 466.996> 154 138<467.003 550> 237 83<383.004 466.996> 265 83<300 382.997>
LayerCount: 2
Back
Fore
SplineSet
154 508 m 2xc8
 154 550 l 1
 223 550 l 1
 292 550 l 1
 292 508 l 2xc8
 292 471 294 467 306 467 c 0
 318 467 320 462 320 425 c 0xc4
 320 388 322 383 334 383 c 0
 346 383 348 379 348 342 c 2
 348 300 l 1
 306 300 l 1
 265 300 l 1
 265 342 l 2xc2
 265 379 263 383 251 383 c 0
 239 383 237 388 237 425 c 0
 237 462 235 467 223 467 c 0
 211 467 209 462 209 425 c 0xd4
 209 388 207 383 195 383 c 0
 183 383 181 379 181 342 c 2
 181 300 l 1
 140 300 l 1
 98 300 l 1
 98 342 l 2xe0
 98 379 100 383 112 383 c 0
 124 383 126 388 126 425 c 0xd0
 126 462 128 467 140 467 c 0
 152 467 154 471 154 508 c 2xc8
EndSplineSet
Validated: 1
EndChar

StartChar: z
Encoding: 122 122 27
Width: 446
VWidth: 0
Flags: W
HStem: -33 166<84 167> -33 83<167 362> 133 84<167 251> 217 166<251 334> 300 83<84 251 334.433 361.567>
VStem: 84 83<50 133> 167 84<133 217> 251 83<217 299.996>
CounterMasks: 1 07
LayerCount: 2
Back
Fore
SplineSet
84 342 m 1x2f
 84 383 l 1
 223 383 l 1
 362 383 l 1
 362 342 l 2
 362 305 360 300 348 300 c 0
 336 300 334 295 334 258 c 2
 334 217 l 1
 292 217 l 1
 251 217 l 1
 251 258 l 1
 251 300 l 1
 167 300 l 1
 84 300 l 1
 84 342 l 1x2f
167 133 m 1xa7
 167 175 l 1
 167 217 l 1
 209 217 l 1
 251 217 l 1
 251 175 l 1
 251 133 l 1
 209 133 l 1
 167 133 l 1xa7
167 133 m 1
 167 92 l 1
 167 50 l 1
 265 50 l 1
 362 50 l 1
 362 8 l 1
 362 -33 l 1
 223 -33 l 1x67
 84 -33 l 1xa7
 84 50 l 1x67
 84 133 l 1
 126 133 l 1
 167 133 l 1
EndSplineSet
Validated: 8388613
EndChar

StartChar: plus
Encoding: 43 43 28
Width: 446
VWidth: 0
Flags: W
HStem: 217 83<70 181 265 376>
VStem: 181 84<50 217 300 467>
LayerCount: 2
Back
Fore
SplineSet
181 383 m 1
 181 467 l 1
 223 467 l 1
 265 467 l 1
 265 383 l 1
 265 300 l 1
 320 300 l 1
 376 300 l 1
 376 258 l 1
 376 217 l 1
 320 217 l 1
 265 217 l 1
 265 133 l 1
 265 50 l 1
 223 50 l 1
 181 50 l 1
 181 133 l 1
 181 217 l 1
 126 217 l 1
 70 217 l 1
 70 258 l 1
 70 300 l 1
 126 300 l 1
 181 300 l 1
 181 383 l 1
EndSplineSet
Validated: 1
EndChar

StartChar: bar
Encoding: 124 124 29
Width: 446
VWidth: 0
Flags: W
VStem: 181 84<-117 633>
LayerCount: 2
Back
Fore
SplineSet
181 258 m 1
 181 633 l 1
 223 633 l 1
 265 633 l 1
 265 258 l 1
 265 -117 l 1
 223 -117 l 1
 181 -117 l 1
 181 258 l 1
EndSplineSet
Validated: 1
EndChar

StartChar: multiply
Encoding: 215 215 30
Width: 446
VWidth: 0
Flags: W
HStem: 50 83<112.371 139.567 306.433 333.629> 467 83<112.371 139.567 306.433 333.629>
VStem: 112 55<50 132.997 467.003 550> 140 55<133.004 216.996 383.004 466.996> 167 112<217.003 382.997> 251 55<133.004 216.996 383.004 466.996> 279 55<50 132.997 467.003 550>
LayerCount: 2
Back
Fore
SplineSet
112 508 m 2xe0
 112 550 l 1xe0
 140 550 l 1xd0
 167 550 l 1
 167 508 l 2xe0
 167 471 169 467 181 467 c 0
 193 467 195 462 195 425 c 2
 195 383 l 1
 223 383 l 1
 251 383 l 1
 251 425 l 2xd4
 251 462 253 467 265 467 c 0
 277 467 279 471 279 508 c 2
 279 550 l 1xc2
 306 550 l 1xc4
 334 550 l 1
 334 508 l 2xc2
 334 471 332 467 320 467 c 0
 308 467 306 462 306 425 c 0xc4
 306 388 304 383 292 383 c 0
 279 383 279 379 279 300 c 0xc8
 279 221 279 217 292 217 c 0
 304 217 306 212 306 175 c 0xc4
 306 138 308 133 320 133 c 0
 332 133 334 129 334 92 c 2
 334 50 l 1xc2
 306 50 l 1xc4
 279 50 l 1
 279 92 l 2xc2
 279 129 277 133 265 133 c 0
 253 133 251 138 251 175 c 2
 251 217 l 1
 223 217 l 1
 195 217 l 1
 195 175 l 2xd4
 195 138 193 133 181 133 c 0
 169 133 167 129 167 92 c 2
 167 50 l 1xe0
 140 50 l 1xd0
 112 50 l 1
 112 92 l 2xe0
 112 129 114 133 126 133 c 0
 138 133 140 138 140 175 c 0xd0
 140 212 142 217 154 217 c 0
 167 217 167 221 167 300 c 0xc8
 167 379 167 383 154 383 c 0
 142 383 140 388 140 425 c 0xd0
 140 462 138 467 126 467 c 0
 114 467 112 471 112 508 c 2xe0
EndSplineSet
Validated: 1
EndChar

StartChar: divide
Encoding: 247 247 31
Width: 446
VWidth: 0
Flags: W
HStem: -33 166<181 265> 217 83<70 376> 383 167<181 265>
VStem: 181 84<-33 133 383 550>
LayerCount: 2
Back
Fore
SplineSet
181 467 m 1
 181 550 l 1
 223 550 l 1
 265 550 l 1
 265 467 l 1
 265 383 l 1
 223 383 l 1
 181 383 l 1
 181 467 l 1
70 258 m 1
 70 300 l 1
 223 300 l 1
 376 300 l 1
 376 258 l 1
 376 217 l 1
 223 217 l 1
 70 217 l 1
 70 258 l 1
181 50 m 1
 181 133 l 1
 223 133 l 1
 265 133 l 1
 265 50 l 1
 265 -33 l 1
 223 -33 l 1
 181 -33 l 1
 181 50 l 1
EndSplineSet
Validated: 1
EndChar

StartChar: i
Encoding: 105 105 32
Width: 446
VWidth: 0
Flags: W
HStem: -33 83<98 181 265 348> 300 83<126 181> 467 83<181 265>
VStem: 126 139<300 383> 181 84<50 300 467 550>
LayerCount: 2
Back
Fore
SplineSet
181 508 m 1xe8
 181 550 l 1
 223 550 l 1
 265 550 l 1
 265 508 l 1
 265 467 l 1
 223 467 l 1
 181 467 l 1
 181 508 l 1xe8
126 342 m 1xf0
 126 383 l 1
 195 383 l 1
 265 383 l 1xf0
 265 217 l 1
 265 50 l 1
 306 50 l 1
 348 50 l 1
 348 8 l 1
 348 -33 l 1
 223 -33 l 1
 98 -33 l 1
 98 8 l 1
 98 50 l 1
 140 50 l 1
 181 50 l 1
 181 175 l 1
 181 300 l 1xe8
 154 300 l 1
 126 300 l 1
 126 342 l 1xf0
EndSplineSet
Validated: 1
EndChar

StartChar: K
Encoding: 75 75 33
Width: 446
VWidth: 0
Flags: W
HStem: -33 21G<70 154 292 376> -33 21G<70 154 292 376> 217 83<154 209> 300 83<237 265> 530 20G<70 154 292 376>
VStem: 70 84<-33 217 300 550> 209 83<133 217 300 383> 265 83<50.0038 133 383 466.996> 292 84<-33 49.9962 467.003 550>
LayerCount: 2
Back
Fore
SplineSet
70 258 m 1xbe
 70 550 l 1
 112 550 l 1
 154 550 l 1
 154 425 l 1
 154 300 l 1
 181 300 l 1
 209 300 l 1
 209 342 l 1
 209 383 l 1x3e
 237 383 l 1
 265 383 l 1
 265 425 l 2x3d
 265 462 267 467 279 467 c 0
 291 467 292 471 292 508 c 2
 292 550 l 1
 334 550 l 1
 376 550 l 1
 376 508 l 2x3c80
 376 471 374 467 362 467 c 0
 350 467 348 462 348 425 c 2
 348 383 l 1x3d
 320 383 l 1
 292 383 l 1
 292 342 l 1
 292 300 l 1x3e
 265 300 l 1
 237 300 l 1
 237 258 l 1
 237 217 l 1
 265 217 l 1x3d
 292 217 l 1
 292 175 l 1
 292 133 l 1x3e
 320 133 l 1
 348 133 l 1
 348 92 l 2x3d
 348 55 350 50 362 50 c 0
 374 50 376 45 376 8 c 2
 376 -33 l 1
 334 -33 l 1
 292 -33 l 1
 292 8 l 2xbc80
 292 45 291 50 279 50 c 0
 267 50 265 55 265 92 c 2
 265 133 l 1xbd
 237 133 l 1
 209 133 l 1
 209 175 l 1
 209 217 l 1
 181 217 l 1
 154 217 l 1
 154 92 l 1
 154 -33 l 1
 112 -33 l 1
 70 -33 l 1
 70 258 l 1xbe
EndSplineSet
Validated: 8388609
EndChar

StartChar: J
Encoding: 74 74 34
Width: 446
VWidth: 0
Flags: W
HStem: -33 83<154 265> 50 83<70 126> 467 83<209 265 350.29 375.629>
VStem: 70 84<50 133> 265 83<50.0037 466.996>
LayerCount: 2
Back
Fore
SplineSet
209 508 m 1
 209 550 l 1
 292 550 l 1
 376 550 l 1
 376 508 l 2
 376 471 374 467 362 467 c 0
 348 467 348 462 348 258 c 0
 348 54 348 50 334 50 c 0
 322 50 320 45 320 8 c 2
 320 -33 l 1
 223 -33 l 1
 126 -33 l 1
 126 8 l 1
 126 50 l 1
 98 50 l 1
 70 50 l 1
 70 92 l 1
 70 133 l 1
 112 133 l 1
 154 133 l 1
 154 92 l 1
 154 50 l 1
 209 50 l 1
 265 50 l 1
 265 258 l 1
 265 467 l 1
 237 467 l 1
 209 467 l 1
 209 508 l 1
EndSplineSet
Validated: 8388609
EndChar

StartChar: Otilde
Encoding: 213 213 35
Width: 446
VWidth: 0
Flags: W
HStem: -33 83<167 279> 467 83<167 279> 633 84<84 140 251 334> 717 83<140 223 334 390>
VStem: 56 84<133.004 382.996> 84 83<50 132.997 383.004 467> 84 56<633 717> 140 166<-33 50 467 550> 140 111<717 800> 223 111<633 717> 279 83<50 132.997 383.004 467> 306 84<133.004 382.996> 334 56<717 800>
LayerCount: 2
Back
Fore
SplineSet
140 758 m 1xf280
 140 800 l 1
 195 800 l 1
 251 800 l 1
 251 758 l 1
 251 717 l 1xf280
 292 717 l 1
 334 717 l 1
 334 675 l 1
 334 633 l 1xf040
 279 633 l 1xf020
 223 633 l 1
 223 675 l 1
 223 717 l 1xf040
 181 717 l 1
 140 717 l 1
 140 758 l 1xf280
279 425 m 2xf020
 279 467 l 1xf020
 223 467 l 1
 167 467 l 1
 167 425 l 2xf440
 167 388 166 383 154 383 c 0
 141 383 140 378 140 258 c 0xf8
 140 138 141 133 154 133 c 0
 166 133 167 129 167 92 c 2
 167 50 l 1
 223 50 l 1xf440
 279 50 l 1
 279 92 l 2xf020
 279 129 280 133 292 133 c 0
 305 133 306 138 306 258 c 0xf010
 306 378 305 383 292 383 c 0
 280 383 279 388 279 425 c 2xf020
140 508 m 1xf1
 140 550 l 1xf1
 223 550 l 1xf040
 306 550 l 1
 306 508 l 1
 306 467 l 1
 334 467 l 1xf108
 362 467 l 1
 362 425 l 2xf020
 362 388 364 383 376 383 c 0
 389 383 390 378 390 258 c 0xf010
 390 138 389 133 376 133 c 0
 364 133 362 129 362 92 c 2
 362 50 l 1xf020
 334 50 l 1
 306 50 l 1
 306 8 l 1
 306 -33 l 1xf108
 223 -33 l 1xf040
 140 -33 l 1
 140 8 l 1
 140 50 l 1xf1
 112 50 l 1
 84 50 l 1
 84 92 l 2xf4
 84 129 82 133 70 133 c 0
 57 133 56 138 56 258 c 0xf8
 56 378 57 383 70 383 c 0
 82 383 84 388 84 425 c 2
 84 467 l 1xf4
 112 467 l 1
 140 467 l 1
 140 508 l 1xf1
140 717 m 1xf2
 140 675 l 1
 140 633 l 1
 112 633 l 1
 84 633 l 1
 84 675 l 1
 84 717 l 1
 112 717 l 1
 140 717 l 1xf2
334 717 m 1xf040
 334 758 l 1
 334 800 l 1xf048
 362 800 l 1xf020
 390 800 l 1
 390 758 l 1
 390 717 l 1xf008
 362 717 l 1xf020
 334 717 l 1xf040
EndSplineSet
Validated: 8388613
EndChar

StartChar: n
Encoding: 110 110 36
Width: 446
VWidth: 0
Flags: W
HStem: -33 21G<56 140 306 390> -33 21G<56 140 306 390> 300 83<167 306>
VStem: 56 111<212.8 300> 56 84<-33 218.594 300.004 383> 167 167<300.004 383> 306 84<-33 300>
LayerCount: 2
Back
Fore
SplineSet
56 175 m 1xa8
 56 383 l 1
 98 383 l 1
 140 383 l 1
 140 342 l 2
 140 305 142 300 154 300 c 0
 166 300 167 305 167 342 c 2
 167 383 l 1
 251 383 l 1
 334 383 l 1
 334 342 l 1
 334 300 l 1xac
 362 300 l 1
 390 300 l 1
 390 133 l 1
 390 -33 l 1
 348 -33 l 1
 306 -33 l 1
 306 133 l 1
 306 300 l 1
 237 300 l 1
 167 300 l 1
 167 258 l 2xb2
 167 221 166 217 154 217 c 0
 141 217 140 212 140 92 c 2
 140 -33 l 1
 98 -33 l 1
 56 -33 l 1
 56 175 l 1xa8
EndSplineSet
Validated: 1
EndChar

StartChar: g
Encoding: 103 103 37
Width: 446
VWidth: 0
Flags: W
HStem: -200 83<140 279> -33 83<167 279> 300 83<167 306>
VStem: 56 84<133.004 216.996> 84 83<50 132.997 217.003 300> 140 166<-200 -117> 140 139<-32.997 50> 279 83<-117 -33.0038> 306 84<-32.9963 49.9962 133.004 300>
LayerCount: 2
Back
Fore
SplineSet
306 217 m 2xe080
 306 300 l 1
 237 300 l 1
 167 300 l 1
 167 258 l 2xe880
 167 221 166 217 154 217 c 0
 142 217 140 212 140 175 c 0xf0
 140 138 142 133 154 133 c 0
 166 133 167 129 167 92 c 2
 167 50 l 1xe8
 223 50 l 1
 279 50 l 1
 279 8 l 2
 279 -29 280 -33 292 -33 c 0
 304 -33 306 -29 306 8 c 0xe280
 306 45 304 50 292 50 c 0
 280 50 279 55 279 92 c 0xe1
 279 129 280 133 292 133 c 0
 305 133 306 138 306 217 c 2xe080
140 342 m 1xe2
 140 383 l 1
 265 383 l 1
 390 383 l 1
 390 175 l 2xe280
 390 -29 390 -33 376 -33 c 0
 364 -33 362 -38 362 -75 c 2
 362 -117 l 1xe1
 334 -117 l 1
 306 -117 l 1
 306 -158 l 1
 306 -200 l 1
 223 -200 l 1
 140 -200 l 1
 140 -158 l 1
 140 -117 l 1xe4
 209 -117 l 1
 279 -117 l 1
 279 -75 l 1
 279 -33 l 1xe1
 209 -33 l 1
 140 -33 l 1
 140 8 l 1
 140 50 l 1xe2
 112 50 l 1
 84 50 l 1
 84 92 l 2xe8
 84 129 82 133 70 133 c 0
 58 133 56 138 56 175 c 0xf0
 56 212 58 217 70 217 c 0
 82 217 84 221 84 258 c 2
 84 300 l 1xe8
 112 300 l 1
 140 300 l 1
 140 342 l 1xe2
EndSplineSet
Validated: 1
EndChar

StartChar: yen
Encoding: 165 165 38
Width: 446
VWidth: 0
Flags: W
HStem: -33 21G<181 265> -33 21G<181 265> 50 83<98 181 265 348> 217 83<98.4326 125.567 320.433 347.567> 467 83<70.3708 97.5674 348.433 375.629>
VStem: 70 111<467.003 550> 98 83<383.004 466.996> 126 83<300.004 382.997> 181 84<-33 50 133 217> 237 83<300.004 382.997> 265 111<465.213 550> 265 83<383.004 468.594>
LayerCount: 2
Back
Fore
SplineSet
70 508 m 2xbc
 70 550 l 1xbc
 126 550 l 1xb9
 181 550 l 1
 181 467 l 2xbc80
 181 388 182 383 195 383 c 0
 207 383 209 379 209 342 c 0
 209 305 211 300 223 300 c 0
 235 300 237 305 237 342 c 0xb940
 237 379 239 383 251 383 c 0
 264 383 265 388 265 467 c 2
 265 550 l 1xb820
 320 550 l 1xb840
 376 550 l 1
 376 508 l 2xb820
 376 471 374 467 362 467 c 0
 350 467 348 462 348 425 c 0xb810
 348 388 346 383 334 383 c 0
 322 383 320 379 320 342 c 0xb840
 320 305 322 300 334 300 c 0
 346 300 348 295 348 258 c 2
 348 217 l 1
 306 217 l 1
 265 217 l 1
 265 175 l 1
 265 133 l 1
 306 133 l 1
 348 133 l 1
 348 92 l 1
 348 50 l 1xb890
 306 50 l 1
 265 50 l 1
 265 8 l 1
 265 -33 l 1
 223 -33 l 1
 181 -33 l 1
 181 8 l 1
 181 50 l 1
 140 50 l 1
 98 50 l 1
 98 92 l 1
 98 133 l 1
 140 133 l 1
 181 133 l 1
 181 175 l 1
 181 217 l 1xba80
 140 217 l 1
 98 217 l 1
 98 258 l 2xba
 98 295 100 300 112 300 c 0
 124 300 126 305 126 342 c 0xb9
 126 379 124 383 112 383 c 0
 100 383 98 388 98 425 c 0xba
 98 462 96 467 84 467 c 0
 72 467 70 471 70 508 c 2xbc
EndSplineSet
Validated: 8388609
EndChar

StartChar: r
Encoding: 114 114 39
Width: 446
VWidth: 0
Flags: W
HStem: -33 83<56 112 195 251> 300 83<56 112 223 306>
VStem: 56 111<300.004 383> 112 111<214.984 300> 112 83<50 218.594> 306 84<217 299.996>
LayerCount: 2
Back
Fore
SplineSet
56 342 m 1xe4
 56 383 l 1xe4
 112 383 l 1xcc
 167 383 l 1
 167 342 l 2xe4
 167 305 169 300 181 300 c 0
 193 300 195 305 195 342 c 2
 195 383 l 1xcc
 279 383 l 1
 362 383 l 1
 362 342 l 2
 362 305 364 300 376 300 c 0
 388 300 390 295 390 258 c 2
 390 217 l 1
 348 217 l 1
 306 217 l 1
 306 258 l 1
 306 300 l 1
 265 300 l 1
 223 300 l 1
 223 258 l 2xd4
 223 221 221 217 209 217 c 0
 196 217 195 212 195 133 c 2
 195 50 l 1xcc
 223 50 l 1xd4
 251 50 l 1
 251 8 l 1
 251 -33 l 1
 154 -33 l 1
 56 -33 l 1
 56 8 l 1
 56 50 l 1xe4
 84 50 l 1
 112 50 l 1
 112 175 l 1xcc
 112 300 l 1xd4
 84 300 l 1
 56 300 l 1
 56 342 l 1xe4
EndSplineSet
Validated: 1
EndChar

StartChar: brokenbar
Encoding: 166 166 40
Width: 446
VWidth: 0
Flags: W
VStem: 181 84<-117 217 300 633>
LayerCount: 2
Back
Fore
SplineSet
181 467 m 1
 181 633 l 1
 223 633 l 1
 265 633 l 1
 265 467 l 1
 265 300 l 1
 223 300 l 1
 181 300 l 1
 181 467 l 1
181 50 m 1
 181 217 l 1
 223 217 l 1
 265 217 l 1
 265 50 l 1
 265 -117 l 1
 223 -117 l 1
 181 -117 l 1
 181 50 l 1
EndSplineSet
Validated: 1
EndChar

StartChar: agrave
Encoding: 224 224 41
Width: 446
VWidth: 0
Flags: W
HStem: -33 83<154 265 349.792 375.567> 133 84<154 265> 300 83<126 265> 467 83<237 292> 550 83<154 209>
VStem: 70 84<50.0038 132.997> 126 166<300 383> 154 83<550 633> 209 83<467 550> 265 83<50.0041 133 217 300> 292 84<-33 49.9962>
LayerCount: 2
Back
Fore
SplineSet
154 592 m 1xf9
 154 633 l 1
 195 633 l 1
 237 633 l 1
 237 592 l 1
 237 550 l 1
 265 550 l 1xf940
 292 550 l 1
 292 508 l 1
 292 467 l 1
 251 467 l 1
 209 467 l 1
 209 508 l 1
 209 550 l 1xf880
 181 550 l 1
 154 550 l 1
 154 592 l 1xf9
265 92 m 1
 265 133 l 1xf840
 209 133 l 1xf880
 154 133 l 1
 154 92 l 1
 154 50 l 1xfd
 209 50 l 1xf880
 265 50 l 1
 265 92 l 1
126 342 m 1xfa
 126 383 l 1xfa
 209 383 l 1xf880
 292 383 l 1
 292 342 l 1
 292 300 l 1xfa
 320 300 l 1
 348 300 l 1
 348 175 l 2xf840
 348 55 349 50 362 50 c 0
 374 50 376 45 376 8 c 2
 376 -33 l 1
 334 -33 l 1
 292 -33 l 1
 292 8 l 2xf820
 292 45 291 50 279 50 c 0
 267 50 265 45 265 8 c 2
 265 -33 l 1
 181 -33 l 1
 98 -33 l 1
 98 8 l 2
 98 45 96 50 84 50 c 0
 72 50 70 55 70 92 c 0
 70 129 72 133 84 133 c 0
 96 133 98 138 98 175 c 2
 98 217 l 1
 181 217 l 1
 265 217 l 1
 265 258 l 1
 265 300 l 1xfc40
 195 300 l 1
 126 300 l 1
 126 342 l 1xfa
EndSplineSet
Validated: 8388609
EndChar

StartChar: backslash
Encoding: 92 92 42
Width: 446
VWidth: 0
Flags: W
VStem: 70 84<550.004 633> 98 83<467.003 549.996> 126 83<383.004 466.996> 154 83<300.004 382.997> 181 84<217.003 299.996> 209 83<133.004 216.996> 237 83<50.0038 132.997> 265 83<-32.997 49.9962> 292 84<-117 -33.0038>
LayerCount: 2
Back
Fore
SplineSet
70 592 m 2x80
 70 633 l 1
 112 633 l 1
 154 633 l 1
 154 592 l 2x80
 154 555 155 550 167 550 c 0
 179 550 181 545 181 508 c 0x40
 181 471 183 467 195 467 c 0
 207 467 209 462 209 425 c 0x20
 209 388 211 383 223 383 c 0
 235 383 237 379 237 342 c 0x10
 237 305 239 300 251 300 c 0
 263 300 265 295 265 258 c 0x08
 265 221 267 217 279 217 c 0
 291 217 292 212 292 175 c 0x04
 292 138 294 133 306 133 c 0
 318 133 320 129 320 92 c 0x02
 320 55 322 50 334 50 c 0
 346 50 348 45 348 8 c 0x01
 348 -29 350 -33 362 -33 c 0
 374 -33 376 -38 376 -75 c 2
 376 -117 l 1
 334 -117 l 1
 292 -117 l 1
 292 -75 l 2x0080
 292 -38 291 -33 279 -33 c 0
 267 -33 265 -29 265 8 c 0x01
 265 45 263 50 251 50 c 0
 239 50 237 55 237 92 c 0x02
 237 129 235 133 223 133 c 0
 211 133 209 138 209 175 c 0x04
 209 212 207 217 195 217 c 0
 183 217 181 221 181 258 c 0x08
 181 295 179 300 167 300 c 0
 155 300 154 305 154 342 c 0x10
 154 379 152 383 140 383 c 0
 128 383 126 388 126 425 c 0x20
 126 462 124 467 112 467 c 0
 100 467 98 471 98 508 c 0x40
 98 545 96 550 84 550 c 0
 72 550 70 555 70 592 c 2x80
EndSplineSet
Validated: 1
EndChar

StartChar: at
Encoding: 64 64 43
Width: 446
VWidth: 0
Flags: W
HStem: -33 83<167 362> 133 84<251 306> 550 83<167 279>
VStem: 56 84<133.004 466.996> 84 83<50 132.997 467.003 550> 195 56<217.004 383> 223 139<133 216.996> 279 83<467.003 549.996> 306 84<217.004 381.824>
CounterMasks: 1 1480
LayerCount: 2
Back
Fore
SplineSet
306 300 m 1xe080
 306 383 l 1xe080
 279 383 l 1
 251 383 l 1
 251 300 l 1
 251 217 l 1
 279 217 l 1xe5
 306 217 l 1
 306 300 l 1xe080
140 592 m 1xf0
 140 633 l 1
 237 633 l 1
 334 633 l 1
 334 592 l 2
 334 555 336 550 348 550 c 0
 360 550 362 545 362 508 c 0xf1
 362 471 364 467 376 467 c 0
 389 467 390 462 390 342 c 0xe080
 390 222 389 217 376 217 c 0
 364 217 362 212 362 175 c 2
 362 133 l 1
 292 133 l 1
 223 133 l 1
 223 175 l 2xe2
 223 212 221 217 209 217 c 0
 196 217 195 222 195 342 c 2
 195 467 l 1
 237 467 l 1
 279 467 l 1
 279 508 l 1
 279 550 l 1xe5
 223 550 l 1
 167 550 l 1
 167 508 l 2xea
 167 471 166 467 154 467 c 0
 140 467 140 462 140 300 c 0xf0
 140 138 140 133 154 133 c 0
 166 133 167 129 167 92 c 2
 167 50 l 1xe8
 265 50 l 1
 362 50 l 1
 362 8 l 1
 362 -33 l 1
 251 -33 l 1
 140 -33 l 1
 140 8 l 1
 140 50 l 1xf5
 112 50 l 1
 84 50 l 1
 84 92 l 2xe8
 84 129 82 133 70 133 c 0
 56 133 56 138 56 300 c 0xf0
 56 462 56 467 70 467 c 0
 82 467 84 471 84 508 c 2
 84 550 l 1xe8
 112 550 l 1
 140 550 l 1
 140 592 l 1xf0
EndSplineSet
Validated: 1
EndChar

StartChar: icircumflex
Encoding: 238 238 44
Width: 446
VWidth: 0
Flags: W
HStem: -33 83<98 181 265 348> 300 83<126 181> 467 83<98.4326 125.567 292.433 319.567> 550 83<154 265>
VStem: 98 56<467 549.996> 126 166<550.004 633> 126 139<300 383> 181 84<50 300> 265 55<467 549.996>
LayerCount: 2
Back
Fore
SplineSet
126 592 m 2xf4
 126 633 l 1
 209 633 l 1
 292 633 l 1
 292 592 l 2xf4
 292 555 294 550 306 550 c 0
 318 550 320 545 320 508 c 2
 320 467 l 1xf080
 292 467 l 1xf4
 265 467 l 1
 265 508 l 1
 265 550 l 1
 209 550 l 1
 154 550 l 1
 154 508 l 1
 154 467 l 1xf880
 126 467 l 1xf2
 98 467 l 1
 98 508 l 2xf8
 98 545 100 550 112 550 c 0
 124 550 126 555 126 592 c 2xf4
126 342 m 1xf2
 126 383 l 1
 195 383 l 1
 265 383 l 1xf2
 265 217 l 1
 265 50 l 1
 306 50 l 1
 348 50 l 1
 348 8 l 1
 348 -33 l 1
 223 -33 l 1
 98 -33 l 1
 98 8 l 1
 98 50 l 1
 140 50 l 1
 181 50 l 1
 181 175 l 1
 181 300 l 1
 154 300 l 1xf9
 126 300 l 1
 126 342 l 1xf2
EndSplineSet
Validated: 8388609
EndChar

StartChar: plusminus
Encoding: 177 177 45
Width: 446
VWidth: 0
Flags: W
HStem: 50 83<70 376> 383 84<70 181 265 376>
VStem: 181 84<217 383 467 633>
LayerCount: 2
Back
Fore
SplineSet
181 550 m 1
 181 633 l 1
 223 633 l 1
 265 633 l 1
 265 550 l 1
 265 467 l 1
 320 467 l 1
 376 467 l 1
 376 425 l 1
 376 383 l 1
 320 383 l 1
 265 383 l 1
 265 300 l 1
 265 217 l 1
 223 217 l 1
 181 217 l 1
 181 300 l 1
 181 383 l 1
 126 383 l 1
 70 383 l 1
 70 425 l 1
 70 467 l 1
 126 467 l 1
 181 467 l 1
 181 550 l 1
70 92 m 1
 70 133 l 1
 223 133 l 1
 376 133 l 1
 376 92 l 1
 376 50 l 1
 223 50 l 1
 70 50 l 1
 70 92 l 1
EndSplineSet
Validated: 1
EndChar

StartChar: a
Encoding: 97 97 46
Width: 446
VWidth: 0
Flags: W
HStem: -33 83<154 265 349.792 375.567> 133 84<154 265> 300 83<126 265>
VStem: 70 84<50.0038 132.997> 126 166<300 383> 265 83<50.0041 133 217 300> 292 84<-33 49.9962>
CounterMasks: 1 e0
LayerCount: 2
Back
Fore
SplineSet
265 92 m 1xf4
 265 133 l 1
 209 133 l 1
 154 133 l 1
 154 92 l 1
 154 50 l 1
 209 50 l 1
 265 50 l 1
 265 92 l 1xf4
126 342 m 1xe8
 126 383 l 1
 209 383 l 1
 292 383 l 1
 292 342 l 1
 292 300 l 1xe8
 320 300 l 1
 348 300 l 1
 348 175 l 2xe4
 348 55 349 50 362 50 c 0
 374 50 376 45 376 8 c 2
 376 -33 l 1
 334 -33 l 1
 292 -33 l 1
 292 8 l 2xe2
 292 45 291 50 279 50 c 0
 267 50 265 45 265 8 c 2
 265 -33 l 1
 181 -33 l 1
 98 -33 l 1
 98 8 l 2
 98 45 96 50 84 50 c 0
 72 50 70 55 70 92 c 0
 70 129 72 133 84 133 c 0
 96 133 98 138 98 175 c 2
 98 217 l 1
 181 217 l 1
 265 217 l 1
 265 258 l 1
 265 300 l 1xf4
 195 300 l 1
 126 300 l 1
 126 342 l 1xe8
EndSplineSet
Validated: 1
EndChar

StartChar: dieresis
Encoding: 168 168 47
Width: 446
VWidth: 0
Flags: W
HStem: 633 84<84 167 279 362>
VStem: 84 83<633 717> 279 83<633 717>
LayerCount: 2
Back
Fore
SplineSet
84 675 m 1
 84 717 l 1
 126 717 l 1
 167 717 l 1
 167 675 l 1
 167 633 l 1
 126 633 l 1
 84 633 l 1
 84 675 l 1
279 675 m 1
 279 717 l 1
 320 717 l 1
 362 717 l 1
 362 675 l 1
 362 633 l 1
 320 633 l 1
 279 633 l 1
 279 675 l 1
EndSplineSet
Validated: 1
EndChar

StartChar: five
Encoding: 53 53 48
Width: 446
VWidth: 0
Flags: W
HStem: -33 83<126 265> 50 83<70 126> 300 83<181 265> 467 83<154 348>
VStem: 70 111<217 300> 70 84<300.003 467> 70 56<50 133> 126 166<-33 50> 181 111<300.004 383> 265 83<50 132.997 217.003 300> 292 84<133.004 216.996>
CounterMasks: 1 b0
LayerCount: 2
Back
Fore
SplineSet
70 383 m 1xf4
 70 550 l 1
 209 550 l 1
 348 550 l 1
 348 508 l 1
 348 467 l 1xf240
 251 467 l 1
 154 467 l 1
 154 383 l 2
 154 304 154 300 167 300 c 0
 179 300 181 305 181 342 c 2
 181 383 l 1
 237 383 l 1
 292 383 l 1
 292 342 l 1
 292 300 l 1xf4a0
 320 300 l 1
 348 300 l 1
 348 258 l 2xf040
 348 221 350 217 362 217 c 0
 374 217 376 212 376 175 c 0xf020
 376 138 374 133 362 133 c 0
 350 133 348 129 348 92 c 2
 348 50 l 1xf040
 320 50 l 1
 292 50 l 1
 292 8 l 1
 292 -33 l 1
 209 -33 l 1
 126 -33 l 1
 126 8 l 1xf1
 126 50 l 1
 195 50 l 1
 265 50 l 1
 265 92 l 2xf240
 265 129 267 133 279 133 c 0
 291 133 292 138 292 175 c 0xf020
 292 212 291 217 279 217 c 0
 267 217 265 221 265 258 c 2
 265 300 l 1
 223 300 l 1
 181 300 l 1
 181 258 l 1
 181 217 l 1xf840
 126 217 l 1xf1
 70 217 l 1xf8
 70 383 l 1xf4
126 50 m 1
 98 50 l 1
 70 50 l 1
 70 92 l 1
 70 133 l 1
 98 133 l 1
 126 133 l 1
 126 92 l 1
 126 50 l 1
EndSplineSet
Validated: 8388613
EndChar

StartChar: p
Encoding: 112 112 49
Width: 446
VWidth: 0
Flags: W
HStem: -33 83<140 279> 300 83<167 279>
VStem: 56 111<213.873 300> 56 84<-200 -33 50 218.594 300.004 383> 167 139<300.004 383> 279 83<50 132.997 215.213 300> 306 84<133.004 218.594>
LayerCount: 2
Back
Fore
SplineSet
279 258 m 2xc4
 279 300 l 1
 223 300 l 1
 167 300 l 1
 167 258 l 2xe4
 167 221 166 217 154 217 c 0
 141 217 140 212 140 133 c 2
 140 50 l 1
 209 50 l 1
 279 50 l 1
 279 92 l 2xd4
 279 129 280 133 292 133 c 0
 304 133 306 138 306 175 c 0xc2
 306 212 304 217 292 217 c 0
 280 217 279 221 279 258 c 2xc4
56 92 m 1xd2
 56 383 l 1
 98 383 l 1
 140 383 l 1
 140 342 l 2
 140 305 142 300 154 300 c 0
 166 300 167 305 167 342 c 2
 167 383 l 1
 237 383 l 1
 306 383 l 1
 306 342 l 1
 306 300 l 1xda
 334 300 l 1
 362 300 l 1
 362 258 l 2xc4
 362 221 364 217 376 217 c 0
 388 217 390 212 390 175 c 0xc2
 390 138 388 133 376 133 c 0
 364 133 362 129 362 92 c 2
 362 50 l 1xc4
 334 50 l 1
 306 50 l 1
 306 8 l 1
 306 -33 l 1
 223 -33 l 1
 140 -33 l 1
 140 -117 l 1
 140 -200 l 1
 98 -200 l 1
 56 -200 l 1
 56 92 l 1xd2
EndSplineSet
Validated: 8388609
EndChar

StartChar: Aacute
Encoding: 193 193 50
Width: 446
VWidth: 0
Flags: W
HStem: -33 21G<56 140 306 390> -33 21G<56 140 306 390> 133 84<167 279> 530 20G<167 279> 633 84<167 223> 717 83<251 306>
VStem: 56 84<-33 132.997> 84 83<217 299.996> 112 83<300.004 382.997> 140 166<383.004 466.996> 167 112<467.003 550> 167 84<633 717> 223 83<717 800> 251 83<300.004 382.997> 279 83<217 299.996> 306 84<-33 132.997>
LayerCount: 2
Back
Fore
SplineSet
223 758 m 1x3c88
 223 800 l 1
 265 800 l 1
 306 800 l 1
 306 758 l 1
 306 717 l 1x3c88
 279 717 l 1
 251 717 l 1
 251 675 l 1
 251 633 l 1
 209 633 l 1
 167 633 l 1
 167 675 l 1
 167 717 l 1x3c12
 195 717 l 1
 223 717 l 1
 223 758 l 1x3c88
251 342 m 2x3c04
 251 383 l 1x3c04
 223 383 l 1
 195 383 l 1
 195 342 l 2x3c88
 195 305 193 300 181 300 c 0
 169 300 167 295 167 258 c 2
 167 217 l 1
 223 217 l 1x3d08
 279 217 l 1
 279 258 l 2x3c02
 279 295 277 300 265 300 c 0
 253 300 251 305 251 342 c 2x3c04
167 508 m 2xbc20
 167 550 l 1xbc20
 223 550 l 1xbc08
 279 550 l 1
 279 508 l 2xbc20
 279 471 280 467 292 467 c 0
 304 467 306 462 306 425 c 0xbc40
 306 388 308 383 320 383 c 0
 332 383 334 379 334 342 c 0xbc04
 334 305 336 300 348 300 c 0
 361 300 362 296 362 217 c 0xbc02
 362 138 363 133 376 133 c 0
 389 133 390 129 390 50 c 2
 390 -33 l 1
 348 -33 l 1
 306 -33 l 1
 306 50 l 1
 306 133 l 1xbc01
 223 133 l 1xbc08
 140 133 l 1xbc40
 140 50 l 1
 140 -33 l 1
 98 -33 l 1
 56 -33 l 1
 56 50 l 2xbe
 56 129 57 133 70 133 c 0
 83 133 84 138 84 217 c 0xbd
 84 296 85 300 98 300 c 0
 110 300 112 305 112 342 c 0xbc80
 112 379 114 383 126 383 c 0
 138 383 140 388 140 425 c 0xbc40
 140 462 142 467 154 467 c 0
 166 467 167 471 167 508 c 2xbc20
EndSplineSet
Validated: 8388609
EndChar

StartChar: numbersign
Encoding: 35 35 51
Width: 446
VWidth: 0
Flags: W
HStem: -33 21G<112 195 251 334> -33 21G<112 195 251 334> 50 83<56 112 195 251 334 390> 300 83<56 112 195 251 334 390>
VStem: 112 83<-33 50 133 300 383 467> 251 83<-33 50 133 300 383 467>
LayerCount: 2
Back
Fore
SplineSet
251 217 m 1x3c
 251 300 l 1
 223 300 l 1
 195 300 l 1
 195 217 l 1
 195 133 l 1
 223 133 l 1
 251 133 l 1
 251 217 l 1x3c
112 425 m 1
 112 467 l 1
 154 467 l 1
 195 467 l 1
 195 425 l 1
 195 383 l 1
 223 383 l 1
 251 383 l 1
 251 425 l 1
 251 467 l 1
 292 467 l 1
 334 467 l 1
 334 425 l 1
 334 383 l 1
 362 383 l 1
 390 383 l 1
 390 342 l 1
 390 300 l 1
 362 300 l 1
 334 300 l 1
 334 217 l 1
 334 133 l 1
 362 133 l 1
 390 133 l 1
 390 92 l 1
 390 50 l 1
 362 50 l 1
 334 50 l 1
 334 8 l 1
 334 -33 l 1
 292 -33 l 1
 251 -33 l 1
 251 8 l 1
 251 50 l 1
 223 50 l 1
 195 50 l 1
 195 8 l 1
 195 -33 l 1
 154 -33 l 1
 112 -33 l 1xbc
 112 8 l 1
 112 50 l 1
 84 50 l 1
 56 50 l 1
 56 92 l 1
 56 133 l 1
 84 133 l 1
 112 133 l 1
 112 217 l 1
 112 300 l 1
 84 300 l 1
 56 300 l 1
 56 342 l 1
 56 383 l 1
 84 383 l 1
 112 383 l 1
 112 425 l 1
EndSplineSet
Validated: 1
EndChar

StartChar: six
Encoding: 54 54 52
Width: 446
VWidth: 0
Flags: W
HStem: -33 83<181 292> 217 83<181 292> 467 83<181 320>
VStem: 70 84<217.589 382.996> 98 83<50 132.997 383.004 467> 181 139<-33 50 217.003 300 467 550> 292 84<50 217>
CounterMasks: 1 e0
LayerCount: 2
Back
Fore
SplineSet
292 133 m 1xea
 292 217 l 1xea
 237 217 l 1
 181 217 l 1
 181 133 l 1xe4
 181 50 l 1
 237 50 l 1
 292 50 l 1
 292 133 l 1xea
181 508 m 1xec
 181 550 l 1
 251 550 l 1
 320 550 l 1
 320 508 l 1
 320 467 l 1
 251 467 l 1
 181 467 l 1
 181 508 l 1xec
181 50 m 1
 140 50 l 1
 98 50 l 1
 98 92 l 2xe8
 98 129 96 133 84 133 c 0
 71 133 70 138 70 258 c 0xf0
 70 378 71 383 84 383 c 0
 96 383 98 388 98 425 c 2
 98 467 l 1
 140 467 l 1
 181 467 l 1
 181 425 l 2xe8
 181 388 179 383 167 383 c 0
 154 383 154 379 154 300 c 0
 154 221 154 217 167 217 c 0
 179 217 181 221 181 258 c 2
 181 300 l 1
 251 300 l 1
 320 300 l 1
 320 258 l 1
 320 217 l 1xf4
 348 217 l 1
 376 217 l 1
 376 133 l 1
 376 50 l 1xe2
 348 50 l 1
 320 50 l 1
 320 8 l 1
 320 -33 l 1
 251 -33 l 1
 181 -33 l 1
 181 8 l 1
 181 50 l 1
EndSplineSet
Validated: 8388613
EndChar

StartChar: logicalnot
Encoding: 172 172 53
Width: 446
VWidth: 0
Flags: W
HStem: 300 83<56 306>
VStem: 306 84<133 300>
LayerCount: 2
Back
Fore
SplineSet
56 342 m 1
 56 383 l 1
 223 383 l 1
 390 383 l 1
 390 258 l 1
 390 133 l 1
 348 133 l 1
 306 133 l 1
 306 217 l 1
 306 300 l 1
 181 300 l 1
 56 300 l 1
 56 342 l 1
EndSplineSet
Validated: 1
EndChar

StartChar: two
Encoding: 50 50 54
Width: 446
VWidth: 0
Flags: W
HStem: -33 83<84 140 223 362> 383 21G<84 140> 467 83<140 279>
VStem: 84 56<383 466.996> 140 83<50 133> 195 84<133 217> 251 83<217 299.996> 279 83<300.003 467>
LayerCount: 2
Back
Fore
SplineSet
112 508 m 2xf1
 112 550 l 1
 209 550 l 1
 306 550 l 1
 306 508 l 1
 306 467 l 1
 334 467 l 1xf2
 362 467 l 1
 362 383 l 2xf1
 362 304 361 300 348 300 c 0
 336 300 334 295 334 258 c 2
 334 217 l 1xf2
 306 217 l 1
 279 217 l 1
 279 175 l 1
 279 133 l 1xf4
 251 133 l 1xf2
 223 133 l 1xf0
 223 92 l 1xf0
 223 50 l 1xf0
 292 50 l 1
 362 50 l 1
 362 8 l 1
 362 -33 l 1xf1
 223 -33 l 1xf0
 84 -33 l 1
 84 8 l 1
 84 50 l 1
 112 50 l 1
 140 50 l 1
 140 92 l 1
 140 133 l 1
 167 133 l 1
 195 133 l 1
 195 175 l 1
 195 217 l 1xf4
 223 217 l 1xf0
 251 217 l 1
 251 258 l 2xf2
 251 295 253 300 265 300 c 0
 278 300 279 304 279 383 c 2
 279 467 l 1
 209 467 l 1
 140 467 l 1
 140 425 l 1
 140 383 l 1
 112 383 l 1
 84 383 l 1
 84 425 l 2
 84 462 86 467 98 467 c 0
 110 467 112 471 112 508 c 2xf1
EndSplineSet
Validated: 1
EndChar

StartChar: aring
Encoding: 229 229 55
Width: 446
VWidth: 0
Flags: W
HStem: -33 83<154 265 349.792 375.567> 133 84<154 265> 300 83<126 265> 467 83<181 265> 550 83<126.433 153.567 292.433 319.567> 633 84<181 265>
VStem: 70 84<50.0038 132.997> 126 55<550.004 632.997> 154 138<467 549.996 633.004 717> 265 83<50.0041 133 217 300> 265 55<550.004 632.997> 292 84<-33 49.9962>
LayerCount: 2
Back
Fore
SplineSet
265 592 m 1xfd20
 265 633 l 1
 223 633 l 1
 181 633 l 1
 181 592 l 1
 181 550 l 1
 223 550 l 1
 265 550 l 1
 265 592 l 1xfd20
154 675 m 2xfc80
 154 717 l 1
 223 717 l 1
 292 717 l 1
 292 675 l 2xfc80
 292 638 294 633 306 633 c 0
 318 633 320 629 320 592 c 0xfc20
 320 555 318 550 306 550 c 0
 294 550 292 545 292 508 c 2
 292 467 l 1
 223 467 l 1
 154 467 l 1
 154 508 l 2xfc80
 154 545 152 550 140 550 c 0
 128 550 126 555 126 592 c 0xfd
 126 629 128 633 140 633 c 0
 152 633 154 638 154 675 c 2xfc80
265 92 m 1xfc40
 265 133 l 1xfc40
 209 133 l 1
 154 133 l 1
 154 92 l 1
 154 50 l 1xfe80
 209 50 l 1
 265 50 l 1xfc20
 265 92 l 1xfc40
126 342 m 1xfd40
 126 383 l 1
 209 383 l 1
 292 383 l 1
 292 342 l 1
 292 300 l 1xfd10
 320 300 l 1xfc20
 348 300 l 1
 348 175 l 2xfc40
 348 55 349 50 362 50 c 0
 374 50 376 45 376 8 c 2
 376 -33 l 1
 334 -33 l 1
 292 -33 l 1
 292 8 l 2xfc10
 292 45 291 50 279 50 c 0
 267 50 265 45 265 8 c 2
 265 -33 l 1
 181 -33 l 1xfd20
 98 -33 l 1
 98 8 l 2
 98 45 96 50 84 50 c 0
 72 50 70 55 70 92 c 0xfe
 70 129 72 133 84 133 c 0
 96 133 98 138 98 175 c 2
 98 217 l 1
 181 217 l 1
 265 217 l 1
 265 258 l 1
 265 300 l 1
 195 300 l 1
 126 300 l 1
 126 342 l 1xfd40
EndSplineSet
Validated: 8388609
EndChar

StartChar: colon
Encoding: 58 58 56
Width: 446
VWidth: 0
Flags: W
HStem: -33 166<167 279> 300 167<167 279>
VStem: 167 112<-33 133 300 467>
LayerCount: 2
Back
Fore
SplineSet
167 383 m 1
 167 467 l 1
 223 467 l 1
 279 467 l 1
 279 383 l 1
 279 300 l 1
 223 300 l 1
 167 300 l 1
 167 383 l 1
167 50 m 1
 167 133 l 1
 223 133 l 1
 279 133 l 1
 279 50 l 1
 279 -33 l 1
 223 -33 l 1
 167 -33 l 1
 167 50 l 1
EndSplineSet
Validated: 1
EndChar

StartChar: uni00B9
Encoding: 185 185 57
Width: 446
VWidth: 0
Flags: W
VStem: 181 84<467.003 549.996> 209 56<217 466.996 550.004 633>
LayerCount: 2
Back
Fore
SplineSet
209 592 m 2x40
 209 633 l 1
 237 633 l 1
 265 633 l 1
 265 425 l 1
 265 217 l 1
 237 217 l 1
 209 217 l 1
 209 342 l 2x40
 209 462 208 467 195 467 c 0
 183 467 181 471 181 508 c 0x80
 181 545 183 550 195 550 c 0
 207 550 209 555 209 592 c 2x40
EndSplineSet
Validated: 1
EndChar

StartChar: Ccedilla
Encoding: 199 199 58
Width: 446
VWidth: 0
Flags: W
HStem: -200 83<140 223> -33 83<167 223 279 306> 50 83<334 390> 383 84<334 390> 467 83<167 306>
VStem: 56 84<133.004 382.996> 84 83<50 132.997 383.004 467> 140 194<-33 50 467 550> 140 83<-200 -117> 223 56<-117 -33> 306 84<50 133 383 467>
LayerCount: 2
Back
Fore
SplineSet
140 508 m 1xf9
 140 550 l 1
 237 550 l 1
 334 550 l 1
 334 508 l 1
 334 467 l 1xf9
 362 467 l 1
 390 467 l 1
 390 425 l 1
 390 383 l 1
 348 383 l 1
 306 383 l 1
 306 425 l 1
 306 467 l 1
 237 467 l 1
 167 467 l 1
 167 425 l 2xfa20
 167 388 166 383 154 383 c 0
 141 383 140 378 140 258 c 0xfc
 140 138 141 133 154 133 c 0
 166 133 167 129 167 92 c 2
 167 50 l 1
 237 50 l 1
 306 50 l 1
 306 92 l 1
 306 133 l 1
 348 133 l 1
 390 133 l 1
 390 92 l 1
 390 50 l 1xfa20
 362 50 l 1
 334 50 l 1
 334 8 l 1
 334 -33 l 1xf9
 306 -33 l 1xf820
 279 -33 l 1
 279 -75 l 1
 279 -117 l 1
 251 -117 l 1
 223 -117 l 1
 223 -75 l 1
 223 -33 l 1xf8c0
 181 -33 l 1
 140 -33 l 1
 140 8 l 1
 140 50 l 1xf9
 112 50 l 1
 84 50 l 1
 84 92 l 2xfa
 84 129 82 133 70 133 c 0
 57 133 56 138 56 258 c 0xfc
 56 378 57 383 70 383 c 0
 82 383 84 388 84 425 c 2
 84 467 l 1xfa
 112 467 l 1
 140 467 l 1
 140 508 l 1xf9
223 -117 m 1xf880
 223 -158 l 1
 223 -200 l 1
 181 -200 l 1
 140 -200 l 1
 140 -158 l 1
 140 -117 l 1
 181 -117 l 1
 223 -117 l 1xf880
EndSplineSet
Validated: 8388613
EndChar

StartChar: Edieresis
Encoding: 203 203 59
Width: 446
VWidth: 0
Flags: W
HStem: -33 83<181 348> 217 83<181 348> 467 83<181 348> 633 84<98 181 265 348>
VStem: 98 83<50 217 300 467 633 717> 265 83<633 717>
LayerCount: 2
Back
Fore
SplineSet
98 675 m 1
 98 717 l 1
 140 717 l 1
 181 717 l 1
 181 675 l 1
 181 633 l 1
 140 633 l 1
 98 633 l 1
 98 675 l 1
265 675 m 1
 265 717 l 1
 306 717 l 1
 348 717 l 1
 348 675 l 1
 348 633 l 1
 306 633 l 1
 265 633 l 1
 265 675 l 1
98 258 m 1
 98 550 l 1
 223 550 l 1
 348 550 l 1
 348 508 l 1
 348 467 l 1
 265 467 l 1
 181 467 l 1
 181 383 l 1
 181 300 l 1
 265 300 l 1
 348 300 l 1
 348 258 l 1
 348 217 l 1
 265 217 l 1
 181 217 l 1
 181 133 l 1
 181 50 l 1
 265 50 l 1
 348 50 l 1
 348 8 l 1
 348 -33 l 1
 223 -33 l 1
 98 -33 l 1
 98 258 l 1
EndSplineSet
Validated: 1
EndChar

StartChar: acute
Encoding: 180 180 60
Width: 446
VWidth: 0
Flags: W
HStem: 633 84<140 223> 717 83<223 306>
VStem: 140 83<633 717> 223 83<717 800>
LayerCount: 2
Back
Fore
SplineSet
223 758 m 1
 223 800 l 1
 265 800 l 1
 306 800 l 1
 306 758 l 1
 306 717 l 1
 265 717 l 1
 223 717 l 1
 223 758 l 1
223 717 m 1
 223 675 l 1
 223 633 l 1
 181 633 l 1
 140 633 l 1
 140 675 l 1
 140 717 l 1
 181 717 l 1
 223 717 l 1
EndSplineSet
Validated: 8388613
EndChar

StartChar: iacute
Encoding: 237 237 61
Width: 446
VWidth: 0
Flags: W
HStem: -33 83<98 181 265 348> 300 83<126 181> 467 83<154 209> 550 83<237 292>
VStem: 126 139<300 383> 154 83<467 550> 181 84<50 300> 209 83<550 633>
LayerCount: 2
Back
Fore
SplineSet
209 592 m 1xf1
 209 633 l 1
 251 633 l 1
 292 633 l 1
 292 592 l 1
 292 550 l 1xf1
 265 550 l 1xf2
 237 550 l 1
 237 508 l 1
 237 467 l 1
 195 467 l 1
 154 467 l 1
 154 508 l 1
 154 550 l 1xf4
 181 550 l 1xf2
 209 550 l 1
 209 592 l 1xf1
126 342 m 1xf8
 126 383 l 1
 195 383 l 1
 265 383 l 1xf8
 265 217 l 1
 265 50 l 1
 306 50 l 1
 348 50 l 1
 348 8 l 1
 348 -33 l 1
 223 -33 l 1
 98 -33 l 1
 98 8 l 1
 98 50 l 1
 140 50 l 1
 181 50 l 1
 181 175 l 1
 181 300 l 1xf2
 154 300 l 1xf4
 126 300 l 1
 126 342 l 1xf8
EndSplineSet
Validated: 8388609
EndChar

StartChar: onehalf
Encoding: 189 189 62
Width: 446
VWidth: 0
Flags: W
HStem: -117 84<237.433 264.629 320 376> -33 21G<98 154> -33 21G<98 154> 217 83<265 320> 467 83<70.4326 96.1816 292.433 319.629>
VStem: 70 84<467.003 549.996> 98 56<-33 49.9962 217.004 466.996 550.004 633> 126 55<50.0038 132.997> 154 55<133.004 216.996> 181 56<217.003 299.996> 209 56<300.004 382.997> 237 55<383.004 468.594> 265 55<-32.997 49.9962 465.213 550> 292 56<50.0038 132.997> 320 56<133.004 216.996>
LayerCount: 2
Back
Fore
SplineSet
98 592 m 2x9a
 98 633 l 1x9a
 126 633 l 1x99
 154 633 l 1
 154 425 l 2
 154 221 153 217 167 217 c 0
 179 217 181 221 181 258 c 0x9a40
 181 295 183 300 195 300 c 0
 207 300 209 305 209 342 c 0x9820
 209 379 211 383 223 383 c 0
 235 383 237 388 237 425 c 0x9810
 237 462 239 467 251 467 c 0
 263 467 265 471 265 508 c 2
 265 550 l 1x9808
 292 550 l 1x9804
 320 550 l 1
 320 508 l 2x9808
 320 471 318 467 306 467 c 0
 294 467 292 462 292 425 c 0x9810
 292 388 291 383 279 383 c 0
 267 383 265 379 265 342 c 2
 265 300 l 1x9828
 306 300 l 1
 348 300 l 1
 348 258 l 2x9804
 348 221 350 217 362 217 c 0
 374 217 376 212 376 175 c 0x9802
 376 138 374 133 362 133 c 0
 350 133 348 129 348 92 c 0x9804
 348 55 346 50 334 50 c 0
 322 50 320 45 320 8 c 2
 320 -33 l 1x980a
 348 -33 l 1x9804
 376 -33 l 1
 376 -75 l 1
 376 -117 l 1
 306 -117 l 1
 237 -117 l 1
 237 -75 l 2x9812
 237 -38 239 -33 251 -33 c 0
 263 -33 265 -29 265 8 c 0x9808
 265 45 267 50 279 50 c 0
 291 50 292 55 292 92 c 0x9804
 292 129 294 133 306 133 c 0
 318 133 320 138 320 175 c 2
 320 217 l 1x9802
 292 217 l 1x9804
 265 217 l 1
 265 258 l 2
 265 295 263 300 251 300 c 0
 239 300 237 295 237 258 c 0x9848
 237 221 235 217 223 217 c 0
 211 217 209 212 209 175 c 0x9880
 209 138 207 133 195 133 c 0
 183 133 181 129 181 92 c 0x99
 181 55 179 50 167 50 c 0
 155 50 154 45 154 8 c 2
 154 -33 l 1x9a
 126 -33 l 1x99
 98 -33 l 1
 98 8 l 2x9a
 98 45 100 50 112 50 c 0
 124 50 126 55 126 92 c 0x99
 126 129 128 133 140 133 c 0
 152 133 154 138 154 175 c 2
 154 217 l 1x9880
 126 217 l 1x99
 98 217 l 1
 98 342 l 2x9a
 98 462 97 467 84 467 c 0
 72 467 70 471 70 508 c 0x9c
 70 545 72 550 84 550 c 0
 96 550 98 555 98 592 c 2x9a
EndSplineSet
Validated: 8388641
EndChar

StartChar: semicolon
Encoding: 59 59 63
Width: 446
VWidth: 0
Flags: W
HStem: -200 83<112 167> 300 167<223 334>
VStem: 112 111<-200 -117> 167 112<-117 -33> 223 111<-33 133 300 467>
LayerCount: 2
Back
Fore
SplineSet
223 383 m 1xc8
 223 467 l 1xc8
 279 467 l 1xd0
 334 467 l 1
 334 383 l 1
 334 300 l 1xc8
 279 300 l 1xd0
 223 300 l 1
 223 383 l 1xc8
223 50 m 1
 223 133 l 1xc8
 279 133 l 1xd0
 334 133 l 1
 334 50 l 1
 334 -33 l 1xc8
 306 -33 l 1
 279 -33 l 1
 279 -75 l 1
 279 -117 l 1xd0
 251 -117 l 1
 223 -117 l 1
 223 -158 l 1
 223 -200 l 1xe0
 167 -200 l 1xd0
 112 -200 l 1
 112 -158 l 1
 112 -117 l 1xe0
 140 -117 l 1
 167 -117 l 1
 167 -75 l 1
 167 -33 l 1xd0
 195 -33 l 1
 223 -33 l 1
 223 50 l 1
EndSplineSet
Validated: 1
EndChar

StartChar: SF010000
Encoding: 9484 9484 64
Width: 446
VWidth: 0
Flags: W
HStem: 301 83<249 416>
VStem: 194 55<-199 301>
LayerCount: 2
Back
Fore
SplineSet
194 93 m 1
 194 384 l 1
 305 384 l 1
 416 384 l 1
 416 343 l 1
 416 301 l 1
 333 301 l 1
 249 301 l 1
 249 51 l 1
 249 -199 l 1
 222 -199 l 1
 194 -199 l 1
 194 93 l 1
EndSplineSet
Validated: 1
EndChar

StartChar: odieresis
Encoding: 246 246 65
Width: 446
VWidth: 0
Flags: W
HStem: -33 83<167 279> 133 84<56.4326 83.6292 362.371 389.567> 300 83<167 279> 467 83<84 167 279 362>
VStem: 56 84<133.004 216.996> 84 83<50 132.997 217.003 300 467 550> 140 166<-33 50 300 383> 279 83<50 132.997 217.003 300 467 550> 306 84<133.004 216.996>
LayerCount: 2
Back
Fore
SplineSet
84 508 m 1xf4
 84 550 l 1
 126 550 l 1
 167 550 l 1
 167 508 l 1
 167 467 l 1
 126 467 l 1
 84 467 l 1
 84 508 l 1xf4
279 508 m 1xf1
 279 550 l 1
 320 550 l 1
 362 550 l 1
 362 508 l 1
 362 467 l 1
 320 467 l 1
 279 467 l 1
 279 508 l 1xf1
279 258 m 2
 279 300 l 1
 223 300 l 1
 167 300 l 1
 167 258 l 2xf5
 167 221 166 217 154 217 c 0
 142 217 140 212 140 175 c 0xf8
 140 138 142 133 154 133 c 0
 166 133 167 129 167 92 c 2
 167 50 l 1
 223 50 l 1
 279 50 l 1
 279 92 l 2xf5
 279 129 280 133 292 133 c 0
 304 133 306 138 306 175 c 0xf080
 306 212 304 217 292 217 c 0
 280 217 279 221 279 258 c 2
140 342 m 1xf2
 140 383 l 1
 223 383 l 1
 306 383 l 1
 306 342 l 1
 306 300 l 1xf2
 334 300 l 1
 362 300 l 1
 362 258 l 2xf1
 362 221 364 217 376 217 c 0
 388 217 390 212 390 175 c 0xf080
 390 138 388 133 376 133 c 0
 364 133 362 129 362 92 c 2
 362 50 l 1xf1
 334 50 l 1
 306 50 l 1
 306 8 l 1
 306 -33 l 1
 223 -33 l 1
 140 -33 l 1
 140 8 l 1
 140 50 l 1xf2
 112 50 l 1
 84 50 l 1
 84 92 l 2xf4
 84 129 82 133 70 133 c 0
 58 133 56 138 56 175 c 0xf8
 56 212 58 217 70 217 c 0
 82 217 84 221 84 258 c 2
 84 300 l 1xf4
 112 300 l 1
 140 300 l 1
 140 342 l 1xf2
EndSplineSet
Validated: 1
EndChar

StartChar: b
Encoding: 98 98 66
Width: 446
VWidth: 0
Flags: W
HStem: -33 83<140 279> 300 83<167 279> 530 20G<56 140>
VStem: 56 111<213.873 300> 56 84<50 218.594 300.004 550> 56 56<-33 49.9962> 140 139<-33 49.9962> 167 139<300.004 383> 279 83<50 132.997 215.213 300> 306 84<133.004 218.594>
LayerCount: 2
Back
Fore
SplineSet
279 258 m 2xe080
 279 300 l 1
 223 300 l 1
 167 300 l 1
 167 258 l 2xf080
 167 221 166 217 154 217 c 0
 141 217 140 212 140 133 c 2
 140 50 l 1
 209 50 l 1
 279 50 l 1
 279 92 l 2xe880
 279 129 280 133 292 133 c 0
 304 133 306 138 306 175 c 0xe040
 306 212 304 217 292 217 c 0
 280 217 279 221 279 258 c 2xe080
56 258 m 1
 56 550 l 1
 98 550 l 1
 140 550 l 1
 140 425 l 2
 140 305 141 300 154 300 c 0
 166 300 167 305 167 342 c 2
 167 383 l 1
 237 383 l 1
 306 383 l 1
 306 342 l 1
 306 300 l 1xe940
 334 300 l 1
 362 300 l 1
 362 258 l 2xe080
 362 221 364 217 376 217 c 0
 388 217 390 212 390 175 c 0xe040
 390 138 388 133 376 133 c 0
 364 133 362 129 362 92 c 2
 362 50 l 1
 320 50 l 1
 279 50 l 1xe080
 279 8 l 1
 279 -33 l 1
 209 -33 l 1
 140 -33 l 1
 140 8 l 2
 140 45 138 50 126 50 c 0
 114 50 112 45 112 8 c 2
 112 -33 l 1
 84 -33 l 1
 56 -33 l 1xe6
 56 258 l 1
EndSplineSet
Validated: 8388613
EndChar

StartChar: less
Encoding: 60 60 67
Width: 446
VWidth: 0
Flags: W
HStem: -33 83<292 348> 50 83<237 265> 217 83<98 154> 300 83<181 209> 467 83<292 348>
VStem: 98 83<217 300> 154 83<133 217 300 383> 209 83<50 133 383 467> 265 83<-33 50 467 550>
LayerCount: 2
Back
Fore
SplineSet
265 508 m 1xfa80
 265 550 l 1
 306 550 l 1
 348 550 l 1
 348 508 l 1
 348 467 l 1xfa80
 320 467 l 1
 292 467 l 1
 292 425 l 1
 292 383 l 1xf9
 265 383 l 1
 237 383 l 1
 237 342 l 1
 237 300 l 1xfa80
 209 300 l 1
 181 300 l 1
 181 258 l 1
 181 217 l 1
 209 217 l 1xfd
 237 217 l 1
 237 175 l 1
 237 133 l 1
 265 133 l 1xfa80
 292 133 l 1
 292 92 l 1
 292 50 l 1xf9
 320 50 l 1
 348 50 l 1
 348 8 l 1
 348 -33 l 1
 306 -33 l 1
 265 -33 l 1
 265 8 l 1
 265 50 l 1
 237 50 l 1xfa80
 209 50 l 1
 209 92 l 1
 209 133 l 1
 181 133 l 1xfd
 154 133 l 1
 154 175 l 1
 154 217 l 1xfa
 126 217 l 1
 98 217 l 1
 98 258 l 1
 98 300 l 1xfc
 126 300 l 1
 154 300 l 1
 154 342 l 1
 154 383 l 1xfa
 181 383 l 1
 209 383 l 1
 209 425 l 1
 209 467 l 1xfd
 237 467 l 1
 265 467 l 1
 265 508 l 1xfa80
EndSplineSet
Validated: 8388609
EndChar

StartChar: oslash
Encoding: 248 248 68
Width: 446
VWidth: 0
Flags: W
HStem: -33 83<195 279> 133 84<56.4326 82.1816 195 251 363.818 389.567> 300 83<167 251>
VStem: 56 84<133.004 216.996> 84 83<217.003 300> 84 56<-117 -33> 195 56<133 217> 279 83<50 132.997> 306 84<133.004 216.996> 306 56<383 467>
CounterMasks: 1 e0
LayerCount: 2
Back
Fore
SplineSet
251 258 m 1xe3
 251 300 l 1
 209 300 l 1
 167 300 l 1
 167 258 l 2xeb
 167 221 166 217 154 217 c 0
 142 217 140 212 140 175 c 2xf2
 140 133 l 1xe6
 167 133 l 1
 195 133 l 1
 195 92 l 1
 195 50 l 1
 237 50 l 1
 279 50 l 1
 279 92 l 2xeb
 279 129 280 133 292 133 c 0
 304 133 306 138 306 175 c 2xe280
 306 217 l 1xe240
 279 217 l 1
 251 217 l 1
 251 258 l 1xe3
306 425 m 1xe640
 306 467 l 1
 334 467 l 1
 362 467 l 1
 362 342 l 2xe640
 362 222 363 217 376 217 c 0
 388 217 390 212 390 175 c 0xe280
 390 138 388 133 376 133 c 0
 364 133 362 129 362 92 c 2
 362 50 l 1xe3
 334 50 l 1
 306 50 l 1
 306 8 l 1
 306 -33 l 1
 223 -33 l 1
 140 -33 l 1
 140 -75 l 1
 140 -117 l 1
 112 -117 l 1
 84 -117 l 1
 84 8 l 2xe640
 84 128 83 133 70 133 c 0
 58 133 56 138 56 175 c 0xf2
 56 212 58 217 70 217 c 0
 82 217 84 221 84 258 c 2
 84 300 l 1xea
 112 300 l 1
 140 300 l 1
 140 342 l 1
 140 383 l 1
 223 383 l 1
 306 383 l 1
 306 425 l 1xe640
195 175 m 1
 195 217 l 1
 223 217 l 1
 251 217 l 1
 251 175 l 1
 251 133 l 1
 223 133 l 1
 195 133 l 1
 195 175 l 1
EndSplineSet
Validated: 5
EndChar

StartChar: P
Encoding: 80 80 69
Width: 446
VWidth: 0
Flags: W
HStem: -33 21G<70 154> -33 21G<70 154> 217 83<154 292> 467 83<154 292>
VStem: 70 250<217 300 467 550> 70 84<-33 217 300 467> 292 84<300 467>
LayerCount: 2
Back
Fore
SplineSet
292 383 m 1x36
 292 467 l 1
 223 467 l 1
 154 467 l 1
 154 383 l 1
 154 300 l 1
 223 300 l 1
 292 300 l 1
 292 383 l 1x36
70 258 m 1xb8
 70 550 l 1
 195 550 l 1
 320 550 l 1
 320 508 l 1
 320 467 l 1xb8
 348 467 l 1
 376 467 l 1
 376 383 l 1
 376 300 l 1xb2
 348 300 l 1
 320 300 l 1
 320 258 l 1
 320 217 l 1xb8
 237 217 l 1
 154 217 l 1
 154 92 l 1
 154 -33 l 1
 112 -33 l 1
 70 -33 l 1xb4
 70 258 l 1xb8
EndSplineSet
Validated: 1
EndChar

StartChar: copyright
Encoding: 169 169 70
Width: 446
VWidth: 0
Flags: W
HStem: -117 84<140 306> 50 83<223 279> 383 84<223 279> 550 83<140 306>
VStem: 84 56<50.0037 466.996> 112 28<-33 49.9962 467.003 550> 140 166<-117 -33 550 633> 167 56<133.004 382.996> 195 84<50 132.997 383.004 467> 306 56<50.0037 466.996> 306 28<-33 49.9962 467.003 550>
CounterMasks: 2 f0 09c0
LayerCount: 2
Back
Fore
SplineSet
306 258 m 1xf240
 306 550 l 1xf2
 223 550 l 1
 140 550 l 1xf5
 140 258 l 1xf8
 140 -33 l 1
 223 -33 l 1xf5
 306 -33 l 1
 306 258 l 1xf240
140 592 m 2
 140 633 l 1xf6
 223 633 l 1xf1
 306 633 l 1
 306 592 l 2
 306 555 308 550 320 550 c 0
 332 550 334 545 334 508 c 0xf220
 334 471 336 467 348 467 c 0
 362 467 362 462 362 258 c 0xf040
 362 54 362 50 348 50 c 0
 336 50 334 45 334 8 c 0xf020
 334 -29 332 -33 320 -33 c 0
 308 -33 306 -38 306 -75 c 2
 306 -117 l 1xf2
 223 -117 l 1xf1
 140 -117 l 1
 140 -75 l 2xf2
 140 -38 138 -33 126 -33 c 0
 114 -33 112 -29 112 8 c 0xf4
 112 45 110 50 98 50 c 0
 84 50 84 54 84 258 c 0xf8
 84 462 84 467 98 467 c 0
 110 467 112 471 112 508 c 0xf4
 112 545 114 550 126 550 c 0
 138 550 140 555 140 592 c 2
195 425 m 2xf080
 195 467 l 1
 237 467 l 1
 279 467 l 1
 279 425 l 1
 279 383 l 1xf080
 251 383 l 1
 223 383 l 1
 223 258 l 1
 223 133 l 1xf1
 251 133 l 1
 279 133 l 1
 279 92 l 1
 279 50 l 1
 237 50 l 1
 195 50 l 1
 195 92 l 2xf080
 195 129 193 133 181 133 c 0
 168 133 167 138 167 258 c 0xf1
 167 378 168 383 181 383 c 0
 193 383 195 388 195 425 c 2xf080
EndSplineSet
Validated: 8388609
EndChar

StartChar: degree
Encoding: 176 176 71
Width: 446
VWidth: 0
Flags: W
HStem: 300 83<167 279> 383 84<112.433 139.629 306.371 333.567> 467 83<167 279>
VStem: 112 55<383.004 466.996> 140 166<300 382.997 467.003 550> 279 55<383.004 466.996>
LayerCount: 2
Back
Fore
SplineSet
279 425 m 1xf4
 279 467 l 1
 223 467 l 1
 167 467 l 1
 167 425 l 1
 167 383 l 1
 223 383 l 1
 279 383 l 1
 279 425 l 1xf4
140 508 m 2xe8
 140 550 l 1
 223 550 l 1
 306 550 l 1
 306 508 l 2xe8
 306 471 308 467 320 467 c 0
 332 467 334 462 334 425 c 0xe4
 334 388 332 383 320 383 c 0
 308 383 306 379 306 342 c 2
 306 300 l 1
 223 300 l 1
 140 300 l 1
 140 342 l 2xe8
 140 379 138 383 126 383 c 0
 114 383 112 388 112 425 c 0xf0
 112 462 114 467 126 467 c 0
 138 467 140 471 140 508 c 2xe8
EndSplineSet
Validated: 8388609
EndChar

StartChar: braceright
Encoding: 125 125 72
Width: 446
VWidth: 0
Flags: W
HStem: -117 84<98 154> -33 83<181 209> 217 83<265 348> 467 83<181 209> 550 83<98 154>
VStem: 98 83<-117 -33 550 633> 154 83<-33 49.9962 467.003 550> 209 56<50.0032 217 300 466.996> 265 83<217 300>
LayerCount: 2
Back
Fore
SplineSet
98 592 m 1xfc80
 98 633 l 1
 140 633 l 1
 181 633 l 1
 181 592 l 1
 181 550 l 1
 209 550 l 1xfd80
 237 550 l 1
 237 508 l 2xfa80
 237 471 239 467 251 467 c 0
 264 467 265 462 265 383 c 2
 265 300 l 1xf980
 237 300 l 1xfa80
 209 300 l 1
 209 383 l 1
 209 467 l 1
 181 467 l 1xfd80
 154 467 l 1
 154 508 l 1
 154 550 l 1xfa80
 126 550 l 1
 98 550 l 1
 98 592 l 1xfc80
265 217 m 1
 265 258 l 1
 265 300 l 1
 306 300 l 1
 348 300 l 1
 348 258 l 1
 348 217 l 1
 306 217 l 1
 265 217 l 1
265 217 m 1
 265 133 l 2xf980
 265 54 264 50 251 50 c 0
 239 50 237 45 237 8 c 2
 237 -33 l 1xfa80
 209 -33 l 1
 181 -33 l 1
 181 -75 l 1
 181 -117 l 1
 140 -117 l 1
 98 -117 l 1
 98 -75 l 1
 98 -33 l 1xfd80
 126 -33 l 1
 154 -33 l 1
 154 8 l 1
 154 50 l 1xfa80
 181 50 l 1
 209 50 l 1
 209 133 l 1
 209 217 l 1xfd80
 237 217 l 1xfa80
 265 217 l 1
EndSplineSet
Validated: 8388613
EndChar

StartChar: adieresis
Encoding: 228 228 73
Width: 446
VWidth: 0
Flags: W
HStem: -33 83<154 265 349.792 375.567> 133 84<154 265> 300 83<126 265> 467 83<98 181 265 348>
VStem: 70 84<50.0038 132.997> 98 83<467 550> 126 166<300 383> 265 83<50.0041 133 217 300 467 550> 292 84<-33 49.9962>
LayerCount: 2
Back
Fore
SplineSet
98 508 m 1xf4
 98 550 l 1
 140 550 l 1
 181 550 l 1
 181 508 l 1
 181 467 l 1
 140 467 l 1
 98 467 l 1
 98 508 l 1xf4
265 508 m 1xf1
 265 550 l 1
 306 550 l 1
 348 550 l 1
 348 508 l 1
 348 467 l 1
 306 467 l 1
 265 467 l 1
 265 508 l 1xf1
265 92 m 1
 265 133 l 1
 209 133 l 1
 154 133 l 1
 154 92 l 1
 154 50 l 1xf9
 209 50 l 1
 265 50 l 1
 265 92 l 1
126 342 m 1xf2
 126 383 l 1
 209 383 l 1
 292 383 l 1
 292 342 l 1
 292 300 l 1xf2
 320 300 l 1
 348 300 l 1
 348 175 l 2xf1
 348 55 349 50 362 50 c 0
 374 50 376 45 376 8 c 2
 376 -33 l 1
 334 -33 l 1
 292 -33 l 1
 292 8 l 2xf080
 292 45 291 50 279 50 c 0
 267 50 265 45 265 8 c 2
 265 -33 l 1
 181 -33 l 1
 98 -33 l 1
 98 8 l 2xf5
 98 45 96 50 84 50 c 0
 72 50 70 55 70 92 c 0xf8
 70 129 72 133 84 133 c 0
 96 133 98 138 98 175 c 2
 98 217 l 1
 181 217 l 1
 265 217 l 1
 265 258 l 1
 265 300 l 1xf5
 195 300 l 1
 126 300 l 1
 126 342 l 1xf2
EndSplineSet
Validated: 1
EndChar

StartChar: Q
Encoding: 81 81 74
Width: 446
VWidth: 0
Flags: W
HStem: -33 83<167 223> 467 83<167 279>
VStem: 56 84<133.004 382.996> 84 83<50 132.997 383.004 467> 140 166<-32.997 50 467 550> 195 84<133.004 217> 223 139<50 132.997> 279 55<-116.996 -33.0038> 306 84<133.004 382.996> 306 56<-200 -117.003>
LayerCount: 2
Back
Fore
SplineSet
279 425 m 2xc1
 279 467 l 1xc1
 223 467 l 1
 167 467 l 1
 167 425 l 2xd2
 167 388 166 383 154 383 c 0
 141 383 140 378 140 258 c 0xe0
 140 138 141 133 154 133 c 0
 166 133 167 129 167 92 c 2
 167 50 l 1
 195 50 l 1xd4
 223 50 l 1
 223 92 l 2xc2
 223 129 221 133 209 133 c 0
 197 133 195 138 195 175 c 2
 195 217 l 1
 237 217 l 1
 279 217 l 1
 279 175 l 2
 279 138 280 133 292 133 c 0
 305 133 306 138 306 258 c 0xc480
 306 378 305 383 292 383 c 0
 280 383 279 388 279 425 c 2xc1
140 508 m 1xc8
 140 550 l 1xc8
 223 550 l 1xc2
 306 550 l 1
 306 508 l 1
 306 467 l 1xc8
 334 467 l 1xc1
 362 467 l 1
 362 425 l 2xc040
 362 388 364 383 376 383 c 0
 389 383 390 378 390 258 c 0xc080
 390 138 389 133 376 133 c 0
 364 133 362 129 362 92 c 2
 362 50 l 1xc2
 334 50 l 1xc1
 306 50 l 1
 306 8 l 2xc8
 306 -29 308 -33 320 -33 c 0
 332 -33 334 -38 334 -75 c 0xc1
 334 -112 336 -117 348 -117 c 0
 360 -117 362 -121 362 -158 c 2
 362 -200 l 1xc040
 334 -200 l 1xc1
 306 -200 l 1
 306 -158 l 2xc040
 306 -121 304 -117 292 -117 c 0
 280 -117 279 -112 279 -75 c 2
 279 -33 l 1xc1
 209 -33 l 1
 140 -33 l 1
 140 8 l 1
 140 50 l 1xc8
 112 50 l 1
 84 50 l 1
 84 92 l 2xd0
 84 129 82 133 70 133 c 0
 57 133 56 138 56 258 c 0xe0
 56 378 57 383 70 383 c 0
 82 383 84 388 84 425 c 2
 84 467 l 1xd0
 112 467 l 1
 140 467 l 1
 140 508 l 1xc8
EndSplineSet
Validated: 1
EndChar

StartChar: Ugrave
Encoding: 217 217 75
Width: 446
VWidth: 0
Flags: W
HStem: -33 83<140 306> 530 20G<56 140 306 390> 633 84<223 279> 717 83<140 195>
VStem: 56 84<50 550> 140 83<717 800> 195 84<633 717> 306 84<50 550>
LayerCount: 2
Back
Fore
SplineSet
140 758 m 1xfb
 140 800 l 1
 181 800 l 1
 223 800 l 1xf9
 223 758 l 1xf9
 223 717 l 1xf9
 251 717 l 1
 279 717 l 1
 279 675 l 1
 279 633 l 1
 237 633 l 1
 195 633 l 1
 195 675 l 1
 195 717 l 1
 167 717 l 1
 140 717 l 1
 140 758 l 1xfb
56 300 m 1
 56 550 l 1
 98 550 l 1
 140 550 l 1
 140 300 l 1
 140 50 l 1
 223 50 l 1xf9
 306 50 l 1
 306 300 l 1
 306 550 l 1
 348 550 l 1
 390 550 l 1
 390 300 l 1
 390 50 l 1
 362 50 l 1
 334 50 l 1
 334 8 l 1
 334 -33 l 1
 223 -33 l 1xf9
 112 -33 l 1
 112 8 l 1
 112 50 l 1
 84 50 l 1
 56 50 l 1
 56 300 l 1
EndSplineSet
Validated: 8388609
EndChar

StartChar: Icircumflex
Encoding: 206 206 76
Width: 446
VWidth: 0
Flags: W
HStem: -33 83<126 181 265 320> 467 83<126 181 265 320> 633 84<126.433 153.629 292.371 319.567> 717 83<181 265>
VStem: 126 55<633 716.996> 154 138<717.003 800> 181 84<50 467> 265 55<633 716.996>
LayerCount: 2
Back
Fore
SplineSet
154 758 m 2xf4
 154 800 l 1
 223 800 l 1
 292 800 l 1
 292 758 l 2xf4
 292 721 294 717 306 717 c 0
 318 717 320 712 320 675 c 2
 320 633 l 1xf1
 292 633 l 1xf4
 265 633 l 1
 265 675 l 1
 265 717 l 1xf1
 223 717 l 1
 181 717 l 1xf2
 181 675 l 1
 181 633 l 1xf8
 154 633 l 1xf4
 126 633 l 1
 126 675 l 2xf8
 126 712 128 717 140 717 c 0
 152 717 154 721 154 758 c 2xf4
126 508 m 1xf8
 126 550 l 1
 223 550 l 1
 320 550 l 1
 320 508 l 1
 320 467 l 1xf9
 292 467 l 1xf4
 265 467 l 1
 265 258 l 1
 265 50 l 1xf2
 292 50 l 1xf4
 320 50 l 1
 320 8 l 1
 320 -33 l 1
 223 -33 l 1
 126 -33 l 1
 126 8 l 1
 126 50 l 1xf9
 154 50 l 1xf4
 181 50 l 1
 181 258 l 1
 181 467 l 1xf2
 154 467 l 1xf4
 126 467 l 1
 126 508 l 1xf8
EndSplineSet
Validated: 8388609
EndChar

StartChar: Iacute
Encoding: 205 205 77
Width: 446
VWidth: 0
Flags: W
HStem: -33 83<126 181 265 320> 467 83<126 181 265 320> 633 84<181 237> 717 83<265 320>
VStem: 126 194<-33 50 467 550> 181 84<50 467 633 717> 237 83<717 800>
LayerCount: 2
Back
Fore
SplineSet
237 758 m 1xf2
 237 800 l 1
 279 800 l 1
 320 800 l 1
 320 758 l 1
 320 717 l 1xf2
 292 717 l 1
 265 717 l 1
 265 675 l 1
 265 633 l 1
 223 633 l 1
 181 633 l 1
 181 675 l 1
 181 717 l 1xf4
 209 717 l 1
 237 717 l 1
 237 758 l 1xf2
126 508 m 1xf8
 126 550 l 1
 223 550 l 1
 320 550 l 1
 320 508 l 1
 320 467 l 1xf8
 292 467 l 1
 265 467 l 1
 265 258 l 1
 265 50 l 1xf4
 292 50 l 1
 320 50 l 1
 320 8 l 1
 320 -33 l 1
 223 -33 l 1
 126 -33 l 1
 126 8 l 1
 126 50 l 1xf8
 154 50 l 1
 181 50 l 1
 181 258 l 1
 181 467 l 1xf4
 154 467 l 1
 126 467 l 1
 126 508 l 1xf8
EndSplineSet
Validated: 8388609
EndChar

StartChar: V
Encoding: 86 86 78
Width: 446
VWidth: 0
Flags: W
HStem: -33 21G<181 265> -33 21G<181 265> 530 20G<70 154 292 376>
VStem: 70 84<300.004 550> 98 83<217.003 299.996> 126 83<133.004 216.996> 154 138<50.0038 132.997> 181 84<-33 49.9962> 237 83<133.004 216.996> 265 83<217.003 299.996> 292 84<300.004 550>
LayerCount: 2
Back
Fore
SplineSet
70 425 m 2xb0
 70 550 l 1
 112 550 l 1
 154 550 l 1
 154 425 l 2xb0
 154 305 154 300 167 300 c 0
 179 300 181 295 181 258 c 0xa8
 181 221 183 217 195 217 c 0
 207 217 209 212 209 175 c 0
 209 138 211 133 223 133 c 0
 235 133 237 138 237 175 c 0xa480
 237 212 239 217 251 217 c 0
 263 217 265 221 265 258 c 0xa040
 265 295 267 300 279 300 c 0
 292 300 292 305 292 425 c 2
 292 550 l 1
 334 550 l 1
 376 550 l 1
 376 425 l 2xa020
 376 305 375 300 362 300 c 0
 350 300 348 295 348 258 c 0xa040
 348 221 346 217 334 217 c 0
 322 217 320 212 320 175 c 0xa080
 320 138 318 133 306 133 c 0
 294 133 292 129 292 92 c 0xa2
 292 55 291 50 279 50 c 0
 267 50 265 45 265 8 c 2
 265 -33 l 1
 223 -33 l 1
 181 -33 l 1
 181 8 l 2xa1
 181 45 179 50 167 50 c 0
 155 50 154 55 154 92 c 0xa2
 154 129 152 133 140 133 c 0
 128 133 126 138 126 175 c 0xa4
 126 212 124 217 112 217 c 0
 100 217 98 221 98 258 c 0xa8
 98 295 96 300 84 300 c 0
 71 300 70 305 70 425 c 2xb0
EndSplineSet
Validated: 1
EndChar

StartChar: W
Encoding: 87 87 79
Width: 446
VWidth: 0
Flags: W
HStem: -33 21G<112 167 279 334> -33 21G<112 167 279 334> 530 20G<56 140 195 251 306 390>
VStem: 56 84<217.924 550> 84 111<50.0038 133> 112 55<-33 49.9962> 167 112<133.004 219.642> 195 56<215.213 550> 251 111<50.0038 133> 279 55<-33 49.9962> 306 84<217.924 550>
LayerCount: 2
Back
Fore
SplineSet
56 383 m 2xb0
 56 550 l 1
 98 550 l 1
 140 550 l 1
 140 342 l 2
 140 138 140 133 154 133 c 0
 166 133 167 138 167 175 c 0xb2
 167 212 169 217 181 217 c 0
 195 217 195 221 195 383 c 2
 195 550 l 1
 223 550 l 1
 251 550 l 1
 251 383 l 2xa1
 251 221 251 217 265 217 c 0
 277 217 279 212 279 175 c 0
 279 138 280 133 292 133 c 0
 306 133 306 138 306 342 c 2
 306 550 l 1
 348 550 l 1
 390 550 l 1
 390 383 l 2xa220
 390 221 390 217 376 217 c 0
 363 217 362 212 362 133 c 0xa080
 362 54 361 50 348 50 c 0
 336 50 334 45 334 8 c 2
 334 -33 l 1xa040
 306 -33 l 1xa020
 279 -33 l 1
 279 8 l 2xa040
 279 45 277 50 265 50 c 0
 253 50 251 55 251 92 c 2
 251 133 l 1
 223 133 l 1
 195 133 l 1
 195 92 l 2xa880
 195 55 193 50 181 50 c 0
 169 50 167 45 167 8 c 2
 167 -33 l 1xa4
 140 -33 l 1xb0
 112 -33 l 1
 112 8 l 2xa4
 112 45 110 50 98 50 c 0
 85 50 84 54 84 133 c 0xa8
 84 212 83 217 70 217 c 0
 56 217 56 221 56 383 c 2xb0
EndSplineSet
Validated: 1
EndChar

StartChar: edieresis
Encoding: 235 235 80
Width: 446
VWidth: 0
Flags: W
HStem: -33 83<167 362> 133 84<56.4326 83.6292 167 306> 300 83<167 306> 467 83<112 195 279 362>
VStem: 84 83<50 132.997 217.003 300> 112 83<467 550> 279 83<467 550> 306 84<217 300>
LayerCount: 2
Back
Fore
SplineSet
112 508 m 1xf4
 112 550 l 1
 154 550 l 1
 195 550 l 1
 195 508 l 1
 195 467 l 1
 154 467 l 1
 112 467 l 1
 112 508 l 1xf4
279 508 m 1xf2
 279 550 l 1
 320 550 l 1
 362 550 l 1
 362 508 l 1
 362 467 l 1
 320 467 l 1
 279 467 l 1
 279 508 l 1xf2
306 258 m 1xf9
 306 300 l 1
 237 300 l 1
 167 300 l 1
 167 258 l 1
 167 217 l 1
 237 217 l 1
 306 217 l 1
 306 258 l 1xf9
140 342 m 1
 140 383 l 1
 237 383 l 1
 334 383 l 1
 334 342 l 1
 334 300 l 1
 362 300 l 1xf6
 390 300 l 1
 390 217 l 1
 390 133 l 1xf1
 279 133 l 1
 167 133 l 1
 167 92 l 1
 167 50 l 1xfa
 265 50 l 1
 362 50 l 1
 362 8 l 1
 362 -33 l 1
 251 -33 l 1
 140 -33 l 1
 140 8 l 1
 140 50 l 1
 112 50 l 1xf6
 84 50 l 1
 84 92 l 2
 84 129 82 133 70 133 c 0
 58 133 56 138 56 175 c 0
 56 212 58 217 70 217 c 0
 82 217 84 221 84 258 c 2
 84 300 l 1xf8
 112 300 l 1xf4
 140 300 l 1
 140 342 l 1
EndSplineSet
Validated: 1
EndChar

StartChar: exclamdown
Encoding: 161 161 81
Width: 446
VWidth: 0
Flags: W
HStem: 383 84<181 265>
VStem: 181 84<-117 300 383 467>
LayerCount: 2
Back
Fore
SplineSet
181 425 m 1
 181 467 l 1
 223 467 l 1
 265 467 l 1
 265 425 l 1
 265 383 l 1
 223 383 l 1
 181 383 l 1
 181 425 l 1
181 92 m 1
 181 300 l 1
 223 300 l 1
 265 300 l 1
 265 92 l 1
 265 -117 l 1
 223 -117 l 1
 181 -117 l 1
 181 92 l 1
EndSplineSet
Validated: 1
EndChar

StartChar: eight
Encoding: 56 56 82
Width: 446
VWidth: 0
Flags: W
HStem: -33 83<167 279> 217 83<167 279> 467 83<167 279>
VStem: 84 83<50 216.996 300.003 467> 140 166<-33 50 467 550> 279 83<50 216.996 300.003 467>
CounterMasks: 1 e0
LayerCount: 2
Back
Fore
SplineSet
279 133 m 1xf4
 279 217 l 1
 223 217 l 1
 167 217 l 1
 167 133 l 1
 167 50 l 1
 223 50 l 1
 279 50 l 1
 279 133 l 1xf4
279 383 m 1
 279 467 l 1
 223 467 l 1
 167 467 l 1
 167 383 l 1
 167 300 l 1
 223 300 l 1
 279 300 l 1
 279 383 l 1
140 508 m 1xe8
 140 550 l 1
 223 550 l 1
 306 550 l 1
 306 508 l 1
 306 467 l 1xe8
 334 467 l 1
 362 467 l 1
 362 383 l 2
 362 304 361 300 348 300 c 0
 336 300 334 295 334 258 c 0
 334 221 336 217 348 217 c 0
 361 217 362 212 362 133 c 2
 362 50 l 1xe4
 334 50 l 1
 306 50 l 1
 306 8 l 1
 306 -33 l 1
 223 -33 l 1
 140 -33 l 1
 140 8 l 1
 140 50 l 1xe8
 112 50 l 1
 84 50 l 1
 84 133 l 2
 84 212 85 217 98 217 c 0
 110 217 112 221 112 258 c 0
 112 295 110 300 98 300 c 0
 85 300 84 304 84 383 c 2
 84 467 l 1xf0
 112 467 l 1
 140 467 l 1
 140 508 l 1xe8
EndSplineSet
Validated: 1
EndChar

StartChar: SF040000
Encoding: 9496 9496 83
Width: 446
VWidth: 0
Flags: W
HStem: 300 83<0 194>
VStem: 194 56<383 800>
LayerCount: 2
Back
Fore
SplineSet
194 592 m 5
 194 800 l 5
 222 800 l 5
 250 800 l 5
 250 550 l 5
 250 300 l 5
 125 300 l 5
 0 300 l 5
 0 342 l 5
 0 383 l 5
 97 383 l 5
 194 383 l 5
 194 592 l 5
EndSplineSet
Validated: 1
EndChar

StartChar: A
Encoding: 65 65 84
Width: 446
VWidth: 0
Flags: W
HStem: -33 21G<56 140 306 390> -33 21G<56 140 306 390> 133 84<167 279> 530 20G<167 279>
VStem: 56 84<-33 132.997> 84 83<217 299.996> 112 83<300.004 382.997> 140 166<383.004 466.996> 167 112<467.003 550> 251 83<300.004 382.997> 279 83<217 299.996> 306 84<-33 132.997>
LayerCount: 2
Back
Fore
SplineSet
251 342 m 2x3040
 251 383 l 1
 223 383 l 1
 195 383 l 1
 195 342 l 2x3240
 195 305 193 300 181 300 c 0
 169 300 167 295 167 258 c 2
 167 217 l 1
 223 217 l 1
 279 217 l 1
 279 258 l 2x3420
 279 295 277 300 265 300 c 0
 253 300 251 305 251 342 c 2x3040
167 508 m 2xb080
 167 550 l 1
 223 550 l 1
 279 550 l 1
 279 508 l 2xb080
 279 471 280 467 292 467 c 0
 304 467 306 462 306 425 c 0xb1
 306 388 308 383 320 383 c 0
 332 383 334 379 334 342 c 0xb040
 334 305 336 300 348 300 c 0
 361 300 362 296 362 217 c 0xb020
 362 138 363 133 376 133 c 0
 389 133 390 129 390 50 c 2
 390 -33 l 1
 348 -33 l 1
 306 -33 l 1
 306 50 l 1
 306 133 l 1xb010
 223 133 l 1
 140 133 l 1xb1
 140 50 l 1
 140 -33 l 1
 98 -33 l 1
 56 -33 l 1
 56 50 l 2xb8
 56 129 57 133 70 133 c 0
 83 133 84 138 84 217 c 0xb4
 84 296 85 300 98 300 c 0
 110 300 112 305 112 342 c 0xb2
 112 379 114 383 126 383 c 0
 138 383 140 388 140 425 c 0xb1
 140 462 142 467 154 467 c 0
 166 467 167 471 167 508 c 2xb080
EndSplineSet
Validated: 1
EndChar

StartChar: underscore
Encoding: 95 95 85
Width: 446
VWidth: 0
Flags: W
HStem: -33 83<56 390>
LayerCount: 2
Back
Fore
SplineSet
56 8 m 1
 56 50 l 1
 223 50 l 1
 390 50 l 1
 390 8 l 1
 390 -33 l 1
 223 -33 l 1
 56 -33 l 1
 56 8 l 1
EndSplineSet
Validated: 1
EndChar

StartChar: Ntilde
Encoding: 209 209 86
Width: 446
VWidth: 0
Flags: W
HStem: -33 21G<56 140 306 390> -33 21G<56 140 306 390> 530 20G<56 140 306 390> 633 84<84 140 251 334> 717 83<140 223 334 390>
VStem: 56 111<383 469.316> 56 84<-33 299.996 465.213 550> 84 56<633 717> 140 111<717 800> 167 84<217 299.996> 223 111<633 717> 251 139<50 132.997> 306 84<-33 50 217 550> 334 56<717 800>
LayerCount: 2
Back
Fore
SplineSet
140 758 m 1x3980
 140 800 l 1
 195 800 l 1
 251 800 l 1
 251 758 l 1
 251 717 l 1x3980
 292 717 l 1
 334 717 l 1
 334 675 l 1
 334 633 l 1
 279 633 l 1
 223 633 l 1
 223 675 l 1
 223 717 l 1x3820
 181 717 l 1
 140 717 l 1
 140 758 l 1x3980
56 258 m 1xba40
 56 550 l 1
 98 550 l 1
 140 550 l 1
 140 508 l 2xba40
 140 471 142 467 154 467 c 0
 166 467 167 462 167 425 c 2
 167 383 l 1
 195 383 l 1
 223 383 l 1
 223 342 l 2xbc20
 223 305 225 300 237 300 c 0
 249 300 251 295 251 258 c 2
 251 217 l 1
 279 217 l 1
 306 217 l 1
 306 383 l 1
 306 550 l 1
 348 550 l 1
 390 550 l 1
 390 258 l 1
 390 -33 l 1
 348 -33 l 1
 306 -33 l 1
 306 8 l 1
 306 50 l 1xb848
 279 50 l 1
 251 50 l 1
 251 92 l 2xb810
 251 129 249 133 237 133 c 0
 225 133 223 138 223 175 c 2
 223 217 l 1xb820
 195 217 l 1
 167 217 l 1
 167 258 l 2
 167 295 166 300 154 300 c 0
 140 300 140 295 140 133 c 2
 140 -33 l 1
 98 -33 l 1
 56 -33 l 1
 56 258 l 1xba40
140 717 m 1x39
 140 675 l 1
 140 633 l 1
 112 633 l 1
 84 633 l 1
 84 675 l 1
 84 717 l 1
 112 717 l 1
 140 717 l 1x39
334 717 m 1x3820
 334 758 l 1
 334 800 l 1
 362 800 l 1
 390 800 l 1
 390 758 l 1
 390 717 l 1x3824
 362 717 l 1
 334 717 l 1x3820
EndSplineSet
Validated: 8388613
EndChar

StartChar: Atilde
Encoding: 195 195 87
Width: 446
VWidth: 0
Flags: W
HStem: -33 21G<56 140 306 390> -33 21G<56 140 306 390> 133 84<167 279> 530 20G<167 279> 633 84<84 140 251 334> 717 83<140 223 334 390>
VStem: 56 84<-33 132.997> 84 83<217 299.996> 84 56<633 717> 112 83<300.004 382.997> 140 166<383.004 466.996> 140 111<717 800> 167 112<467.003 550> 223 111<633 717> 251 83<300.004 382.997> 279 83<217 299.996> 306 84<-33 132.997> 334 56<717 800>
LayerCount: 2
Back
Fore
SplineSet
140 758 m 1x3c90
 140 800 l 1x3c90
 195 800 l 1x3c40
 251 800 l 1
 251 758 l 1
 251 717 l 1x3c10
 292 717 l 1
 334 717 l 1
 334 675 l 1
 334 633 l 1x3c04
 279 633 l 1x3c01
 223 633 l 1
 223 675 l 1
 223 717 l 1x3c04
 181 717 l 1
 140 717 l 1
 140 758 l 1x3c90
251 342 m 2x3c02
 251 383 l 1x3c02
 223 383 l 1
 195 383 l 1
 195 342 l 2x3c44
 195 305 193 300 181 300 c 0
 169 300 167 295 167 258 c 2
 167 217 l 1
 223 217 l 1x3d04
 279 217 l 1
 279 258 l 2x3c01
 279 295 277 300 265 300 c 0
 253 300 251 305 251 342 c 2x3c02
167 508 m 2xbc08
 167 550 l 1xbc08
 223 550 l 1xbc04
 279 550 l 1
 279 508 l 2xbc08
 279 471 280 467 292 467 c 0
 304 467 306 462 306 425 c 0xbc20
 306 388 308 383 320 383 c 0
 332 383 334 379 334 342 c 0xbc02
 334 305 336 300 348 300 c 0
 361 300 362 296 362 217 c 0xbc01
 362 138 363 133 376 133 c 0
 389 133 390 129 390 50 c 2
 390 -33 l 1
 348 -33 l 1
 306 -33 l 1
 306 50 l 1
 306 133 l 1xbc0080
 223 133 l 1xbc04
 140 133 l 1xbc10
 140 50 l 1
 140 -33 l 1
 98 -33 l 1
 56 -33 l 1
 56 50 l 2xbe
 56 129 57 133 70 133 c 0
 83 133 84 138 84 217 c 0xbd
 84 296 85 300 98 300 c 0
 110 300 112 305 112 342 c 0xbc40
 112 379 114 383 126 383 c 0
 138 383 140 388 140 425 c 0xbc20
 140 462 142 467 154 467 c 0
 166 467 167 471 167 508 c 2xbc08
140 717 m 1x3c80
 140 675 l 1
 140 633 l 1x3c80
 112 633 l 1x3c40
 84 633 l 1
 84 675 l 1
 84 717 l 1x3c80
 112 717 l 1x3c40
 140 717 l 1x3c80
334 717 m 1x3c04
 334 758 l 1
 334 800 l 1x3c0440
 362 800 l 1x3c01
 390 800 l 1
 390 758 l 1
 390 717 l 1x3c0040
 362 717 l 1x3c01
 334 717 l 1x3c04
EndSplineSet
Validated: 8388613
EndChar

StartChar: threequarters
Encoding: 190 190 88
Width: 446
VWidth: 0
Flags: W
HStem: -33 83<84.4326 111.567 195.433 222.567 251 306 363.818 389.567> 217 83<56 140 279.294 304.887> 383 84<56 140> 467 83<167.433 194.567 279.294 305.629> 550 83<56 140>
VStem: 56 111<383 466.996 550.004 633> 84 56<-33 49.9962> 112 55<50.0038 132.997> 140 55<133.004 216.996 467.003 549.996> 195 195<-32.997 49.9962> 223 56<383.004 466.996> 223 28<50.0038 133> 251 55<467.003 550> 251 28<133 216.996> 279 83<217.003 300> 306 56<50.0041 216.996> 334 28<-116.996 -33.0038>
CounterMasks: 3 68 0111 008c
LayerCount: 2
Back
Fore
SplineSet
56 592 m 1xfc
 56 633 l 1xfc
 112 633 l 1xf9
 167 633 l 1
 167 592 l 2xfc
 167 555 169 550 181 550 c 0
 193 550 195 545 195 508 c 0xf880
 195 471 193 467 181 467 c 0
 169 467 167 462 167 425 c 2
 167 383 l 1
 195 383 l 1xfc40
 223 383 l 1xf810
 223 425 l 2xf820
 223 462 225 467 237 467 c 0
 249 467 251 471 251 508 c 2
 251 550 l 1xf808
 279 550 l 1xf802
 306 550 l 1
 306 508 l 2xf808
 306 471 304 467 292 467 c 0
 280 467 279 462 279 425 c 0xf820
 279 388 277 383 265 383 c 0
 253 383 251 379 251 342 c 0xf804
 251 305 249 300 237 300 c 0
 225 300 223 295 223 258 c 0
 223 221 221 217 209 217 c 0
 197 217 195 212 195 175 c 0xf890
 195 138 193 133 181 133 c 0
 169 133 167 129 167 92 c 0xf9
 167 55 166 50 154 50 c 0
 142 50 140 45 140 8 c 2
 140 -33 l 1xfa
 112 -33 l 1xf9
 84 -33 l 1
 84 8 l 2xfa
 84 45 86 50 98 50 c 0
 110 50 112 55 112 92 c 0xf9
 112 129 114 133 126 133 c 0
 138 133 140 138 140 175 c 2
 140 217 l 1xf880
 98 217 l 1
 56 217 l 1
 56 258 l 1
 56 300 l 1xfc
 98 300 l 1
 140 300 l 1
 140 342 l 1
 140 383 l 1xf880
 98 383 l 1
 56 383 l 1
 56 425 l 1
 56 467 l 1xfc
 98 467 l 1
 140 467 l 1
 140 508 l 1
 140 550 l 1xf880
 98 550 l 1
 56 550 l 1
 56 592 l 1xfc
306 133 m 2xf801
 306 212 305 217 292 217 c 0
 280 217 279 212 279 175 c 0
 279 138 277 133 265 133 c 0
 253 133 251 129 251 92 c 2
 251 50 l 1
 279 50 l 1xf816
 306 50 l 1
 306 133 l 2xf801
279 258 m 2
 279 300 l 1
 320 300 l 1
 362 300 l 1xf816
 362 175 l 2xf801
 362 55 363 50 376 50 c 0
 388 50 390 45 390 8 c 0xf840
 390 -29 388 -33 376 -33 c 0
 364 -33 362 -38 362 -75 c 0
 362 -112 360 -117 348 -117 c 0
 336 -117 334 -112 334 -75 c 2
 334 -33 l 1xf80080
 265 -33 l 1
 195 -33 l 1
 195 8 l 2xf840
 195 45 197 50 209 50 c 0
 221 50 223 55 223 92 c 0
 223 129 225 133 237 133 c 0
 249 133 251 138 251 175 c 0
 251 212 253 217 265 217 c 0
 277 217 279 221 279 258 c 2
EndSplineSet
Validated: 8388609
EndChar

StartChar: braceleft
Encoding: 123 123 89
Width: 446
VWidth: 0
Flags: W
HStem: -117 84<292 348> -33 83<237 265> 217 83<98 181> 467 83<237 265> 550 83<292 348>
VStem: 98 83<217 300> 181 56<50.0032 217 300 466.996> 209 83<-33 49.9962 467.003 550> 265 83<-117 -33 550 633>
LayerCount: 2
Back
Fore
SplineSet
265 592 m 1xfc80
 265 633 l 1
 306 633 l 1
 348 633 l 1
 348 592 l 1
 348 550 l 1xfc80
 320 550 l 1
 292 550 l 1
 292 508 l 1
 292 467 l 1xfd
 265 467 l 1xfc80
 237 467 l 1xfc
 237 383 l 1xfc
 237 300 l 1xfc
 209 300 l 1
 181 300 l 1
 181 383 l 2
 181 462 182 467 195 467 c 0
 207 467 209 471 209 508 c 2
 209 550 l 1xfd
 237 550 l 1xfc
 265 550 l 1
 265 592 l 1xfc80
181 217 m 1
 140 217 l 1
 98 217 l 1
 98 258 l 1
 98 300 l 1
 140 300 l 1
 181 300 l 1
 181 258 l 1
 181 217 l 1
181 217 m 1
 209 217 l 1xfd
 237 217 l 1xfc
 237 133 l 1xfc
 237 50 l 1xfc
 265 50 l 1xfc80
 292 50 l 1
 292 8 l 1
 292 -33 l 1xfd
 320 -33 l 1
 348 -33 l 1
 348 -75 l 1
 348 -117 l 1
 306 -117 l 1
 265 -117 l 1
 265 -75 l 1
 265 -33 l 1xfc80
 237 -33 l 1xfc
 209 -33 l 1
 209 8 l 2xfd
 209 45 207 50 195 50 c 0
 182 50 181 54 181 133 c 2
 181 217 l 1
EndSplineSet
Validated: 8388613
EndChar

StartChar: SF110000
Encoding: 9474 9474 90
Width: 446
VWidth: 0
Flags: W
VStem: 195 56<-200 800>
LayerCount: 2
Back
Fore
SplineSet
195 300 m 1
 195 800 l 1
 223 800 l 1
 251 800 l 1
 251 300 l 1
 251 -200 l 1
 223 -200 l 1
 195 -200 l 1
 195 300 l 1
EndSplineSet
Validated: 1
EndChar

StartChar: quotesingle
Encoding: 39 39 91
Width: 446
VWidth: 0
Flags: W
HStem: 467 83<154 209> 550 83<237 292>
VStem: 154 83<467 550> 209 83<550 633>
LayerCount: 2
Back
Fore
SplineSet
209 592 m 1xd0
 209 633 l 1
 251 633 l 1
 292 633 l 1
 292 592 l 1
 292 550 l 1xd0
 265 550 l 1
 237 550 l 1
 237 508 l 1
 237 467 l 1
 195 467 l 1
 154 467 l 1
 154 508 l 1
 154 550 l 1xe0
 181 550 l 1
 209 550 l 1
 209 592 l 1xd0
EndSplineSet
Validated: 8388609
EndChar

StartChar: shade
Encoding: 9618 9618 92
Width: 446
VWidth: 0
Flags: W
HStem: -117 167<15 70 154 209 292 348> 50 167<98 154 237 292 376 431> 217 166<15 70 154 209 292 348> 383 167<98 154 237 292 376 431> 550 167<15 70 154 209 292 348>
VStem: 15 83<-117 50 217 383 550 717> 70 84<50 217 383 550> 154 83<-117 50 217 383 550 717> 209 83<50 217 383 550> 292 84<-117 50 217 383 550 717> 348 83<50 217 383 550>
CounterMasks: 3 a8 0540 02a0
LayerCount: 2
Back
Fore
SplineSet
348 467 m 1xf8a0
 348 550 l 1
 320 550 l 1
 292 550 l 1
 292 467 l 1
 292 383 l 1
 320 383 l 1
 348 383 l 1
 348 467 l 1xf8a0
209 467 m 1
 209 550 l 1
 181 550 l 1
 154 550 l 1
 154 467 l 1
 154 383 l 1xfa80
 181 383 l 1
 209 383 l 1
 209 467 l 1
15 633 m 1xfc
 15 717 l 1
 56 717 l 1
 98 717 l 1
 98 633 l 1
 98 550 l 1xfc
 126 550 l 1
 154 550 l 1
 154 633 l 1
 154 717 l 1
 195 717 l 1
 237 717 l 1
 237 633 l 1
 237 550 l 1xfb
 265 550 l 1
 292 550 l 1
 292 633 l 1
 292 717 l 1
 334 717 l 1
 376 717 l 1
 376 633 l 1
 376 550 l 1xf8c0
 404 550 l 1
 431 550 l 1
 431 467 l 1
 431 383 l 1xf820
 404 383 l 1
 376 383 l 1
 376 300 l 1
 376 217 l 1xf840
 404 217 l 1
 431 217 l 1
 431 133 l 1
 431 50 l 1xf820
 404 50 l 1
 376 50 l 1
 376 -33 l 1
 376 -117 l 1
 334 -117 l 1
 292 -117 l 1
 292 -33 l 1xf840
 292 50 l 1
 320 50 l 1
 348 50 l 1
 348 133 l 1
 348 217 l 1xf8a0
 320 217 l 1
 292 217 l 1
 292 300 l 1xf8c0
 292 383 l 1xf880
 265 383 l 1
 237 383 l 1
 237 300 l 1
 237 217 l 1xf9
 265 217 l 1
 292 217 l 1
 292 133 l 1
 292 50 l 1xf880
 265 50 l 1
 237 50 l 1
 237 -33 l 1
 237 -117 l 1
 195 -117 l 1
 154 -117 l 1
 154 -33 l 1xf9
 154 50 l 1
 181 50 l 1
 209 50 l 1
 209 133 l 1
 209 217 l 1xfa80
 181 217 l 1
 154 217 l 1
 154 300 l 1xfb
 154 383 l 1xfa
 126 383 l 1
 98 383 l 1
 98 300 l 1
 98 217 l 1xfc
 126 217 l 1
 154 217 l 1
 154 133 l 1
 154 50 l 1xfa
 126 50 l 1
 98 50 l 1
 98 -33 l 1
 98 -117 l 1
 56 -117 l 1
 15 -117 l 1
 15 -33 l 1
 15 50 l 1xfc
 42 50 l 1
 70 50 l 1
 70 133 l 1
 70 217 l 1xfa
 42 217 l 1
 15 217 l 1
 15 300 l 1
 15 383 l 1xfc
 42 383 l 1
 70 383 l 1
 70 467 l 1
 70 550 l 1xfa
 42 550 l 1
 15 550 l 1
 15 633 l 1xfc
EndSplineSet
Validated: 8388613
EndChar

StartChar: cent
Encoding: 162 162 93
Width: 446
VWidth: 0
Flags: W
HStem: 50 83<167 195 251 306> 133 84<334 390> 300 83<334 390> 383 84<167 195 251 306>
VStem: 56 84<217.003 299.996> 84 83<133 216.996 300.004 383> 140 194<50 133 383 467> 195 56<-117 50 467 633> 306 84<133 217 300 383>
LayerCount: 2
Back
Fore
SplineSet
195 550 m 1xf5
 195 633 l 1
 223 633 l 1
 251 633 l 1
 251 550 l 1
 251 467 l 1xf5
 292 467 l 1
 334 467 l 1
 334 425 l 1
 334 383 l 1xf2
 362 383 l 1
 390 383 l 1
 390 342 l 1
 390 300 l 1
 348 300 l 1
 306 300 l 1
 306 342 l 1
 306 383 l 1
 237 383 l 1
 167 383 l 1
 167 342 l 2xf480
 167 305 166 300 154 300 c 0
 142 300 140 295 140 258 c 0xf8
 140 221 142 217 154 217 c 0
 166 217 167 212 167 175 c 2
 167 133 l 1
 237 133 l 1
 306 133 l 1
 306 175 l 1
 306 217 l 1
 348 217 l 1
 390 217 l 1
 390 175 l 1
 390 133 l 1xf480
 362 133 l 1
 334 133 l 1
 334 92 l 1
 334 50 l 1xf2
 292 50 l 1
 251 50 l 1
 251 -33 l 1
 251 -117 l 1
 223 -117 l 1
 195 -117 l 1
 195 -33 l 1
 195 50 l 1
 167 50 l 1xf5
 140 50 l 1
 140 92 l 1
 140 133 l 1xf2
 112 133 l 1
 84 133 l 1
 84 175 l 2xf4
 84 212 82 217 70 217 c 0
 58 217 56 221 56 258 c 0xf8
 56 295 58 300 70 300 c 0
 82 300 84 305 84 342 c 2
 84 383 l 1xf4
 112 383 l 1
 140 383 l 1
 140 425 l 1
 140 467 l 1xf2
 167 467 l 1
 195 467 l 1
 195 550 l 1xf5
EndSplineSet
Validated: 8388609
EndChar

StartChar: notequal
Encoding: 8800 8800 94
Width: 446
VWidth: 0
Flags: W
HStem: -33 21G<112 167> -33 21G<112 167> 133 84<84 140 251 362> 300 83<84 195 306 362> 530 20G<279 334>
VStem: 112 55<-33 49.9962> 140 55<50.0038 133> 195 56<217 300> 251 55<383 466.996> 279 55<467.003 550>
LayerCount: 2
Back
Fore
SplineSet
279 508 m 2xbd40
 279 550 l 1xbd40
 306 550 l 1xb9
 334 550 l 1
 334 508 l 2xb940
 334 471 332 467 320 467 c 0
 308 467 306 462 306 425 c 2xb9
 306 383 l 1xb9
 334 383 l 1xb940
 362 383 l 1
 362 342 l 1
 362 300 l 1
 306 300 l 1xb9
 251 300 l 1
 251 258 l 1
 251 217 l 1
 306 217 l 1xb9
 362 217 l 1
 362 175 l 1
 362 133 l 1
 279 133 l 1
 195 133 l 1
 195 92 l 2xbb40
 195 55 193 50 181 50 c 0
 169 50 167 45 167 8 c 2
 167 -33 l 1xbd
 140 -33 l 1xbb
 112 -33 l 1
 112 8 l 2xbd
 112 45 114 50 126 50 c 0
 138 50 140 55 140 92 c 2
 140 133 l 1xbb
 112 133 l 1xbd
 84 133 l 1
 84 175 l 1
 84 217 l 1
 140 217 l 1
 195 217 l 1
 195 258 l 1
 195 300 l 1
 140 300 l 1xbb
 84 300 l 1
 84 342 l 1
 84 383 l 1
 167 383 l 1
 251 383 l 1
 251 425 l 2
 251 462 253 467 265 467 c 0
 277 467 279 471 279 508 c 2xbd40
EndSplineSet
Validated: 8388609
EndChar

StartChar: greaterequal
Encoding: 8805 8805 95
Width: 446
VWidth: 0
Flags: W
HStem: -33 83<84 362> 133 84<84 251> 467 83<84 140>
VStem: 84 111<467 550> 140 111<383 467> 195 111<300 383> 251 111<217 300>
LayerCount: 2
Back
Fore
SplineSet
84 508 m 1xf0
 84 550 l 1xf0
 140 550 l 1xe8
 195 550 l 1
 195 508 l 1
 195 467 l 1xf0
 223 467 l 1
 251 467 l 1
 251 425 l 1
 251 383 l 1xe8
 279 383 l 1
 306 383 l 1
 306 342 l 1
 306 300 l 1xe4
 334 300 l 1
 362 300 l 1
 362 217 l 1
 362 133 l 1
 223 133 l 1
 84 133 l 1
 84 175 l 1
 84 217 l 1
 167 217 l 1
 251 217 l 1
 251 258 l 1
 251 300 l 1xf2
 223 300 l 1
 195 300 l 1
 195 342 l 1
 195 383 l 1xe4
 167 383 l 1
 140 383 l 1
 140 425 l 1
 140 467 l 1xe8
 112 467 l 1
 84 467 l 1
 84 508 l 1xf0
84 8 m 1
 84 50 l 1
 223 50 l 1
 362 50 l 1
 362 8 l 1
 362 -33 l 1xf2
 223 -33 l 1
 84 -33 l 1
 84 8 l 1
EndSplineSet
Validated: 1
EndChar

StartChar: Igrave
Encoding: 204 204 96
Width: 446
VWidth: 0
Flags: W
HStem: -33 83<126 181 265 320> 467 83<126 181 265 320> 633 84<209 265> 717 83<126 181>
VStem: 126 194<-33 50 467 550> 126 83<717 800> 181 84<50 467 633 717>
LayerCount: 2
Back
Fore
SplineSet
126 758 m 1xf4
 126 800 l 1
 167 800 l 1
 209 800 l 1
 209 758 l 1
 209 717 l 1xf4
 237 717 l 1
 265 717 l 1
 265 675 l 1
 265 633 l 1
 223 633 l 1
 181 633 l 1
 181 675 l 1
 181 717 l 1xf2
 154 717 l 1
 126 717 l 1
 126 758 l 1xf4
126 508 m 1xf8
 126 550 l 1
 223 550 l 1
 320 550 l 1
 320 508 l 1
 320 467 l 1xf8
 292 467 l 1
 265 467 l 1
 265 258 l 1
 265 50 l 1xf2
 292 50 l 1
 320 50 l 1
 320 8 l 1
 320 -33 l 1
 223 -33 l 1
 126 -33 l 1
 126 8 l 1
 126 50 l 1xf8
 154 50 l 1
 181 50 l 1
 181 258 l 1
 181 467 l 1xf2
 154 467 l 1
 126 467 l 1
 126 508 l 1xf8
EndSplineSet
Validated: 8388609
EndChar

StartChar: ugrave
Encoding: 249 249 97
Width: 446
VWidth: 0
Flags: W
HStem: -33 83<167 279> 363 20G<56 140 306 390> 467 83<223 279> 550 83<140 195>
VStem: 56 111<50 137.2> 56 84<131.406 383> 140 83<550 633> 195 84<467 550> 279 111<50 137.2> 306 84<-33 49.9962 131.406 383>
LayerCount: 2
Back
Fore
SplineSet
140 592 m 1xf2
 140 633 l 1
 181 633 l 1
 223 633 l 1
 223 592 l 1
 223 550 l 1xf2
 251 550 l 1
 279 550 l 1
 279 508 l 1
 279 467 l 1
 237 467 l 1
 195 467 l 1
 195 508 l 1
 195 550 l 1
 167 550 l 1xf9
 140 550 l 1
 140 592 l 1xf2
56 217 m 1xf4
 56 383 l 1
 98 383 l 1
 140 383 l 1
 140 258 l 2xf4
 140 138 141 133 154 133 c 0
 166 133 167 129 167 92 c 2
 167 50 l 1xf8
 223 50 l 1
 279 50 l 1
 279 92 l 2xf280
 279 129 280 133 292 133 c 0
 305 133 306 138 306 258 c 2
 306 383 l 1
 348 383 l 1
 390 383 l 1
 390 175 l 1
 390 -33 l 1
 348 -33 l 1
 306 -33 l 1
 306 8 l 2xf040
 306 45 304 50 292 50 c 0
 280 50 279 45 279 8 c 2
 279 -33 l 1xf080
 195 -33 l 1
 112 -33 l 1
 112 8 l 1
 112 50 l 1
 84 50 l 1
 56 50 l 1xf9
 56 217 l 1xf4
EndSplineSet
Validated: 8388609
EndChar

StartChar: F
Encoding: 70 70 98
Width: 446
VWidth: 0
Flags: W
HStem: -33 21G<98 181> -33 21G<98 181> 217 83<181 348> 467 83<181 348>
VStem: 98 250<217 300 467 550> 98 83<-33 217 300 467>
LayerCount: 2
Back
Fore
SplineSet
98 258 m 1xb8
 98 550 l 1
 223 550 l 1
 348 550 l 1
 348 508 l 1
 348 467 l 1xb8
 265 467 l 1
 181 467 l 1
 181 383 l 1
 181 300 l 1xb4
 265 300 l 1
 348 300 l 1
 348 258 l 1
 348 217 l 1xb8
 265 217 l 1
 181 217 l 1
 181 92 l 1
 181 -33 l 1
 140 -33 l 1
 98 -33 l 1xb4
 98 258 l 1xb8
EndSplineSet
Validated: 1
EndChar

StartChar: w
Encoding: 119 119 99
Width: 446
VWidth: 0
Flags: W
HStem: -33 21G<112 167 279 334> -33 21G<112 167 279 334> 363 20G<56 140 195 251 306 390>
VStem: 56 84<218.176 383> 84 111<50.0038 133> 112 55<-33 49.9962> 167 112<133.004 218.859> 195 56<215.213 383> 251 111<50.0038 133> 279 55<-33 49.9962> 306 84<218.176 383>
LayerCount: 2
Back
Fore
SplineSet
56 300 m 2xb0
 56 383 l 1
 98 383 l 1
 140 383 l 1
 140 258 l 2
 140 138 141 133 154 133 c 0
 166 133 167 138 167 175 c 0xb2
 167 212 169 217 181 217 c 0
 194 217 195 221 195 300 c 2
 195 383 l 1
 223 383 l 1
 251 383 l 1
 251 300 l 2xa1
 251 221 252 217 265 217 c 0
 277 217 279 212 279 175 c 0
 279 138 280 133 292 133 c 0
 305 133 306 138 306 258 c 2
 306 383 l 1
 348 383 l 1
 390 383 l 1
 390 300 l 2xa220
 390 221 389 217 376 217 c 0
 363 217 362 212 362 133 c 0xa080
 362 54 361 50 348 50 c 0
 336 50 334 45 334 8 c 2
 334 -33 l 1xa040
 306 -33 l 1xa020
 279 -33 l 1
 279 8 l 2xa040
 279 45 277 50 265 50 c 0
 253 50 251 55 251 92 c 2
 251 133 l 1
 223 133 l 1
 195 133 l 1
 195 92 l 2xa880
 195 55 193 50 181 50 c 0
 169 50 167 45 167 8 c 2
 167 -33 l 1xa4
 140 -33 l 1xb0
 112 -33 l 1
 112 8 l 2xa4
 112 45 110 50 98 50 c 0
 85 50 84 54 84 133 c 0xa8
 84 212 83 217 70 217 c 0
 57 217 56 221 56 300 c 2xb0
EndSplineSet
Validated: 1
EndChar

StartChar: M
Encoding: 77 77 100
Width: 446
VWidth: 0
Flags: W
HStem: -33 21G<56 140 306 390> -33 21G<56 140 306 390> 530 20G<56 167 279 390>
VStem: 56 111<464.984 550> 56 84<-33 382.996> 167 28<300 382.997> 195 56<50 216.996> 251 28<300 382.997> 279 111<464.984 550> 306 84<-33 382.996>
LayerCount: 2
Back
Fore
SplineSet
56 258 m 1xaf
 56 550 l 1
 112 550 l 1
 167 550 l 1
 167 508 l 2xb7
 167 471 169 467 181 467 c 0
 194 467 195 462 195 383 c 2
 195 300 l 1
 223 300 l 1
 251 300 l 1
 251 383 l 2
 251 462 252 467 265 467 c 0
 277 467 279 471 279 508 c 2
 279 550 l 1
 334 550 l 1
 390 550 l 1xa7
 390 258 l 1
 390 -33 l 1
 348 -33 l 1
 306 -33 l 1
 306 175 l 2xa740
 306 379 306 383 292 383 c 0
 279 383 279 379 279 300 c 0
 279 221 278 217 265 217 c 0
 252 217 251 212 251 133 c 2
 251 50 l 1
 223 50 l 1
 195 50 l 1
 195 133 l 2
 195 212 194 217 181 217 c 0
 168 217 167 221 167 300 c 0
 167 379 167 383 154 383 c 0
 140 383 140 379 140 175 c 2
 140 -33 l 1
 98 -33 l 1
 56 -33 l 1
 56 258 l 1xaf
EndSplineSet
Validated: 8388609
EndChar

StartChar: uni00B3
Encoding: 179 179 101
Width: 446
VWidth: 0
Flags: W
HStem: 217 83<140 251> 383 84<167 251> 550 83<140 251>
VStem: 140 139<217 299.996 550.004 633> 167 112<383.004 466.996> 251 55<300.004 382.997 467.003 549.996>
CounterMasks: 1 e0
LayerCount: 2
Back
Fore
SplineSet
140 592 m 1xf0
 140 633 l 1
 209 633 l 1
 279 633 l 1
 279 592 l 2xf0
 279 555 280 550 292 550 c 0
 304 550 306 545 306 508 c 0xe4
 306 471 304 467 292 467 c 0
 280 467 279 462 279 425 c 0xe8
 279 388 280 383 292 383 c 0
 304 383 306 379 306 342 c 0xe4
 306 305 304 300 292 300 c 0
 280 300 279 295 279 258 c 2
 279 217 l 1
 209 217 l 1
 140 217 l 1
 140 258 l 1
 140 300 l 1xf0
 195 300 l 1
 251 300 l 1
 251 342 l 1
 251 383 l 1xe4
 209 383 l 1
 167 383 l 1
 167 425 l 1
 167 467 l 1xe8
 209 467 l 1
 251 467 l 1
 251 508 l 1
 251 550 l 1xe4
 195 550 l 1
 140 550 l 1
 140 592 l 1xf0
EndSplineSet
Validated: 1
EndChar

StartChar: bracketleft
Encoding: 91 91 102
Width: 446
VWidth: 0
Flags: W
HStem: -117 84<237 292> 550 83<237 292>
VStem: 154 138<-117 -33 550 633> 154 83<-33 550>
LayerCount: 2
Back
Fore
SplineSet
154 258 m 1xd0
 154 633 l 1
 223 633 l 1
 292 633 l 1
 292 592 l 1
 292 550 l 1xe0
 265 550 l 1
 237 550 l 1
 237 258 l 1
 237 -33 l 1xd0
 265 -33 l 1
 292 -33 l 1
 292 -75 l 1
 292 -117 l 1
 223 -117 l 1
 154 -117 l 1xe0
 154 258 l 1xd0
EndSplineSet
Validated: 1
EndChar

StartChar: currency
Encoding: 164 164 103
Width: 446
VWidth: 0
Flags: W
HStem: -33 83<84.4326 111.567 334.433 361.567> 50 83<140 306> 300 83<140 306> 383 84<84.4326 111.629 334.371 361.567>
VStem: 84 56<-33 49.9962 133.004 299.997 383.004 467> 112 222<50.0038 132.997 300.004 382.997> 306 56<-33 49.9962 133.004 299.997 383.004 467>
LayerCount: 2
Back
Fore
SplineSet
306 217 m 1xfa
 306 300 l 1
 223 300 l 1
 140 300 l 1
 140 217 l 1
 140 133 l 1
 223 133 l 1
 306 133 l 1
 306 217 l 1xfa
84 425 m 2
 84 467 l 1xf8
 112 467 l 1xf4
 140 467 l 1
 140 425 l 1
 140 383 l 1
 223 383 l 1
 306 383 l 1
 306 425 l 1
 306 467 l 1xfa
 334 467 l 1xf4
 362 467 l 1
 362 425 l 2xf2
 362 388 360 383 348 383 c 0
 336 383 334 379 334 342 c 0xf4
 334 305 336 300 348 300 c 0
 361 300 362 296 362 217 c 0xf2
 362 138 361 133 348 133 c 0
 336 133 334 129 334 92 c 0xf4
 334 55 336 50 348 50 c 0
 360 50 362 45 362 8 c 2
 362 -33 l 1xf2
 334 -33 l 1xf4
 306 -33 l 1
 306 8 l 1
 306 50 l 1
 223 50 l 1
 140 50 l 1
 140 8 l 1
 140 -33 l 1xfa
 112 -33 l 1xf4
 84 -33 l 1
 84 8 l 2xf8
 84 45 86 50 98 50 c 0
 110 50 112 55 112 92 c 0xf4
 112 129 110 133 98 133 c 0
 85 133 84 138 84 217 c 0xf8
 84 296 85 300 98 300 c 0
 110 300 112 305 112 342 c 0xf4
 112 379 110 383 98 383 c 0
 86 383 84 388 84 425 c 2
EndSplineSet
Validated: 8388609
EndChar

StartChar: bracketright
Encoding: 93 93 104
Width: 446
VWidth: 0
Flags: W
HStem: -117 84<154 209> 550 83<154 209>
VStem: 154 138<-117 -33 550 633> 209 83<-33 550>
LayerCount: 2
Back
Fore
SplineSet
154 592 m 1xe0
 154 633 l 1
 223 633 l 1
 292 633 l 1xe0
 292 258 l 1xd0
 292 -117 l 1
 223 -117 l 1
 154 -117 l 1
 154 -75 l 1
 154 -33 l 1xe0
 181 -33 l 1
 209 -33 l 1
 209 258 l 1
 209 550 l 1xd0
 181 550 l 1
 154 550 l 1
 154 592 l 1xe0
EndSplineSet
Validated: 1
EndChar

StartChar: SF090000
Encoding: 9508 9508 105
Width: 446
VWidth: 0
Flags: W
HStem: 300 83<-1 166>
VStem: 166 55<-200 300 383 800>
LayerCount: 2
Back
Fore
SplineSet
166 592 m 5
 166 800 l 5
 193 800 l 5
 221 800 l 5
 221 300 l 5
 221 -200 l 5
 193 -200 l 5
 166 -200 l 5
 166 50 l 5
 166 300 l 5
 82 300 l 5
 -1 300 l 5
 -1 342 l 5
 -1 383 l 5
 82 383 l 5
 166 383 l 5
 166 592 l 5
EndSplineSet
Validated: 1
EndChar

StartChar: ocircumflex
Encoding: 244 244 106
Width: 446
VWidth: 0
Flags: W
HStem: -33 83<167 279> 133 84<56.4326 83.6292 362.371 389.567> 300 83<167 279> 467 83<112.433 139.567 306.433 333.567> 550 83<167 279>
VStem: 56 84<133.004 216.996> 84 83<50 132.997 217.003 300> 112 55<467 549.996> 140 166<-33 50 300 383 550.004 633> 279 83<50 132.997 217.003 300> 279 55<467 549.996> 306 84<133.004 216.996>
LayerCount: 2
Back
Fore
SplineSet
140 592 m 2xf880
 140 633 l 1
 223 633 l 1
 306 633 l 1
 306 592 l 2xf880
 306 555 308 550 320 550 c 0
 332 550 334 545 334 508 c 2
 334 467 l 1xf820
 306 467 l 1xf810
 279 467 l 1
 279 508 l 1
 279 550 l 1
 223 550 l 1
 167 550 l 1
 167 508 l 1
 167 467 l 1xf920
 140 467 l 1xf880
 112 467 l 1
 112 508 l 2xf9
 112 545 114 550 126 550 c 0
 138 550 140 555 140 592 c 2xf880
279 258 m 2xf840
 279 300 l 1
 223 300 l 1
 167 300 l 1
 167 258 l 2xfa40
 167 221 166 217 154 217 c 0
 142 217 140 212 140 175 c 0xfc
 140 138 142 133 154 133 c 0
 166 133 167 129 167 92 c 2
 167 50 l 1
 223 50 l 1
 279 50 l 1
 279 92 l 2xfa40
 279 129 280 133 292 133 c 0
 304 133 306 138 306 175 c 0xf810
 306 212 304 217 292 217 c 0
 280 217 279 221 279 258 c 2xf840
140 342 m 1xf880
 140 383 l 1
 223 383 l 1
 306 383 l 1
 306 342 l 1
 306 300 l 1xf880
 334 300 l 1xf820
 362 300 l 1
 362 258 l 2xf840
 362 221 364 217 376 217 c 0
 388 217 390 212 390 175 c 0xf810
 390 138 388 133 376 133 c 0
 364 133 362 129 362 92 c 2
 362 50 l 1xf840
 334 50 l 1xf820
 306 50 l 1
 306 8 l 1
 306 -33 l 1
 223 -33 l 1
 140 -33 l 1
 140 8 l 1
 140 50 l 1xf880
 112 50 l 1xf9
 84 50 l 1
 84 92 l 2xfa
 84 129 82 133 70 133 c 0
 58 133 56 138 56 175 c 0xfc
 56 212 58 217 70 217 c 0
 82 217 84 221 84 258 c 2
 84 300 l 1xfa
 112 300 l 1xf9
 140 300 l 1
 140 342 l 1xf880
EndSplineSet
Validated: 8388609
EndChar

StartChar: q
Encoding: 113 113 107
Width: 446
VWidth: 0
Flags: W
HStem: -33 83<167 279> 300 83<167 306>
VStem: 56 84<133.004 216.996> 84 83<50 132.997 217.003 300> 140 139<-33 49.9962> 279 111<50 132.997> 306 84<-200 49.9959 133.004 300>
LayerCount: 2
Back
Fore
SplineSet
306 217 m 2xc2
 306 300 l 1
 237 300 l 1
 167 300 l 1
 167 258 l 2xd2
 167 221 166 217 154 217 c 0
 142 217 140 212 140 175 c 0xe0
 140 138 142 133 154 133 c 0
 166 133 167 129 167 92 c 2
 167 50 l 1
 223 50 l 1
 279 50 l 1
 279 92 l 2xd4
 279 129 280 133 292 133 c 0
 305 133 306 138 306 217 c 2xc2
140 342 m 1xc8
 140 383 l 1
 265 383 l 1
 390 383 l 1xca
 390 92 l 1xc4
 390 -200 l 1
 348 -200 l 1
 306 -200 l 1
 306 -75 l 2
 306 45 305 50 292 50 c 0
 280 50 279 45 279 8 c 2
 279 -33 l 1
 209 -33 l 1
 140 -33 l 1
 140 8 l 1
 140 50 l 1xca
 112 50 l 1
 84 50 l 1
 84 92 l 2xd0
 84 129 82 133 70 133 c 0
 58 133 56 138 56 175 c 0xe0
 56 212 58 217 70 217 c 0
 82 217 84 221 84 258 c 2
 84 300 l 1xd0
 112 300 l 1
 140 300 l 1
 140 342 l 1xc8
EndSplineSet
Validated: 1
EndChar

StartChar: c
Encoding: 99 99 108
Width: 446
VWidth: 0
Flags: W
HStem: -33 83<167 306> 50 83<334 390> 217 83<334 390> 300 83<167 306>
VStem: 56 84<133.004 216.996> 84 83<50 132.997 217.003 300> 140 194<-33 50 300 383> 306 84<50 133 217 300>
LayerCount: 2
Back
Fore
SplineSet
140 342 m 1xf2
 140 383 l 1
 237 383 l 1
 334 383 l 1
 334 342 l 1
 334 300 l 1xf2
 362 300 l 1
 390 300 l 1
 390 258 l 1
 390 217 l 1
 348 217 l 1
 306 217 l 1
 306 258 l 1
 306 300 l 1
 237 300 l 1
 167 300 l 1
 167 258 l 2xf5
 167 221 166 217 154 217 c 0
 142 217 140 212 140 175 c 0xf8
 140 138 142 133 154 133 c 0
 166 133 167 129 167 92 c 2
 167 50 l 1
 237 50 l 1
 306 50 l 1
 306 92 l 1
 306 133 l 1
 348 133 l 1
 390 133 l 1
 390 92 l 1
 390 50 l 1xf5
 362 50 l 1
 334 50 l 1
 334 8 l 1
 334 -33 l 1
 237 -33 l 1
 140 -33 l 1
 140 8 l 1
 140 50 l 1xf2
 112 50 l 1
 84 50 l 1
 84 92 l 2xf4
 84 129 82 133 70 133 c 0
 58 133 56 138 56 175 c 0xf8
 56 212 58 217 70 217 c 0
 82 217 84 221 84 258 c 2
 84 300 l 1xf4
 112 300 l 1
 140 300 l 1
 140 342 l 1xf2
EndSplineSet
Validated: 8388609
EndChar

StartChar: Ograve
Encoding: 210 210 109
Width: 446
VWidth: 0
Flags: W
HStem: -33 83<167 279> 467 83<167 279> 633 84<223 279> 717 83<140 195>
VStem: 56 84<133.004 382.996> 84 83<50 132.997 383.004 467> 140 166<-33 50 467 550> 140 83<717 800> 195 84<633 717> 279 83<50 132.997 383.004 467> 306 84<133.004 382.996>
LayerCount: 2
Back
Fore
SplineSet
140 758 m 1xf1
 140 800 l 1
 181 800 l 1
 223 800 l 1
 223 758 l 1
 223 717 l 1xf1
 251 717 l 1
 279 717 l 1
 279 675 l 1
 279 633 l 1
 237 633 l 1
 195 633 l 1
 195 675 l 1
 195 717 l 1
 167 717 l 1xf480
 140 717 l 1
 140 758 l 1xf1
279 425 m 2xf040
 279 467 l 1
 223 467 l 1xf140
 167 467 l 1
 167 425 l 2xf4
 167 388 166 383 154 383 c 0
 141 383 140 378 140 258 c 0xf8
 140 138 141 133 154 133 c 0
 166 133 167 129 167 92 c 2
 167 50 l 1xf4
 223 50 l 1
 279 50 l 1
 279 92 l 2xf140
 279 129 280 133 292 133 c 0
 305 133 306 138 306 258 c 0xf020
 306 378 305 383 292 383 c 0
 280 383 279 388 279 425 c 2xf040
140 508 m 1xf2
 140 550 l 1xf2
 223 550 l 1xf1
 306 550 l 1
 306 508 l 1
 306 467 l 1xf2
 334 467 l 1
 362 467 l 1
 362 425 l 2xf040
 362 388 364 383 376 383 c 0
 389 383 390 378 390 258 c 0xf020
 390 138 389 133 376 133 c 0
 364 133 362 129 362 92 c 2
 362 50 l 1xf040
 334 50 l 1
 306 50 l 1
 306 8 l 1
 306 -33 l 1xf2
 223 -33 l 1xf1
 140 -33 l 1
 140 8 l 1
 140 50 l 1xf2
 112 50 l 1
 84 50 l 1
 84 92 l 2xf4
 84 129 82 133 70 133 c 0
 57 133 56 138 56 258 c 0xf8
 56 378 57 383 70 383 c 0
 82 383 84 388 84 425 c 2
 84 467 l 1xf4
 112 467 l 1
 140 467 l 1
 140 508 l 1xf2
EndSplineSet
Validated: 8388609
EndChar

StartChar: ae
Encoding: 230 230 110
Width: 446
VWidth: 0
Flags: W
HStem: -33 83<140 195 279 390> 133 84<140 195 279 334> 300 83<112 195 279 334>
VStem: 56 84<50.0038 132.997> 84 139<-33 49.9962> 112 111<300.004 383> 195 84<50 133 217 300> 251 111<300.004 383> 334 56<217 299.997>
CounterMasks: 1 e0
LayerCount: 2
Back
Fore
SplineSet
195 92 m 1xf2
 195 133 l 1
 167 133 l 1
 140 133 l 1
 140 92 l 1
 140 50 l 1
 167 50 l 1
 195 50 l 1
 195 92 l 1xf2
334 258 m 1xe280
 334 300 l 1
 306 300 l 1
 279 300 l 1
 279 258 l 1
 279 217 l 1
 306 217 l 1
 334 217 l 1
 334 258 l 1xe280
112 342 m 1xe4
 112 383 l 1
 167 383 l 1
 223 383 l 1
 223 342 l 2
 223 305 225 300 237 300 c 0
 249 300 251 305 251 342 c 2
 251 383 l 1
 306 383 l 1
 362 383 l 1
 362 342 l 2xe5
 362 305 364 300 376 300 c 0
 389 300 390 296 390 217 c 2
 390 133 l 1
 334 133 l 1
 279 133 l 1
 279 92 l 1
 279 50 l 1
 334 50 l 1
 390 50 l 1
 390 8 l 1
 390 -33 l 1xe280
 320 -33 l 1
 251 -33 l 1
 251 8 l 2
 251 45 249 50 237 50 c 0
 225 50 223 45 223 8 c 2
 223 -33 l 1
 154 -33 l 1
 84 -33 l 1
 84 8 l 2xe9
 84 45 82 50 70 50 c 0
 58 50 56 55 56 92 c 0xf0
 56 129 58 133 70 133 c 0
 82 133 84 138 84 175 c 2
 84 217 l 1xe8
 140 217 l 1
 195 217 l 1
 195 258 l 1
 195 300 l 1xf2
 154 300 l 1
 112 300 l 1
 112 342 l 1xe4
EndSplineSet
Validated: 1
EndChar

StartChar: X
Encoding: 88 88 111
Width: 446
VWidth: 0
Flags: W
HStem: -33 166<84 140 306 362> -33 83<56.4326 83.5674 362.433 389.567> 217 83<195 251> 383 167<84 140 306 362> 467 83<56.3708 83.5674 362.433 389.629>
VStem: 56 84<-33 49.9962 467.003 550> 84 83<50.0038 132.997 383.004 466.996> 140 55<133.004 216.996 300.004 382.997> 167 112<217.003 299.996> 251 55<133.004 216.996 300.004 382.997> 279 83<50.0038 132.997 383.004 466.996> 306 84<-33 49.9962 467.003 550>
LayerCount: 2
Back
Fore
SplineSet
56 508 m 2x2c
 56 550 l 1x2c
 98 550 l 1
 140 550 l 1
 140 508 l 2x34
 140 471 142 467 154 467 c 0
 166 467 167 462 167 425 c 0x2a
 167 388 169 383 181 383 c 0
 193 383 195 379 195 342 c 2
 195 300 l 1
 223 300 l 1
 251 300 l 1
 251 342 l 2
 251 379 253 383 265 383 c 0x3140
 277 383 279 388 279 425 c 0
 279 462 280 467 292 467 c 0x2820
 304 467 306 471 306 508 c 2
 306 550 l 1
 348 550 l 1x3010
 390 550 l 1
 390 508 l 2
 390 471 388 467 376 467 c 0x2810
 364 467 362 462 362 425 c 2
 362 383 l 1x3020
 334 383 l 1
 306 383 l 1x3010
 306 342 l 2x3040
 306 305 304 300 292 300 c 0
 280 300 279 295 279 258 c 0x3080
 279 221 280 217 292 217 c 0
 304 217 306 212 306 175 c 2
 306 133 l 1xb050
 334 133 l 1
 362 133 l 1
 362 92 l 2xb020
 362 55 364 50 376 50 c 0
 388 50 390 45 390 8 c 2
 390 -33 l 1x6010
 348 -33 l 1
 306 -33 l 1
 306 8 l 2xa010
 306 45 304 50 292 50 c 0
 280 50 279 55 279 92 c 0x6020
 279 129 277 133 265 133 c 0
 253 133 251 138 251 175 c 2
 251 217 l 1
 223 217 l 1
 195 217 l 1
 195 175 l 2
 195 138 193 133 181 133 c 0xa140
 169 133 167 129 167 92 c 0
 167 55 166 50 154 50 c 0x62
 142 50 140 45 140 8 c 2
 140 -33 l 1
 98 -33 l 1xa4
 56 -33 l 1
 56 8 l 2
 56 45 58 50 70 50 c 0x64
 82 50 84 55 84 92 c 2
 84 133 l 1xa2
 112 133 l 1
 140 133 l 1
 140 175 l 2xa1
 140 212 142 217 154 217 c 0
 166 217 167 221 167 258 c 0xa080
 167 295 166 300 154 300 c 0
 142 300 140 305 140 342 c 2
 140 383 l 1xb1
 112 383 l 1
 84 383 l 1
 84 425 l 2xb2
 84 462 82 467 70 467 c 0
 58 467 56 471 56 508 c 2x2c
EndSplineSet
Validated: 8388609
EndChar

StartChar: greater
Encoding: 62 62 112
Width: 446
VWidth: 0
Flags: W
HStem: -33 83<98 154> 50 83<181 209> 217 83<292 348> 300 83<237 265> 467 83<98 154>
VStem: 98 83<-33 50 467 550> 154 83<50 133 383 467> 209 83<133 217 300 383> 265 83<217 300>
LayerCount: 2
Back
Fore
SplineSet
98 508 m 1xfc
 98 550 l 1
 140 550 l 1
 181 550 l 1
 181 508 l 1
 181 467 l 1
 209 467 l 1xfd
 237 467 l 1
 237 425 l 1
 237 383 l 1
 265 383 l 1xfa80
 292 383 l 1
 292 342 l 1
 292 300 l 1xf9
 320 300 l 1
 348 300 l 1
 348 258 l 1
 348 217 l 1xf880
 320 217 l 1
 292 217 l 1
 292 175 l 1
 292 133 l 1xf9
 265 133 l 1
 237 133 l 1
 237 92 l 1
 237 50 l 1xfa80
 209 50 l 1
 181 50 l 1
 181 8 l 1
 181 -33 l 1
 140 -33 l 1
 98 -33 l 1
 98 8 l 1
 98 50 l 1xfd
 126 50 l 1
 154 50 l 1
 154 92 l 1
 154 133 l 1xfa
 181 133 l 1
 209 133 l 1
 209 175 l 1
 209 217 l 1xfd
 237 217 l 1
 265 217 l 1
 265 258 l 1
 265 300 l 1
 237 300 l 1xfa80
 209 300 l 1
 209 342 l 1
 209 383 l 1
 181 383 l 1xfd
 154 383 l 1
 154 425 l 1
 154 467 l 1xfa
 126 467 l 1
 98 467 l 1
 98 508 l 1xfc
EndSplineSet
Validated: 8388609
EndChar

StartChar: t
Encoding: 116 116 113
Width: 446
VWidth: 0
Flags: W
HStem: -33 83<251 362> 300 83<84 167 251 362> 530 20G<167 251>
VStem: 167 84<50.0041 300 383 550>
LayerCount: 2
Back
Fore
SplineSet
167 467 m 1
 167 550 l 1
 209 550 l 1
 251 550 l 1
 251 467 l 1
 251 383 l 1
 306 383 l 1
 362 383 l 1
 362 342 l 1
 362 300 l 1
 306 300 l 1
 251 300 l 1
 251 175 l 1
 251 50 l 1
 306 50 l 1
 362 50 l 1
 362 8 l 1
 362 -33 l 1
 279 -33 l 1
 195 -33 l 1
 195 8 l 2
 195 45 193 50 181 50 c 0
 168 50 167 55 167 175 c 2
 167 300 l 1
 126 300 l 1
 84 300 l 1
 84 342 l 1
 84 383 l 1
 126 383 l 1
 167 383 l 1
 167 467 l 1
EndSplineSet
Validated: 1
EndChar

StartChar: otilde
Encoding: 245 245 114
Width: 446
VWidth: 0
Flags: W
HStem: -33 83<167 279> 133 84<56.4326 83.6292 362.371 389.567> 300 83<167 279> 467 83<84 140 251 334> 550 83<140 223 334 390>
VStem: 56 84<133.004 216.996> 84 83<50 132.997 217.003 300> 84 56<467 550> 140 166<-33 50 300 383> 140 111<550 633> 223 111<467 550> 279 83<50 132.997 217.003 300> 306 84<133.004 216.996> 334 56<550 633>
LayerCount: 2
Back
Fore
SplineSet
140 592 m 1xf940
 140 633 l 1
 195 633 l 1
 251 633 l 1
 251 592 l 1
 251 550 l 1xf940
 292 550 l 1
 334 550 l 1
 334 508 l 1
 334 467 l 1xf820
 279 467 l 1xf810
 223 467 l 1
 223 508 l 1
 223 550 l 1xf820
 181 550 l 1
 140 550 l 1
 140 592 l 1xf940
279 258 m 2xf810
 279 300 l 1xf810
 223 300 l 1
 167 300 l 1
 167 258 l 2xfa20
 167 221 166 217 154 217 c 0
 142 217 140 212 140 175 c 0xfc
 140 138 142 133 154 133 c 0
 166 133 167 129 167 92 c 2
 167 50 l 1
 223 50 l 1xfa20
 279 50 l 1
 279 92 l 2xf810
 279 129 280 133 292 133 c 0
 304 133 306 138 306 175 c 0xf808
 306 212 304 217 292 217 c 0
 280 217 279 221 279 258 c 2xf810
140 342 m 1xf880
 140 383 l 1xf880
 223 383 l 1xf820
 306 383 l 1
 306 342 l 1
 306 300 l 1
 334 300 l 1xf884
 362 300 l 1
 362 258 l 2xf810
 362 221 364 217 376 217 c 0
 388 217 390 212 390 175 c 0xf808
 390 138 388 133 376 133 c 0
 364 133 362 129 362 92 c 2
 362 50 l 1xf810
 334 50 l 1
 306 50 l 1
 306 8 l 1
 306 -33 l 1xf884
 223 -33 l 1xf820
 140 -33 l 1
 140 8 l 1
 140 50 l 1xf880
 112 50 l 1
 84 50 l 1
 84 92 l 2xfa
 84 129 82 133 70 133 c 0
 58 133 56 138 56 175 c 0xfc
 56 212 58 217 70 217 c 0
 82 217 84 221 84 258 c 2
 84 300 l 1xfa
 112 300 l 1
 140 300 l 1
 140 342 l 1xf880
140 550 m 1xf9
 140 508 l 1
 140 467 l 1
 112 467 l 1
 84 467 l 1
 84 508 l 1
 84 550 l 1
 112 550 l 1
 140 550 l 1xf9
334 550 m 1xf820
 334 592 l 1
 334 633 l 1xf824
 362 633 l 1xf810
 390 633 l 1
 390 592 l 1
 390 550 l 1xf804
 362 550 l 1xf810
 334 550 l 1xf820
EndSplineSet
Validated: 8388613
EndChar

StartChar: L
Encoding: 76 76 115
Width: 446
VWidth: 0
Flags: W
HStem: -33 83<167 362> 530 20G<84 167>
VStem: 84 83<50 550>
LayerCount: 2
Back
Fore
SplineSet
84 258 m 1
 84 550 l 1
 126 550 l 1
 167 550 l 1
 167 300 l 1
 167 50 l 1
 265 50 l 1
 362 50 l 1
 362 8 l 1
 362 -33 l 1
 223 -33 l 1
 84 -33 l 1
 84 258 l 1
EndSplineSet
Validated: 1
EndChar

StartChar: section
Encoding: 167 167 116
Width: 446
VWidth: 0
Flags: W
HStem: -117 84<98 292> -33 83<320 376> 50 83<181 292> 300 83<154 265> 383 84<70 126> 467 83<154 348>
VStem: 70 84<383 467> 98 83<133 216.996> 98 56<217.003 299.997> 126 166<300.004 383> 154 166<50 132.997> 265 83<215.213 300> 292 84<-33 50> 292 56<133.004 219.316>
CounterMasks: 1 b4
LayerCount: 2
Back
Fore
SplineSet
265 258 m 2xfc10
 265 300 l 1xfc10
 209 300 l 1
 154 300 l 1xfc20
 154 258 l 2xfc80
 154 221 155 217 167 217 c 0
 179 217 181 212 181 175 c 2
 181 133 l 1
 237 133 l 1
 292 133 l 1
 292 175 l 2xfd04
 292 212 291 217 279 217 c 0
 267 217 265 221 265 258 c 2xfc10
126 508 m 1xfc40
 126 550 l 1xfc40
 237 550 l 1
 348 550 l 1
 348 508 l 1
 348 467 l 1
 251 467 l 1
 154 467 l 1
 154 425 l 1
 154 383 l 1xfe04
 223 383 l 1
 292 383 l 1
 292 342 l 1
 292 300 l 1xfc44
 320 300 l 1xfc20
 348 300 l 1
 348 217 l 2xfc10
 348 138 347 133 334 133 c 0
 322 133 320 129 320 92 c 2
 320 50 l 1xfc20
 348 50 l 1xfc04
 376 50 l 1
 376 8 l 1
 376 -33 l 1xfc08
 348 -33 l 1xfc04
 320 -33 l 1
 320 -75 l 1
 320 -117 l 1xfc20
 209 -117 l 1
 98 -117 l 1
 98 -75 l 1
 98 -33 l 1
 195 -33 l 1
 292 -33 l 1
 292 8 l 1
 292 50 l 1xfc88
 223 50 l 1
 154 50 l 1
 154 92 l 1
 154 133 l 1xfc20
 126 133 l 1xfc40
 98 133 l 1xfd
 98 217 l 2xfc80
 98 296 99 300 112 300 c 0
 124 300 126 305 126 342 c 2
 126 383 l 1xfc40
 98 383 l 1xfc80
 70 383 l 1
 70 425 l 1
 70 467 l 1xfe
 98 467 l 1xfc80
 126 467 l 1
 126 508 l 1xfc40
EndSplineSet
Validated: 8388609
EndChar

StartChar: Adieresis
Encoding: 196 196 117
Width: 446
VWidth: 0
Flags: W
HStem: -33 21G<56 140 306 390> -33 21G<56 140 306 390> 133 84<167 279> 530 20G<167 279> 633 84<84 167 279 362>
VStem: 56 84<-33 132.997> 84 83<217 299.996 633 717> 112 83<300.004 382.997> 140 166<383.004 466.996> 167 112<467.003 550> 251 83<300.004 382.997> 279 83<217 299.996 633 717> 306 84<-33 132.997>
LayerCount: 2
Back
Fore
SplineSet
84 675 m 1x3a
 84 717 l 1
 126 717 l 1
 167 717 l 1
 167 675 l 1
 167 633 l 1
 126 633 l 1
 84 633 l 1
 84 675 l 1x3a
279 675 m 1x3810
 279 717 l 1
 320 717 l 1
 362 717 l 1
 362 675 l 1
 362 633 l 1
 320 633 l 1
 279 633 l 1
 279 675 l 1x3810
251 342 m 2x3820
 251 383 l 1
 223 383 l 1
 195 383 l 1
 195 342 l 2x3920
 195 305 193 300 181 300 c 0
 169 300 167 295 167 258 c 2
 167 217 l 1
 223 217 l 1
 279 217 l 1
 279 258 l 2x3a10
 279 295 277 300 265 300 c 0
 253 300 251 305 251 342 c 2x3820
167 508 m 2xb840
 167 550 l 1
 223 550 l 1
 279 550 l 1
 279 508 l 2xb840
 279 471 280 467 292 467 c 0
 304 467 306 462 306 425 c 0xb880
 306 388 308 383 320 383 c 0
 332 383 334 379 334 342 c 0xb820
 334 305 336 300 348 300 c 0
 361 300 362 296 362 217 c 0xb810
 362 138 363 133 376 133 c 0
 389 133 390 129 390 50 c 2
 390 -33 l 1
 348 -33 l 1
 306 -33 l 1
 306 50 l 1
 306 133 l 1xb808
 223 133 l 1
 140 133 l 1xb880
 140 50 l 1
 140 -33 l 1
 98 -33 l 1
 56 -33 l 1
 56 50 l 2xbc
 56 129 57 133 70 133 c 0
 83 133 84 138 84 217 c 0xba
 84 296 85 300 98 300 c 0
 110 300 112 305 112 342 c 0xb9
 112 379 114 383 126 383 c 0
 138 383 140 388 140 425 c 0xb880
 140 462 142 467 154 467 c 0
 166 467 167 471 167 508 c 2xb840
EndSplineSet
Validated: 1
EndChar

StartChar: diamond
Encoding: 9830 9830 118
Width: 446
VWidth: 0
Flags: W
HStem: 300 83<112.433 139.567 306.433 333.567>
VStem: 140 166<217.003 299.996 383.004 466.996> 167 112<133.004 216.996 467.003 549.996> 195 56<50 132.997 550.004 633>
LayerCount: 2
Back
Fore
SplineSet
195 592 m 2x90
 195 633 l 1
 223 633 l 1
 251 633 l 1
 251 592 l 2x90
 251 555 253 550 265 550 c 0
 277 550 279 545 279 508 c 0xa0
 279 471 280 467 292 467 c 0
 304 467 306 462 306 425 c 0
 306 388 308 383 320 383 c 0
 332 383 334 379 334 342 c 0
 334 305 332 300 320 300 c 0
 308 300 306 295 306 258 c 0xc0
 306 221 304 217 292 217 c 0
 280 217 279 212 279 175 c 0xa0
 279 138 277 133 265 133 c 0
 253 133 251 129 251 92 c 2
 251 50 l 1
 223 50 l 1
 195 50 l 1
 195 92 l 2x90
 195 129 193 133 181 133 c 0
 169 133 167 138 167 175 c 0xa0
 167 212 166 217 154 217 c 0
 142 217 140 221 140 258 c 0
 140 295 138 300 126 300 c 0
 114 300 112 305 112 342 c 0
 112 379 114 383 126 383 c 0
 138 383 140 388 140 425 c 0xc0
 140 462 142 467 154 467 c 0
 166 467 167 471 167 508 c 0xa0
 167 545 169 550 181 550 c 0
 193 550 195 555 195 592 c 2x90
EndSplineSet
Validated: 1
EndChar

StartChar: C
Encoding: 67 67 119
Width: 446
VWidth: 0
Flags: W
HStem: -33 83<167 306> 50 83<334 390> 383 84<334 390> 467 83<167 306>
VStem: 56 84<133.004 382.996> 84 83<50 132.997 383.004 467> 140 194<-33 50 467 550> 306 84<50 133 383 467>
LayerCount: 2
Back
Fore
SplineSet
140 508 m 1xf2
 140 550 l 1
 237 550 l 1
 334 550 l 1
 334 508 l 1
 334 467 l 1xf2
 362 467 l 1
 390 467 l 1
 390 425 l 1
 390 383 l 1
 348 383 l 1
 306 383 l 1
 306 425 l 1
 306 467 l 1
 237 467 l 1
 167 467 l 1
 167 425 l 2xf5
 167 388 166 383 154 383 c 0
 141 383 140 378 140 258 c 0xf8
 140 138 141 133 154 133 c 0
 166 133 167 129 167 92 c 2
 167 50 l 1
 237 50 l 1
 306 50 l 1
 306 92 l 1
 306 133 l 1
 348 133 l 1
 390 133 l 1
 390 92 l 1
 390 50 l 1xf5
 362 50 l 1
 334 50 l 1
 334 8 l 1
 334 -33 l 1
 237 -33 l 1
 140 -33 l 1
 140 8 l 1
 140 50 l 1xf2
 112 50 l 1
 84 50 l 1
 84 92 l 2xf4
 84 129 82 133 70 133 c 0
 57 133 56 138 56 258 c 0xf8
 56 378 57 383 70 383 c 0
 82 383 84 388 84 425 c 2
 84 467 l 1xf4
 112 467 l 1
 140 467 l 1
 140 508 l 1xf2
EndSplineSet
Validated: 8388609
EndChar

StartChar: periodcentered
Encoding: 183 183 120
Width: 446
VWidth: 0
Flags: W
HStem: 217 83<195 251>
VStem: 195 56<217 300>
LayerCount: 2
Back
Fore
SplineSet
195 258 m 1
 195 300 l 1
 223 300 l 1
 251 300 l 1
 251 258 l 1
 251 217 l 1
 223 217 l 1
 195 217 l 1
 195 258 l 1
EndSplineSet
Validated: 1
EndChar

StartChar: eacute
Encoding: 233 233 121
Width: 446
VWidth: 0
Flags: W
HStem: -33 83<167 362> 133 84<56.4326 83.6292 167 306> 300 83<167 306> 467 83<195 251> 550 83<279 334>
VStem: 84 83<50 132.997 217.003 300> 195 84<467 550> 251 83<550 633> 306 84<217 300>
LayerCount: 2
Back
Fore
SplineSet
251 592 m 1xfd
 251 633 l 1
 292 633 l 1
 334 633 l 1
 334 592 l 1
 334 550 l 1xfd
 306 550 l 1
 279 550 l 1
 279 508 l 1
 279 467 l 1
 237 467 l 1
 195 467 l 1
 195 508 l 1
 195 550 l 1xfe80
 223 550 l 1
 251 550 l 1
 251 592 l 1xfd
306 258 m 1xfc80
 306 300 l 1
 237 300 l 1
 167 300 l 1
 167 258 l 1
 167 217 l 1
 237 217 l 1
 306 217 l 1
 306 258 l 1xfc80
140 342 m 1
 140 383 l 1
 237 383 l 1
 334 383 l 1
 334 342 l 1
 334 300 l 1xfd
 362 300 l 1
 390 300 l 1
 390 217 l 1
 390 133 l 1
 279 133 l 1xfe80
 167 133 l 1
 167 92 l 1
 167 50 l 1
 265 50 l 1
 362 50 l 1
 362 8 l 1
 362 -33 l 1
 251 -33 l 1xfd
 140 -33 l 1
 140 8 l 1
 140 50 l 1
 112 50 l 1
 84 50 l 1
 84 92 l 2
 84 129 82 133 70 133 c 0
 58 133 56 138 56 175 c 0
 56 212 58 217 70 217 c 0
 82 217 84 221 84 258 c 2
 84 300 l 1
 112 300 l 1
 140 300 l 1
 140 342 l 1
EndSplineSet
Validated: 8388609
EndChar

StartChar: sterling
Encoding: 163 163 122
Width: 446
VWidth: 0
Flags: W
HStem: -33 83<56 112 195 334> 217 83<56 112 195 251> 383 21G<306 362> 467 83<195 306>
VStem: 56 84<-33 50> 112 83<50 217 300 467> 306 56<383 466.996> 334 56<50.0038 133>
CounterMasks: 1 d0
LayerCount: 2
Back
Fore
SplineSet
167 508 m 1xf8
 167 550 l 1
 251 550 l 1
 334 550 l 1
 334 508 l 2xf9
 334 471 336 467 348 467 c 0
 360 467 362 462 362 425 c 2
 362 383 l 1xf2
 334 383 l 1xf1
 306 383 l 1
 306 425 l 1
 306 467 l 1
 251 467 l 1
 195 467 l 1
 195 383 l 1
 195 300 l 1
 223 300 l 1
 251 300 l 1
 251 258 l 1
 251 217 l 1
 223 217 l 1
 195 217 l 1
 195 133 l 1
 195 50 l 1xf6
 167 50 l 1
 140 50 l 1
 140 8 l 1
 140 -33 l 1
 98 -33 l 1
 56 -33 l 1
 56 8 l 1
 56 50 l 1xf8
 84 50 l 1
 112 50 l 1
 112 133 l 1
 112 217 l 1xf4
 84 217 l 1
 56 217 l 1
 56 258 l 1
 56 300 l 1xf8
 84 300 l 1
 112 300 l 1
 112 383 l 1
 112 467 l 1xf4
 140 467 l 1
 167 467 l 1
 167 508 l 1xf8
195 50 m 1xf6
 265 50 l 1
 334 50 l 1
 334 92 l 1
 334 133 l 1xf5
 362 133 l 1xf2
 390 133 l 1
 390 92 l 2xf1
 390 55 388 50 376 50 c 0
 364 50 362 45 362 8 c 2
 362 -33 l 1
 279 -33 l 1
 195 -33 l 1
 195 8 l 1
 195 50 l 1xf6
EndSplineSet
Validated: 5
EndChar

StartChar: R
Encoding: 82 82 123
Width: 446
VWidth: 0
Flags: W
HStem: -33 21G<56 140 306 390> -33 21G<56 140 306 390> 217 83<140 251> 467 83<140 279>
VStem: 56 84<-33 217 300 467> 251 83<133.004 217> 279 83<50.0038 132.997 300 382.997> 306 84<-33 49.9962>
LayerCount: 2
Back
Fore
SplineSet
279 383 m 1x3a
 279 467 l 1
 209 467 l 1
 140 467 l 1
 140 383 l 1
 140 300 l 1
 209 300 l 1
 279 300 l 1
 279 383 l 1x3a
56 258 m 1
 56 550 l 1
 195 550 l 1
 334 550 l 1
 334 508 l 1
 334 467 l 1xbc
 362 467 l 1xba
 390 467 l 1
 390 425 l 2xb9
 390 388 388 383 376 383 c 0
 364 383 362 379 362 342 c 2
 362 300 l 1xba
 334 300 l 1xbc
 306 300 l 1
 306 258 l 2xb9
 306 221 308 217 320 217 c 0
 332 217 334 212 334 175 c 0xbc
 334 138 336 133 348 133 c 0
 360 133 362 129 362 92 c 0xba
 362 55 364 50 376 50 c 0
 388 50 390 45 390 8 c 2
 390 -33 l 1
 348 -33 l 1
 306 -33 l 1
 306 8 l 2xb9
 306 45 304 50 292 50 c 0
 280 50 279 55 279 92 c 0xba
 279 129 277 133 265 133 c 0
 253 133 251 138 251 175 c 2
 251 217 l 1
 195 217 l 1
 140 217 l 1
 140 92 l 1
 140 -33 l 1
 98 -33 l 1
 56 -33 l 1xbc
 56 258 l 1
EndSplineSet
Validated: 1
EndChar

StartChar: SF030000
Encoding: 9488 9488 124
Width: 446
VWidth: 0
Flags: W
HStem: 301 83<0 194>
VStem: 194 56<-199 301>
LayerCount: 2
Back
Fore
SplineSet
0 343 m 5
 0 384 l 5
 125 384 l 5
 250 384 l 5
 250 93 l 5
 250 -199 l 5
 222 -199 l 5
 194 -199 l 5
 194 51 l 5
 194 301 l 5
 97 301 l 5
 0 301 l 5
 0 343 l 5
EndSplineSet
Validated: 1
EndChar

StartChar: acircumflex
Encoding: 226 226 125
Width: 446
VWidth: 0
Flags: W
HStem: -33 83<154 265 349.792 375.567> 133 84<154 265> 300 83<126 265> 467 83<126.433 153.567 292.433 319.567> 550 83<181 265>
VStem: 70 84<50.0038 132.997> 126 55<467 549.996> 154 138<550.004 633> 265 83<50.0041 133 217 300> 265 55<467 549.996> 292 84<-33 49.9962>
LayerCount: 2
Back
Fore
SplineSet
154 592 m 2xf9
 154 633 l 1
 223 633 l 1
 292 633 l 1
 292 592 l 2xf9
 292 555 294 550 306 550 c 0
 318 550 320 545 320 508 c 2
 320 467 l 1xf840
 292 467 l 1xf820
 265 467 l 1
 265 508 l 1
 265 550 l 1
 223 550 l 1
 181 550 l 1
 181 508 l 1
 181 467 l 1xfa40
 154 467 l 1xf9
 126 467 l 1
 126 508 l 2xfa
 126 545 128 550 140 550 c 0
 152 550 154 555 154 592 c 2xf9
265 92 m 1xf880
 265 133 l 1xf880
 209 133 l 1
 154 133 l 1
 154 92 l 1
 154 50 l 1xfd
 209 50 l 1
 265 50 l 1xf840
 265 92 l 1xf880
126 342 m 1xfa80
 126 383 l 1
 209 383 l 1
 292 383 l 1
 292 342 l 1
 292 300 l 1xfa20
 320 300 l 1xf840
 348 300 l 1
 348 175 l 2xf880
 348 55 349 50 362 50 c 0
 374 50 376 45 376 8 c 2
 376 -33 l 1
 334 -33 l 1
 292 -33 l 1
 292 8 l 2xf820
 292 45 291 50 279 50 c 0
 267 50 265 45 265 8 c 2
 265 -33 l 1
 181 -33 l 1xfa40
 98 -33 l 1
 98 8 l 2
 98 45 96 50 84 50 c 0
 72 50 70 55 70 92 c 0xfc
 70 129 72 133 84 133 c 0
 96 133 98 138 98 175 c 2
 98 217 l 1
 181 217 l 1
 265 217 l 1
 265 258 l 1
 265 300 l 1
 195 300 l 1
 126 300 l 1
 126 342 l 1xfa80
EndSplineSet
Validated: 8388609
EndChar

StartChar: upblock
Encoding: 9600 9600 126
Width: 446
VWidth: 0
Flags: W
HStem: 550 83<15 431>
LayerCount: 2
Back
Fore
SplineSet
15 592 m 1
 15 633 l 1
 223 633 l 1
 431 633 l 1
 431 592 l 1
 431 550 l 1
 223 550 l 1
 15 550 l 1
 15 592 l 1
EndSplineSet
Validated: 1
EndChar

StartChar: D
Encoding: 68 68 127
Width: 446
VWidth: 0
Flags: W
HStem: -33 83<140 279> 467 83<140 279>
VStem: 56 250<-33 50 467 550> 56 84<50 467> 279 83<50 132.997 383.004 467> 306 84<133.004 382.996>
LayerCount: 2
Back
Fore
SplineSet
279 425 m 2xc8
 279 467 l 1
 209 467 l 1
 140 467 l 1
 140 258 l 1
 140 50 l 1
 209 50 l 1
 279 50 l 1
 279 92 l 2xd8
 279 129 280 133 292 133 c 0
 305 133 306 138 306 258 c 0xc4
 306 378 305 383 292 383 c 0
 280 383 279 388 279 425 c 2xc8
56 258 m 1
 56 550 l 1
 181 550 l 1
 306 550 l 1
 306 508 l 1
 306 467 l 1xe0
 334 467 l 1
 362 467 l 1
 362 425 l 2xc8
 362 388 364 383 376 383 c 0
 389 383 390 378 390 258 c 0xc4
 390 138 389 133 376 133 c 0
 364 133 362 129 362 92 c 2
 362 50 l 1xc8
 334 50 l 1
 306 50 l 1
 306 8 l 1
 306 -33 l 1
 181 -33 l 1
 56 -33 l 1xe0
 56 258 l 1
EndSplineSet
Validated: 1
EndChar

StartChar: u
Encoding: 117 117 128
Width: 446
VWidth: 0
Flags: W
HStem: -33 83<167 279> 363 20G<56 140 306 390>
VStem: 56 111<50 137.2> 56 84<131.406 383> 279 111<50 137.2> 306 84<-33 49.9962 131.406 383>
LayerCount: 2
Back
Fore
SplineSet
56 217 m 1xd0
 56 383 l 1
 98 383 l 1
 140 383 l 1
 140 258 l 2xd0
 140 138 141 133 154 133 c 0
 166 133 167 129 167 92 c 2
 167 50 l 1
 223 50 l 1
 279 50 l 1
 279 92 l 2xe8
 279 129 280 133 292 133 c 0
 305 133 306 138 306 258 c 2
 306 383 l 1
 348 383 l 1
 390 383 l 1
 390 175 l 1
 390 -33 l 1
 348 -33 l 1
 306 -33 l 1
 306 8 l 2xc4
 306 45 304 50 292 50 c 0
 280 50 279 45 279 8 c 2
 279 -33 l 1
 195 -33 l 1
 112 -33 l 1
 112 8 l 1
 112 50 l 1
 84 50 l 1
 56 50 l 1xe8
 56 217 l 1xd0
EndSplineSet
Validated: 1
EndChar

StartChar: j
Encoding: 106 106 129
Width: 446
VWidth: 0
Flags: W
HStem: -200 83<112 223> 300 83<167 251> 467 83<251 334>
VStem: 223 83<-116.996 -33.0038> 251 83<-32.9963 300 467 550>
LayerCount: 2
Back
Fore
SplineSet
251 508 m 1xe8
 251 550 l 1
 292 550 l 1
 334 550 l 1
 334 508 l 1
 334 467 l 1
 292 467 l 1
 251 467 l 1
 251 508 l 1xe8
167 342 m 1
 167 383 l 1
 251 383 l 1
 334 383 l 1
 334 175 l 2xe8
 334 -29 334 -33 320 -33 c 0
 308 -33 306 -38 306 -75 c 0
 306 -112 304 -117 292 -117 c 0
 280 -117 279 -121 279 -158 c 2
 279 -200 l 1
 195 -200 l 1
 112 -200 l 1
 112 -158 l 1
 112 -117 l 1
 167 -117 l 1
 223 -117 l 1
 223 -75 l 2xf0
 223 -38 225 -33 237 -33 c 0
 251 -33 251 -29 251 133 c 2
 251 300 l 1
 209 300 l 1
 167 300 l 1
 167 342 l 1
EndSplineSet
Validated: 1
EndChar

StartChar: parenright
Encoding: 41 41 130
Width: 446
VWidth: 0
Flags: W
HStem: -117 84<140 195> -33 21G<195 251> -33 21G<195 251> 530 20G<195 251> 550 83<140 195>
VStem: 140 55<-117 -33 550 633> 195 56<-33 49.9962 467.003 550> 223 83<132.752 383.432>
LayerCount: 2
Back
Fore
SplineSet
140 592 m 1x9c
 140 633 l 1
 167 633 l 1
 195 633 l 1
 195 592 l 1
 195 550 l 1
 167 550 l 1
 140 550 l 1
 140 592 l 1x9c
195 -33 m 1
 195 8 l 2
 195 45 197 50 209 50 c 0
 223 50 223 54 223 258 c 0
 223 462 223 467 209 467 c 0
 197 467 195 471 195 508 c 2
 195 550 l 1
 223 550 l 1x9d
 251 550 l 1x9c
 251 508 l 2x9c
 251 471 253 467 265 467 c 0
 277 467 279 462 279 425 c 0
 279 388 280 383 292 383 c 0
 305 383 306 378 306 258 c 0x9d
 306 138 305 133 292 133 c 0
 280 133 279 129 279 92 c 0
 279 55 277 50 265 50 c 0
 253 50 251 45 251 8 c 2x9c
 251 -33 l 1x9c
 223 -33 l 1x9d
 195 -33 l 1
195 -33 m 1
 195 -75 l 1
 195 -117 l 1
 167 -117 l 1
 140 -117 l 1
 140 -75 l 1
 140 -33 l 1
 167 -33 l 1
 195 -33 l 1
EndSplineSet
Validated: 8388613
EndChar

StartChar: h
Encoding: 104 104 131
Width: 446
VWidth: 0
Flags: W
HStem: -33 21G<56 140 306 390> -33 21G<56 140 306 390> 300 83<167 306> 530 20G<56 140>
VStem: 56 111<212.8 300> 56 84<-33 218.594 300.004 550> 306 84<-33 300>
LayerCount: 2
Back
Fore
SplineSet
56 258 m 1xba
 56 550 l 1
 98 550 l 1
 140 550 l 1
 140 425 l 2xb6
 140 305 141 300 154 300 c 0
 166 300 167 305 167 342 c 2
 167 383 l 1
 251 383 l 1
 334 383 l 1
 334 342 l 1
 334 300 l 1
 362 300 l 1
 390 300 l 1
 390 133 l 1
 390 -33 l 1
 348 -33 l 1
 306 -33 l 1
 306 133 l 1
 306 300 l 1
 237 300 l 1
 167 300 l 1
 167 258 l 2xba
 167 221 166 217 154 217 c 0
 141 217 140 212 140 92 c 2
 140 -33 l 1
 98 -33 l 1
 56 -33 l 1xb6
 56 258 l 1xba
EndSplineSet
Validated: 1
EndChar

StartChar: ecircumflex
Encoding: 234 234 132
Width: 446
VWidth: 0
Flags: W
HStem: -33 83<167 362> 133 84<56.4326 83.6292 167 306> 300 83<167 306> 467 83<112.433 139.567 334.433 361.567> 550 83<167 306>
VStem: 84 83<50 132.997 217.003 300> 112 55<467 549.996> 140 194<300 383 550.004 633> 306 84<217 300> 306 56<467 549.996>
LayerCount: 2
Back
Fore
SplineSet
140 592 m 2xf9
 140 633 l 1
 237 633 l 1
 334 633 l 1
 334 592 l 2xf9
 334 555 336 550 348 550 c 0
 360 550 362 545 362 508 c 2
 362 467 l 1xf840
 334 467 l 1xf9
 306 467 l 1
 306 508 l 1
 306 550 l 1
 237 550 l 1
 167 550 l 1
 167 508 l 1
 167 467 l 1xfa40
 140 467 l 1xf9
 112 467 l 1
 112 508 l 2xfa
 112 545 114 550 126 550 c 0
 138 550 140 555 140 592 c 2xf9
306 258 m 1xfa80
 306 300 l 1
 237 300 l 1
 167 300 l 1
 167 258 l 1xfc80
 167 217 l 1
 237 217 l 1
 306 217 l 1
 306 258 l 1xfa80
140 342 m 1xf9
 140 383 l 1
 237 383 l 1
 334 383 l 1
 334 342 l 1
 334 300 l 1xf9
 362 300 l 1xf840
 390 300 l 1
 390 217 l 1
 390 133 l 1
 279 133 l 1
 167 133 l 1xfa80
 167 92 l 1
 167 50 l 1
 265 50 l 1
 362 50 l 1
 362 8 l 1
 362 -33 l 1xfc40
 251 -33 l 1
 140 -33 l 1
 140 8 l 1
 140 50 l 1xf9
 112 50 l 1xfa
 84 50 l 1
 84 92 l 2
 84 129 82 133 70 133 c 0
 58 133 56 138 56 175 c 0
 56 212 58 217 70 217 c 0
 82 217 84 221 84 258 c 2
 84 300 l 1xfc
 112 300 l 1xfa
 140 300 l 1
 140 342 l 1xf9
EndSplineSet
Validated: 8388609
EndChar

StartChar: E
Encoding: 69 69 133
Width: 446
VWidth: 0
Flags: W
HStem: -33 83<181 348> 217 83<181 348> 467 83<181 348>
VStem: 98 250<-33 50 217 300 467 550> 98 83<50 217 300 467>
CounterMasks: 1 e0
LayerCount: 2
Back
Fore
SplineSet
98 258 m 1xf0
 98 550 l 1
 223 550 l 1
 348 550 l 1
 348 508 l 1
 348 467 l 1xf0
 265 467 l 1
 181 467 l 1
 181 383 l 1
 181 300 l 1xe8
 265 300 l 1
 348 300 l 1
 348 258 l 1
 348 217 l 1xf0
 265 217 l 1
 181 217 l 1
 181 133 l 1
 181 50 l 1xe8
 265 50 l 1
 348 50 l 1
 348 8 l 1
 348 -33 l 1
 223 -33 l 1
 98 -33 l 1
 98 258 l 1xf0
EndSplineSet
Validated: 1
EndChar

StartChar: ydieresis
Encoding: 255 255 134
Width: 446
VWidth: 0
Flags: W
HStem: -200 83<70 154> 300 83<70.4326 97.5674 348.433 375.567> 467 83<98 181 265 348>
VStem: 70 84<300.004 383> 98 83<217.003 299.996 467 550> 126 83<133.004 216.996> 154 138<50.0038 132.997> 154 83<-117 -33.0038> 181 84<-32.997 49.9962> 237 83<133.004 216.996> 265 83<217.003 299.996 467 550> 292 84<300.004 383>
LayerCount: 2
Back
Fore
SplineSet
98 508 m 1xe8
 98 550 l 1
 140 550 l 1
 181 550 l 1
 181 508 l 1
 181 467 l 1
 140 467 l 1
 98 467 l 1
 98 508 l 1xe8
265 508 m 1xe020
 265 550 l 1
 306 550 l 1
 348 550 l 1
 348 508 l 1
 348 467 l 1
 306 467 l 1
 265 467 l 1
 265 508 l 1xe020
70 342 m 2xf0
 70 383 l 1
 112 383 l 1
 154 383 l 1
 154 342 l 2xf0
 154 305 155 300 167 300 c 0
 179 300 181 295 181 258 c 0xe8
 181 221 183 217 195 217 c 0
 207 217 209 212 209 175 c 0
 209 138 211 133 223 133 c 0
 235 133 237 138 237 175 c 0xe440
 237 212 239 217 251 217 c 0
 263 217 265 221 265 258 c 0xe020
 265 295 267 300 279 300 c 0
 291 300 292 305 292 342 c 2
 292 383 l 1
 334 383 l 1
 376 383 l 1
 376 342 l 2xe010
 376 305 374 300 362 300 c 0
 350 300 348 295 348 258 c 0xe020
 348 221 346 217 334 217 c 0
 322 217 320 212 320 175 c 0xe040
 320 138 318 133 306 133 c 0
 294 133 292 129 292 92 c 0xe2
 292 55 291 50 279 50 c 0
 267 50 265 45 265 8 c 0xe080
 265 -29 263 -33 251 -33 c 0
 239 -33 237 -38 237 -75 c 2
 237 -117 l 1xe1
 209 -117 l 1xe4
 181 -117 l 1
 181 -158 l 1
 181 -200 l 1xe080
 126 -200 l 1xe4
 70 -200 l 1
 70 -158 l 1
 70 -117 l 1
 112 -117 l 1
 154 -117 l 1
 154 -75 l 2xf1
 154 -38 155 -33 167 -33 c 0
 179 -33 181 -29 181 8 c 0xe080
 181 45 179 50 167 50 c 0
 155 50 154 55 154 92 c 0xe2
 154 129 152 133 140 133 c 0
 128 133 126 138 126 175 c 0xe4
 126 212 124 217 112 217 c 0
 100 217 98 221 98 258 c 0xe8
 98 295 96 300 84 300 c 0
 72 300 70 305 70 342 c 2xf0
EndSplineSet
Validated: 8388609
EndChar

StartChar: nine
Encoding: 57 57 135
Width: 446
VWidth: 0
Flags: W
HStem: -33 83<126 265> 217 83<154 265> 467 83<154 265>
VStem: 70 84<300 467> 126 166<-33 50 467 550> 126 139<217 299.996> 265 83<50 132.997 383.004 467> 292 84<133.004 298.911>
CounterMasks: 1 e0
LayerCount: 2
Back
Fore
SplineSet
265 383 m 1xf2
 265 467 l 1
 209 467 l 1
 154 467 l 1
 154 383 l 1
 154 300 l 1
 209 300 l 1
 265 300 l 1
 265 383 l 1xf2
126 508 m 1xe8
 126 550 l 1
 209 550 l 1
 292 550 l 1
 292 508 l 1
 292 467 l 1xe8
 320 467 l 1
 348 467 l 1
 348 425 l 2xe2
 348 388 350 383 362 383 c 0
 375 383 376 378 376 258 c 0xe1
 376 138 375 133 362 133 c 0
 350 133 348 129 348 92 c 2
 348 50 l 1xe2
 320 50 l 1
 292 50 l 1
 292 8 l 1
 292 -33 l 1
 209 -33 l 1
 126 -33 l 1
 126 8 l 1
 126 50 l 1xe8
 195 50 l 1
 265 50 l 1
 265 92 l 2xe2
 265 129 267 133 279 133 c 0
 292 133 292 138 292 217 c 0
 292 296 292 300 279 300 c 0
 267 300 265 295 265 258 c 2
 265 217 l 1
 195 217 l 1
 126 217 l 1
 126 258 l 1
 126 300 l 1xe5
 98 300 l 1
 70 300 l 1
 70 383 l 1
 70 467 l 1xf0
 98 467 l 1
 126 467 l 1
 126 508 l 1xe8
EndSplineSet
Validated: 1
EndChar

StartChar: period
Encoding: 46 46 136
Width: 446
VWidth: 0
Flags: W
HStem: -33 166<167 279>
VStem: 167 112<-33 133>
LayerCount: 2
Back
Fore
SplineSet
167 50 m 1
 167 133 l 1
 223 133 l 1
 279 133 l 1
 279 50 l 1
 279 -33 l 1
 223 -33 l 1
 167 -33 l 1
 167 50 l 1
EndSplineSet
Validated: 1
EndChar

StartChar: Odieresis
Encoding: 214 214 137
Width: 446
VWidth: 0
Flags: W
HStem: -33 83<167 279> 467 83<167 279> 633 84<84 167 279 362>
VStem: 56 84<133.004 382.996> 84 83<50 132.997 383.004 467 633 717> 140 166<-33 50 467 550> 279 83<50 132.997 383.004 467 633 717> 306 84<133.004 382.996>
LayerCount: 2
Back
Fore
SplineSet
84 675 m 1xe8
 84 717 l 1
 126 717 l 1
 167 717 l 1
 167 675 l 1
 167 633 l 1
 126 633 l 1
 84 633 l 1
 84 675 l 1xe8
279 675 m 1xe2
 279 717 l 1
 320 717 l 1
 362 717 l 1
 362 675 l 1
 362 633 l 1
 320 633 l 1
 279 633 l 1
 279 675 l 1xe2
279 425 m 2
 279 467 l 1
 223 467 l 1
 167 467 l 1
 167 425 l 2xea
 167 388 166 383 154 383 c 0
 141 383 140 378 140 258 c 0xf0
 140 138 141 133 154 133 c 0
 166 133 167 129 167 92 c 2
 167 50 l 1
 223 50 l 1
 279 50 l 1
 279 92 l 2xea
 279 129 280 133 292 133 c 0
 305 133 306 138 306 258 c 0xe1
 306 378 305 383 292 383 c 0
 280 383 279 388 279 425 c 2
140 508 m 1xe4
 140 550 l 1
 223 550 l 1
 306 550 l 1
 306 508 l 1
 306 467 l 1xe4
 334 467 l 1
 362 467 l 1
 362 425 l 2xe2
 362 388 364 383 376 383 c 0
 389 383 390 378 390 258 c 0xe1
 390 138 389 133 376 133 c 0
 364 133 362 129 362 92 c 2
 362 50 l 1xe2
 334 50 l 1
 306 50 l 1
 306 8 l 1
 306 -33 l 1
 223 -33 l 1
 140 -33 l 1
 140 8 l 1
 140 50 l 1xe4
 112 50 l 1
 84 50 l 1
 84 92 l 2xe8
 84 129 82 133 70 133 c 0
 57 133 56 138 56 258 c 0xf0
 56 378 57 383 70 383 c 0
 82 383 84 388 84 425 c 2
 84 467 l 1xe8
 112 467 l 1
 140 467 l 1
 140 508 l 1xe4
EndSplineSet
Validated: 1
EndChar

StartChar: ordmasculine
Encoding: 186 186 138
Width: 446
VWidth: 0
Flags: W
HStem: 383 84<167 279> 467 83<112.433 139.567 306.433 333.567> 550 83<167 279>
VStem: 112 55<467.003 549.996> 140 166<383 466.996 550.004 633> 279 55<467.003 549.996>
LayerCount: 2
Back
Fore
SplineSet
279 508 m 1xf4
 279 550 l 1
 223 550 l 1
 167 550 l 1
 167 508 l 1
 167 467 l 1
 223 467 l 1
 279 467 l 1
 279 508 l 1xf4
140 592 m 2xe8
 140 633 l 1
 223 633 l 1
 306 633 l 1
 306 592 l 2xe8
 306 555 308 550 320 550 c 0
 332 550 334 545 334 508 c 0xe4
 334 471 332 467 320 467 c 0
 308 467 306 462 306 425 c 2
 306 383 l 1
 223 383 l 1
 140 383 l 1
 140 425 l 2xe8
 140 462 138 467 126 467 c 0
 114 467 112 471 112 508 c 0xf0
 112 545 114 550 126 550 c 0
 138 550 140 555 140 592 c 2xe8
EndSplineSet
Validated: 8388609
EndChar

StartChar: guillemotright
Encoding: 187 187 139
Width: 446
VWidth: 0
Flags: W
HStem: -33 83<70 126 209 265> 50 83<154 181 292 320> 133 84<209.371 236.567 348.371 375.567> 217 83<154 181 292 320> 300 83<70 126 209 265>
VStem: 70 84<-33 50 300 383> 126 83<50 132.997 217.003 300> 181 56<133.004 216.996> 209 83<-33 50 300 383> 265 83<50 132.997 217.003 300> 320 56<133.004 216.996>
LayerCount: 2
Back
Fore
SplineSet
265 258 m 1xf840
 265 300 l 1
 237 300 l 1xf940
 209 300 l 1
 209 258 l 2xfa
 209 221 211 217 223 217 c 0
 235 217 237 212 237 175 c 0xf9
 237 138 235 133 223 133 c 0
 211 133 209 129 209 92 c 2
 209 50 l 1xfa
 237 50 l 1
 265 50 l 1
 265 92 l 1
 265 133 l 1xf940
 292 133 l 1
 320 133 l 1
 320 175 l 1
 320 217 l 1
 292 217 l 1xf8a0
 265 217 l 1
 265 258 l 1xf840
70 342 m 1xfc
 70 383 l 1
 112 383 l 1
 154 383 l 1
 154 342 l 1
 154 300 l 1
 181 300 l 1xfd
 209 300 l 1
 209 342 l 1
 209 383 l 1
 251 383 l 1
 292 383 l 1
 292 342 l 1
 292 300 l 1
 320 300 l 1xfaa0
 348 300 l 1
 348 258 l 2xf840
 348 221 350 217 362 217 c 0
 374 217 376 212 376 175 c 0xf820
 376 138 374 133 362 133 c 0
 350 133 348 129 348 92 c 2
 348 50 l 1xf840
 320 50 l 1
 292 50 l 1
 292 8 l 1
 292 -33 l 1
 251 -33 l 1
 209 -33 l 1
 209 8 l 1xf8a0
 209 50 l 1xfa
 181 50 l 1
 154 50 l 1
 154 8 l 1
 154 -33 l 1
 112 -33 l 1
 70 -33 l 1
 70 8 l 1
 70 50 l 1xfd
 98 50 l 1
 126 50 l 1
 126 92 l 1
 126 133 l 1xfa
 154 133 l 1
 181 133 l 1
 181 175 l 1
 181 217 l 1
 154 217 l 1xfd
 126 217 l 1
 126 258 l 1
 126 300 l 1xfa
 98 300 l 1
 70 300 l 1
 70 342 l 1xfc
EndSplineSet
Validated: 8388613
EndChar

StartChar: grave
Encoding: 96 96 140
Width: 446
VWidth: 0
Flags: W
HStem: 467 83<237 292> 550 83<154 209>
VStem: 154 83<550 633> 209 83<467 550>
LayerCount: 2
Back
Fore
SplineSet
154 592 m 1xe0
 154 633 l 1
 195 633 l 1
 237 633 l 1
 237 592 l 1
 237 550 l 1xe0
 265 550 l 1
 292 550 l 1
 292 508 l 1
 292 467 l 1
 251 467 l 1
 209 467 l 1
 209 508 l 1
 209 550 l 1xd0
 181 550 l 1
 154 550 l 1
 154 592 l 1xe0
EndSplineSet
Validated: 8388609
EndChar

StartChar: guillemotleft
Encoding: 171 171 141
Width: 446
VWidth: 0
Flags: W
HStem: -33 83<181 237 320 376> 50 83<126 154 265 292> 133 84<70.4326 97.6292 209.433 236.629> 217 83<126 154 265 292> 300 83<181 237 320 376>
VStem: 70 56<133.004 216.996> 98 83<50 132.997 217.003 300> 154 83<-33 50 300 383> 209 56<133.004 216.996> 237 83<50 132.997 217.003 300> 292 84<-33 50 300 383>
LayerCount: 2
Back
Fore
SplineSet
154 342 m 1xfd
 154 383 l 1
 195 383 l 1
 237 383 l 1
 237 342 l 1
 237 300 l 1xfd
 209 300 l 1
 181 300 l 1
 181 258 l 1
 181 217 l 1xfa80
 154 217 l 1
 126 217 l 1
 126 175 l 1
 126 133 l 1
 154 133 l 1xfd
 181 133 l 1
 181 92 l 1
 181 50 l 1
 209 50 l 1xfa80
 237 50 l 1
 237 92 l 2xf940
 237 129 235 133 223 133 c 0
 211 133 209 138 209 175 c 0xf880
 209 212 211 217 223 217 c 0
 235 217 237 221 237 258 c 2xf840
 237 300 l 1xf9
 265 300 l 1
 292 300 l 1
 292 342 l 1
 292 383 l 1
 334 383 l 1
 376 383 l 1
 376 342 l 1
 376 300 l 1xf8a0
 348 300 l 1
 320 300 l 1
 320 258 l 1
 320 217 l 1xf840
 292 217 l 1
 265 217 l 1
 265 175 l 1
 265 133 l 1
 292 133 l 1xf8a0
 320 133 l 1
 320 92 l 1
 320 50 l 1xf840
 348 50 l 1
 376 50 l 1
 376 8 l 1
 376 -33 l 1
 334 -33 l 1
 292 -33 l 1
 292 8 l 1
 292 50 l 1
 265 50 l 1xf8a0
 237 50 l 1
 237 8 l 1
 237 -33 l 1
 195 -33 l 1
 154 -33 l 1
 154 8 l 1
 154 50 l 1
 126 50 l 1xfd
 98 50 l 1
 98 92 l 2xfa
 98 129 96 133 84 133 c 0
 72 133 70 138 70 175 c 0xfc
 70 212 72 217 84 217 c 0
 96 217 98 221 98 258 c 2
 98 300 l 1xfa
 126 300 l 1
 154 300 l 1
 154 342 l 1xfd
EndSplineSet
Validated: 8388613
EndChar

StartChar: germandbls
Encoding: 223 223 142
Width: 446
VWidth: 0
Flags: W
HStem: -33 83<56.4326 82.2079 223 306> 217 83<223 306> 467 83<167 306>
VStem: 56 111<-33 49.9962 300.004 382.997> 84 83<50.0041 299.996 383.004 467> 223 111<-33 50 217 300> 306 84<50 217 300 467>
CounterMasks: 1 e0
LayerCount: 2
Back
Fore
SplineSet
140 508 m 1xe8
 140 550 l 1
 237 550 l 1
 334 550 l 1
 334 508 l 1
 334 467 l 1xec
 362 467 l 1
 390 467 l 1
 390 383 l 1
 390 300 l 1xe2
 362 300 l 1
 334 300 l 1
 334 258 l 1
 334 217 l 1xe4
 362 217 l 1
 390 217 l 1
 390 133 l 1
 390 50 l 1xe2
 362 50 l 1
 334 50 l 1
 334 8 l 1
 334 -33 l 1
 279 -33 l 1
 223 -33 l 1
 223 8 l 1
 223 50 l 1xe4
 265 50 l 1
 306 50 l 1
 306 133 l 1
 306 217 l 1xe2
 265 217 l 1
 223 217 l 1
 223 258 l 1
 223 300 l 1xe4
 265 300 l 1
 306 300 l 1
 306 383 l 1
 306 467 l 1
 237 467 l 1
 167 467 l 1
 167 217 l 1xea
 167 -33 l 1
 112 -33 l 1
 56 -33 l 1
 56 8 l 2xf0
 56 45 58 50 70 50 c 0
 83 50 84 55 84 175 c 0xe8
 84 295 83 300 70 300 c 0
 58 300 56 305 56 342 c 0xf0
 56 379 58 383 70 383 c 0
 82 383 84 388 84 425 c 2
 84 467 l 1
 112 467 l 1
 140 467 l 1
 140 508 l 1xe8
EndSplineSet
Validated: 1
EndChar

StartChar: ucircumflex
Encoding: 251 251 143
Width: 446
VWidth: 0
Flags: W
HStem: -33 83<167 279> 363 20G<56 140 306 390> 467 83<112.433 139.567 306.433 333.567> 550 83<167 279>
VStem: 56 84<131.406 383> 112 55<467 549.996> 140 166<550.004 633> 279 55<467 549.996> 306 84<-33 49.9962 131.406 383>
LayerCount: 2
Back
Fore
SplineSet
140 592 m 2xf2
 140 633 l 1
 223 633 l 1
 306 633 l 1
 306 592 l 2xf2
 306 555 308 550 320 550 c 0
 332 550 334 545 334 508 c 2
 334 467 l 1xf1
 306 467 l 1xf080
 279 467 l 1
 279 508 l 1
 279 550 l 1
 223 550 l 1
 167 550 l 1
 167 508 l 1
 167 467 l 1xf5
 140 467 l 1xf2
 112 467 l 1
 112 508 l 2xf4
 112 545 114 550 126 550 c 0
 138 550 140 555 140 592 c 2xf2
56 217 m 1xf8
 56 383 l 1
 98 383 l 1
 140 383 l 1
 140 258 l 2xf8
 140 138 141 133 154 133 c 0
 166 133 167 129 167 92 c 2
 167 50 l 1
 223 50 l 1
 279 50 l 1
 279 92 l 2xf5
 279 129 280 133 292 133 c 0
 305 133 306 138 306 258 c 2
 306 383 l 1
 348 383 l 1
 390 383 l 1
 390 175 l 1
 390 -33 l 1
 348 -33 l 1
 306 -33 l 1
 306 8 l 2xf080
 306 45 304 50 292 50 c 0
 280 50 279 45 279 8 c 2
 279 -33 l 1
 195 -33 l 1
 112 -33 l 1
 112 8 l 1
 112 50 l 1xf5
 84 50 l 1
 56 50 l 1
 56 217 l 1xf8
EndSplineSet
Validated: 8388609
EndChar

StartChar: Ocircumflex
Encoding: 212 212 144
Width: 446
VWidth: 0
Flags: W
HStem: -33 83<167 279> 467 83<167 279> 633 84<112.433 139.629 306.371 333.567> 717 83<167 279>
VStem: 56 84<133.004 382.996> 84 83<50 132.997 383.004 467> 112 55<633 716.996> 140 166<-33 50 467 550 717.003 800> 279 83<50 132.997 383.004 467> 279 55<633 716.996> 306 84<133.004 382.996>
LayerCount: 2
Back
Fore
SplineSet
140 758 m 2xf1
 140 800 l 1
 223 800 l 1
 306 800 l 1
 306 758 l 2xf1
 306 721 308 717 320 717 c 0
 332 717 334 712 334 675 c 2
 334 633 l 1xf040
 306 633 l 1xf020
 279 633 l 1
 279 675 l 1
 279 717 l 1
 223 717 l 1
 167 717 l 1
 167 675 l 1
 167 633 l 1xf240
 140 633 l 1xf1
 112 633 l 1
 112 675 l 2xf2
 112 712 114 717 126 717 c 0
 138 717 140 721 140 758 c 2xf1
279 425 m 2xf080
 279 467 l 1
 223 467 l 1
 167 467 l 1
 167 425 l 2xf480
 167 388 166 383 154 383 c 0
 141 383 140 378 140 258 c 0xf8
 140 138 141 133 154 133 c 0
 166 133 167 129 167 92 c 2
 167 50 l 1
 223 50 l 1
 279 50 l 1
 279 92 l 2xf480
 279 129 280 133 292 133 c 0
 305 133 306 138 306 258 c 0xf020
 306 378 305 383 292 383 c 0
 280 383 279 388 279 425 c 2xf080
140 508 m 1xf1
 140 550 l 1
 223 550 l 1
 306 550 l 1
 306 508 l 1
 306 467 l 1xf1
 334 467 l 1xf040
 362 467 l 1
 362 425 l 2xf080
 362 388 364 383 376 383 c 0
 389 383 390 378 390 258 c 0xf020
 390 138 389 133 376 133 c 0
 364 133 362 129 362 92 c 2
 362 50 l 1xf080
 334 50 l 1xf040
 306 50 l 1
 306 8 l 1
 306 -33 l 1
 223 -33 l 1
 140 -33 l 1
 140 8 l 1
 140 50 l 1xf1
 112 50 l 1xf2
 84 50 l 1
 84 92 l 2xf4
 84 129 82 133 70 133 c 0
 57 133 56 138 56 258 c 0xf8
 56 378 57 383 70 383 c 0
 82 383 84 388 84 425 c 2
 84 467 l 1xf4
 112 467 l 1xf2
 140 467 l 1
 140 508 l 1xf1
EndSplineSet
Validated: 8388609
EndChar

StartChar: SF060000
Encoding: 9516 9516 145
Width: 446
VWidth: 0
Flags: W
HStem: 300 83<15 209 265 431>
VStem: 209 56<-200 300>
LayerCount: 2
Back
Fore
SplineSet
15 342 m 1
 15 383 l 1
 223 383 l 1
 431 383 l 1
 431 342 l 1
 431 300 l 1
 348 300 l 1
 265 300 l 1
 265 50 l 1
 265 -200 l 1
 237 -200 l 1
 209 -200 l 1
 209 50 l 1
 209 300 l 1
 112 300 l 1
 15 300 l 1
 15 342 l 1
EndSplineSet
Validated: 1
EndChar

StartChar: three
Encoding: 51 51 146
Width: 446
VWidth: 0
Flags: W
HStem: -33 83<154 292> 50 83<70 126> 217 83<181 292> 383 84<70 126> 467 83<154 292>
VStem: 70 84<50 133 383 467> 126 194<-33 50 467 550> 181 139<217 300> 292 84<50 217 300 467>
CounterMasks: 1 a8
LayerCount: 2
Back
Fore
SplineSet
126 508 m 1xfa
 126 550 l 1
 223 550 l 1
 320 550 l 1
 320 508 l 1
 320 467 l 1xfa
 348 467 l 1
 376 467 l 1
 376 383 l 1
 376 300 l 1xf880
 348 300 l 1
 320 300 l 1
 320 258 l 1
 320 217 l 1xf9
 348 217 l 1
 376 217 l 1
 376 133 l 1
 376 50 l 1xf880
 348 50 l 1
 320 50 l 1
 320 8 l 1
 320 -33 l 1
 223 -33 l 1
 126 -33 l 1
 126 8 l 1
 126 50 l 1xfa
 98 50 l 1
 70 50 l 1
 70 92 l 1
 70 133 l 1
 112 133 l 1
 154 133 l 1
 154 92 l 1
 154 50 l 1
 223 50 l 1
 292 50 l 1
 292 133 l 1
 292 217 l 1xfc80
 237 217 l 1
 181 217 l 1
 181 258 l 1
 181 300 l 1xf9
 237 300 l 1
 292 300 l 1
 292 383 l 1
 292 467 l 1
 223 467 l 1
 154 467 l 1
 154 425 l 1
 154 383 l 1
 112 383 l 1
 70 383 l 1
 70 425 l 1
 70 467 l 1xfc80
 98 467 l 1
 126 467 l 1
 126 508 l 1xfa
EndSplineSet
Validated: 8388609
EndChar

StartChar: thorn
Encoding: 254 254 147
Width: 446
VWidth: 0
Flags: W
HStem: -33 83<140 279> 300 83<140 279> 530 20G<56 140>
VStem: 56 250<-33 50 300 383> 56 84<-200 -33 50 300 383 550> 279 83<50 132.997 217.003 300> 306 84<133.004 216.996>
LayerCount: 2
Back
Fore
SplineSet
279 258 m 2xe4
 279 300 l 1
 209 300 l 1
 140 300 l 1
 140 175 l 1
 140 50 l 1
 209 50 l 1
 279 50 l 1
 279 92 l 2xec
 279 129 280 133 292 133 c 0
 304 133 306 138 306 175 c 0xe2
 306 212 304 217 292 217 c 0
 280 217 279 221 279 258 c 2xe4
56 175 m 1
 56 550 l 1
 98 550 l 1
 140 550 l 1
 140 467 l 1
 140 383 l 1xe8
 223 383 l 1
 306 383 l 1
 306 342 l 1
 306 300 l 1xf0
 334 300 l 1
 362 300 l 1
 362 258 l 2xe4
 362 221 364 217 376 217 c 0
 388 217 390 212 390 175 c 0xe2
 390 138 388 133 376 133 c 0
 364 133 362 129 362 92 c 2
 362 50 l 1xe4
 334 50 l 1
 306 50 l 1
 306 8 l 1
 306 -33 l 1xf0
 223 -33 l 1
 140 -33 l 1
 140 -117 l 1
 140 -200 l 1
 98 -200 l 1
 56 -200 l 1
 56 175 l 1
EndSplineSet
Validated: 1
EndChar

StartChar: one
Encoding: 49 49 148
Width: 446
VWidth: 0
Flags: W
HStem: -33 83<98 181 265 348> 383 84<126 181> 530 20G<181 265>
VStem: 126 139<383 467> 181 84<50 383 467 550>
LayerCount: 2
Back
Fore
SplineSet
181 508 m 1xe8
 181 550 l 1
 223 550 l 1
 265 550 l 1
 265 300 l 1
 265 50 l 1
 306 50 l 1
 348 50 l 1
 348 8 l 1
 348 -33 l 1
 223 -33 l 1
 98 -33 l 1
 98 8 l 1
 98 50 l 1
 140 50 l 1
 181 50 l 1
 181 217 l 1
 181 383 l 1xe8
 154 383 l 1
 126 383 l 1
 126 425 l 1
 126 467 l 1xf0
 154 467 l 1
 181 467 l 1
 181 508 l 1xe8
EndSplineSet
Validated: 1
EndChar

StartChar: slash
Encoding: 47 47 149
Width: 446
VWidth: 0
Flags: W
VStem: 70 84<-117 -33.0038> 98 83<-32.997 49.9962> 126 83<50.0038 132.997> 154 83<133.004 216.996> 181 84<217.003 299.996> 209 83<300.004 382.997> 237 83<383.004 466.996> 265 83<467.003 549.996> 292 84<550.004 633>
LayerCount: 2
Back
Fore
SplineSet
292 592 m 2x0080
 292 633 l 1
 334 633 l 1
 376 633 l 1
 376 592 l 2x0080
 376 555 374 550 362 550 c 0
 350 550 348 545 348 508 c 0x01
 348 471 346 467 334 467 c 0
 322 467 320 462 320 425 c 0x02
 320 388 318 383 306 383 c 0
 294 383 292 379 292 342 c 0x04
 292 305 291 300 279 300 c 0
 267 300 265 295 265 258 c 0x08
 265 221 263 217 251 217 c 0
 239 217 237 212 237 175 c 0x10
 237 138 235 133 223 133 c 0
 211 133 209 129 209 92 c 0x20
 209 55 207 50 195 50 c 0
 183 50 181 45 181 8 c 0x40
 181 -29 179 -33 167 -33 c 0
 155 -33 154 -38 154 -75 c 2
 154 -117 l 1
 112 -117 l 1
 70 -117 l 1
 70 -75 l 2x80
 70 -38 72 -33 84 -33 c 0
 96 -33 98 -29 98 8 c 0x40
 98 45 100 50 112 50 c 0
 124 50 126 55 126 92 c 0x20
 126 129 128 133 140 133 c 0
 152 133 154 138 154 175 c 0x10
 154 212 155 217 167 217 c 0
 179 217 181 221 181 258 c 0x08
 181 295 183 300 195 300 c 0
 207 300 209 305 209 342 c 0x04
 209 379 211 383 223 383 c 0
 235 383 237 388 237 425 c 0x02
 237 462 239 467 251 467 c 0
 263 467 265 471 265 508 c 0x01
 265 545 267 550 279 550 c 0
 291 550 292 555 292 592 c 2x0080
EndSplineSet
Validated: 1
EndChar

StartChar: yacute
Encoding: 253 253 150
Width: 446
VWidth: 0
Flags: W
HStem: -200 83<84 167> 300 83<56.4326 83.5674 362.433 389.567> 467 83<195 251> 550 83<279 334>
VStem: 56 84<300.004 383> 84 83<217.003 299.996> 140 55<50.0038 132.997> 167 84<-117 -33.0038> 195 84<467 550> 223 83<50.0038 134.787> 251 83<131.406 216.996 550 633> 279 83<217.003 299.996> 306 84<300.004 383>
LayerCount: 2
Back
Fore
SplineSet
251 592 m 1xf020
 251 633 l 1
 292 633 l 1
 334 633 l 1
 334 592 l 1
 334 550 l 1xf020
 306 550 l 1
 279 550 l 1
 279 508 l 1
 279 467 l 1
 237 467 l 1
 195 467 l 1
 195 508 l 1
 195 550 l 1xf088
 223 550 l 1xf040
 251 550 l 1
 251 592 l 1xf020
56 342 m 2xf8
 56 383 l 1
 98 383 l 1
 140 383 l 1
 140 342 l 2xf8
 140 305 142 300 154 300 c 0
 166 300 167 295 167 258 c 0
 167 221 169 217 181 217 c 0
 194 217 195 212 195 133 c 0xf480
 195 54 196 50 209 50 c 0
 221 50 223 55 223 92 c 0xf040
 223 129 225 133 237 133 c 0
 249 133 251 138 251 175 c 0xf020
 251 212 253 217 265 217 c 0
 277 217 279 221 279 258 c 0xf010
 279 295 280 300 292 300 c 0
 304 300 306 305 306 342 c 2
 306 383 l 1
 348 383 l 1
 390 383 l 1
 390 342 l 2xf008
 390 305 388 300 376 300 c 0
 364 300 362 295 362 258 c 0xf010
 362 221 360 217 348 217 c 0
 336 217 334 212 334 175 c 0xf020
 334 138 332 133 320 133 c 0
 308 133 306 129 306 92 c 0xf040
 306 55 304 50 292 50 c 0
 280 50 279 45 279 8 c 0
 279 -29 277 -33 265 -33 c 0
 253 -33 251 -38 251 -75 c 2
 251 -117 l 1xf110
 223 -117 l 1xf040
 195 -117 l 1
 195 -158 l 1
 195 -200 l 1xf080
 140 -200 l 1xf2
 84 -200 l 1
 84 -158 l 1
 84 -117 l 1
 126 -117 l 1
 167 -117 l 1
 167 -33 l 2xf5
 167 46 167 50 154 50 c 0
 142 50 140 55 140 92 c 0xf2
 140 129 138 133 126 133 c 0
 114 133 112 138 112 175 c 0
 112 212 110 217 98 217 c 0
 86 217 84 221 84 258 c 0xf4
 84 295 82 300 70 300 c 0
 58 300 56 305 56 342 c 2xf8
EndSplineSet
Validated: 8388609
EndChar

StartChar: uni00AD
Encoding: 173 173 151
Width: 446
VWidth: 0
Flags: W
HStem: 217 83<112 334>
VStem: 112 222<217 300>
LayerCount: 2
Back
Fore
SplineSet
112 258 m 1
 112 300 l 1
 223 300 l 1
 334 300 l 1
 334 258 l 1
 334 217 l 1
 223 217 l 1
 112 217 l 1
 112 258 l 1
EndSplineSet
Validated: 1
EndChar

StartChar: Oacute
Encoding: 211 211 152
Width: 446
VWidth: 0
Flags: W
HStem: -33 83<167 279> 467 83<167 279> 633 84<195 251> 717 83<279 334>
VStem: 56 84<133.004 382.996> 84 83<50 132.997 383.004 467> 140 166<-33 50 467 550> 195 84<633 717> 251 83<717 800> 279 83<50 132.997 383.004 467> 306 84<133.004 382.996>
LayerCount: 2
Back
Fore
SplineSet
251 758 m 1xf080
 251 800 l 1
 292 800 l 1
 334 800 l 1
 334 758 l 1
 334 717 l 1xf080
 306 717 l 1
 279 717 l 1
 279 675 l 1
 279 633 l 1
 237 633 l 1
 195 633 l 1
 195 675 l 1
 195 717 l 1xf120
 223 717 l 1
 251 717 l 1
 251 758 l 1xf080
279 425 m 2xf040
 279 467 l 1
 223 467 l 1
 167 467 l 1
 167 425 l 2xf440
 167 388 166 383 154 383 c 0
 141 383 140 378 140 258 c 0xf8
 140 138 141 133 154 133 c 0
 166 133 167 129 167 92 c 2
 167 50 l 1
 223 50 l 1
 279 50 l 1
 279 92 l 2xf440
 279 129 280 133 292 133 c 0
 305 133 306 138 306 258 c 0xf020
 306 378 305 383 292 383 c 0
 280 383 279 388 279 425 c 2xf040
140 508 m 1xf2
 140 550 l 1
 223 550 l 1
 306 550 l 1
 306 508 l 1
 306 467 l 1xf2
 334 467 l 1xf080
 362 467 l 1
 362 425 l 2xf040
 362 388 364 383 376 383 c 0
 389 383 390 378 390 258 c 0xf020
 390 138 389 133 376 133 c 0
 364 133 362 129 362 92 c 2
 362 50 l 1xf040
 334 50 l 1xf080
 306 50 l 1
 306 8 l 1
 306 -33 l 1
 223 -33 l 1
 140 -33 l 1
 140 8 l 1
 140 50 l 1xf2
 112 50 l 1
 84 50 l 1
 84 92 l 2xf4
 84 129 82 133 70 133 c 0
 57 133 56 138 56 258 c 0xf8
 56 378 57 383 70 383 c 0
 82 383 84 388 84 425 c 2
 84 467 l 1xf4
 112 467 l 1
 140 467 l 1
 140 508 l 1xf2
EndSplineSet
Validated: 8388609
EndChar

StartChar: Acircumflex
Encoding: 194 194 153
Width: 446
VWidth: 0
Flags: W
HStem: -33 21G<56 140 306 390> -33 21G<56 140 306 390> 133 84<167 279> 530 20G<167 279> 633 84<112.433 139.629 306.371 333.567> 717 83<167 279>
VStem: 56 84<-33 132.997> 84 83<217 299.996> 112 83<300.004 382.997> 112 55<633 716.996> 140 166<383.004 466.996 717.003 800> 167 112<467.003 550> 251 83<300.004 382.997> 279 83<217 299.996> 279 55<633 716.996> 306 84<-33 132.997>
LayerCount: 2
Back
Fore
SplineSet
140 758 m 2x3c20
 140 800 l 1
 223 800 l 1
 306 800 l 1
 306 758 l 2x3c20
 306 721 308 717 320 717 c 0
 332 717 334 712 334 675 c 2
 334 633 l 1x3c02
 306 633 l 1x3c01
 279 633 l 1
 279 675 l 1
 279 717 l 1x3c02
 223 717 l 1
 167 717 l 1x3c10
 167 675 l 1
 167 633 l 1x3c40
 140 633 l 1x3c20
 112 633 l 1
 112 675 l 2x3c40
 112 712 114 717 126 717 c 0
 138 717 140 721 140 758 c 2x3c20
251 342 m 2x3c08
 251 383 l 1
 223 383 l 1
 195 383 l 1
 195 342 l 2x3c88
 195 305 193 300 181 300 c 0
 169 300 167 295 167 258 c 2
 167 217 l 1
 223 217 l 1
 279 217 l 1
 279 258 l 2x3d04
 279 295 277 300 265 300 c 0
 253 300 251 305 251 342 c 2x3c08
167 508 m 2xbc10
 167 550 l 1
 223 550 l 1
 279 550 l 1
 279 508 l 2xbc10
 279 471 280 467 292 467 c 0
 304 467 306 462 306 425 c 0xbc20
 306 388 308 383 320 383 c 0
 332 383 334 379 334 342 c 0xbc08
 334 305 336 300 348 300 c 0
 361 300 362 296 362 217 c 0xbc04
 362 138 363 133 376 133 c 0
 389 133 390 129 390 50 c 2
 390 -33 l 1
 348 -33 l 1
 306 -33 l 1
 306 50 l 1
 306 133 l 1xbc01
 223 133 l 1
 140 133 l 1xbc20
 140 50 l 1
 140 -33 l 1
 98 -33 l 1
 56 -33 l 1
 56 50 l 2xbe
 56 129 57 133 70 133 c 0
 83 133 84 138 84 217 c 0xbd
 84 296 85 300 98 300 c 0
 110 300 112 305 112 342 c 0xbc80
 112 379 114 383 126 383 c 0
 138 383 140 388 140 425 c 0xbc20
 140 462 142 467 154 467 c 0
 166 467 167 471 167 508 c 2xbc10
EndSplineSet
Validated: 8388609
EndChar

StartChar: Eth
Encoding: 208 208 154
Width: 446
VWidth: 0
Flags: W
HStem: -33 83<56.4326 82.8866 167 279> 217 83<56.4326 82.8866 167 223> 467 83<56.3708 82.8866 167 279>
VStem: 56 250<-33 49.9962 467.003 550> 84 83<50.0032 216.996 300.003 466.996> 279 83<50 132.997 383.004 467> 306 84<133.004 382.996>
CounterMasks: 1 e0
LayerCount: 2
Back
Fore
SplineSet
279 425 m 2xe4
 279 467 l 1
 223 467 l 1
 167 467 l 1
 167 383 l 1
 167 300 l 1
 195 300 l 1
 223 300 l 1
 223 258 l 1
 223 217 l 1
 195 217 l 1
 167 217 l 1
 167 133 l 1
 167 50 l 1
 223 50 l 1
 279 50 l 1
 279 92 l 2xec
 279 129 280 133 292 133 c 0
 305 133 306 138 306 258 c 0xe2
 306 378 305 383 292 383 c 0
 280 383 279 388 279 425 c 2xe4
56 508 m 2xf0
 56 550 l 1
 181 550 l 1
 306 550 l 1
 306 508 l 1
 306 467 l 1xf2
 334 467 l 1
 362 467 l 1
 362 425 l 2xe4
 362 388 364 383 376 383 c 0
 389 383 390 378 390 258 c 0xe2
 390 138 389 133 376 133 c 0
 364 133 362 129 362 92 c 2
 362 50 l 1xe4
 334 50 l 1
 306 50 l 1xe2
 306 8 l 1
 306 -33 l 1
 181 -33 l 1
 56 -33 l 1
 56 8 l 2xf0
 56 45 58 50 70 50 c 0
 83 50 84 54 84 133 c 0xe8
 84 212 83 217 70 217 c 0
 58 217 56 221 56 258 c 0xf0
 56 295 58 300 70 300 c 0
 83 300 84 304 84 383 c 0xe8
 84 462 83 467 70 467 c 0
 58 467 56 471 56 508 c 2xf0
EndSplineSet
Validated: 8388609
EndChar

StartChar: dollar
Encoding: 36 36 155
Width: 446
VWidth: 0
Flags: W
HStem: -33 21G<195 251> -33 21G<195 251> 50 83<112 195 251 306> 133 84<334 390> 217 83<140 195 251 306> 300 83<56 112> 383 84<140 195 251 334> 530 20G<195 251>
VStem: 56 84<300 383> 112 222<50 133 217 300 383 467> 195 56<-33 50 133 217 300 383 467 550> 306 84<133 217>
CounterMasks: 1 2a
LayerCount: 2
Back
Fore
SplineSet
306 175 m 1x3f30
 306 217 l 1
 279 217 l 1
 251 217 l 1
 251 175 l 1
 251 133 l 1
 279 133 l 1
 306 133 l 1
 306 175 l 1x3f30
195 342 m 1
 195 383 l 1
 167 383 l 1
 140 383 l 1
 140 342 l 1
 140 300 l 1x3fa0
 167 300 l 1
 195 300 l 1
 195 342 l 1
195 508 m 1
 195 550 l 1
 223 550 l 1
 251 550 l 1
 251 508 l 1
 251 467 l 1x3f20
 292 467 l 1
 334 467 l 1
 334 425 l 1
 334 383 l 1x3f40
 292 383 l 1
 251 383 l 1
 251 342 l 1
 251 300 l 1x3f20
 292 300 l 1
 334 300 l 1
 334 258 l 1
 334 217 l 1x3f40
 362 217 l 1
 390 217 l 1
 390 175 l 1
 390 133 l 1x3f10
 362 133 l 1
 334 133 l 1
 334 92 l 1
 334 50 l 1x3f40
 292 50 l 1
 251 50 l 1
 251 8 l 1
 251 -33 l 1
 223 -33 l 1
 195 -33 l 1
 195 8 l 1
 195 50 l 1xbf20
 154 50 l 1
 112 50 l 1
 112 92 l 1
 112 133 l 1xbf40
 154 133 l 1
 195 133 l 1
 195 175 l 1
 195 217 l 1x3f20
 154 217 l 1
 112 217 l 1
 112 258 l 1
 112 300 l 1x3f40
 84 300 l 1
 56 300 l 1
 56 342 l 1
 56 383 l 1x3f80
 84 383 l 1
 112 383 l 1
 112 425 l 1
 112 467 l 1x3f40
 154 467 l 1
 195 467 l 1
 195 508 l 1
EndSplineSet
Validated: 8388609
EndChar

StartChar: SF100000
Encoding: 9472 9472 156
Width: 446
VWidth: 0
Flags: W
HStem: 300 83<15 431>
LayerCount: 2
Back
Fore
SplineSet
15 342 m 1
 15 383 l 1
 223 383 l 1
 431 383 l 1
 431 342 l 1
 431 300 l 1
 223 300 l 1
 15 300 l 1
 15 342 l 1
EndSplineSet
Validated: 1
EndChar

StartChar: atilde
Encoding: 227 227 157
Width: 446
VWidth: 0
Flags: W
HStem: -33 83<154 265 349.792 375.567> 133 84<154 265> 300 83<126 265> 467 83<70 126 237 320> 550 83<126 209 320 376>
VStem: 70 84<50.0038 132.997> 70 56<467 550> 126 166<300 383> 126 111<550 633> 209 111<467 550> 265 83<50.0041 133 217 300> 292 84<-33 49.9962> 320 56<550 633>
LayerCount: 2
Back
Fore
SplineSet
126 592 m 1xfa80
 126 633 l 1
 181 633 l 1
 237 633 l 1
 237 592 l 1
 237 550 l 1xfa80
 279 550 l 1
 320 550 l 1
 320 508 l 1
 320 467 l 1xf840
 265 467 l 1xf820
 209 467 l 1
 209 508 l 1
 209 550 l 1xf840
 167 550 l 1
 126 550 l 1
 126 592 l 1xfa80
265 92 m 1xf820
 265 133 l 1xf820
 209 133 l 1
 154 133 l 1
 154 92 l 1
 154 50 l 1
 209 50 l 1xfc40
 265 50 l 1
 265 92 l 1xf820
126 342 m 1xf9
 126 383 l 1xf9
 209 383 l 1xf840
 292 383 l 1
 292 342 l 1
 292 300 l 1
 320 300 l 1xf908
 348 300 l 1
 348 175 l 2xf820
 348 55 349 50 362 50 c 0
 374 50 376 45 376 8 c 2
 376 -33 l 1
 334 -33 l 1
 292 -33 l 1
 292 8 l 2xf810
 292 45 291 50 279 50 c 0
 267 50 265 45 265 8 c 2
 265 -33 l 1
 181 -33 l 1
 98 -33 l 1
 98 8 l 2
 98 45 96 50 84 50 c 0
 72 50 70 55 70 92 c 0
 70 129 72 133 84 133 c 0
 96 133 98 138 98 175 c 2
 98 217 l 1
 181 217 l 1
 265 217 l 1
 265 258 l 1
 265 300 l 1xfc20
 195 300 l 1
 126 300 l 1
 126 342 l 1xf9
126 550 m 1xfa
 126 508 l 1
 126 467 l 1
 98 467 l 1
 70 467 l 1
 70 508 l 1
 70 550 l 1
 98 550 l 1
 126 550 l 1xfa
320 550 m 1xf840
 320 592 l 1
 320 633 l 1xf848
 348 633 l 1xf820
 376 633 l 1
 376 592 l 1
 376 550 l 1xf808
 348 550 l 1xf820
 320 550 l 1xf840
EndSplineSet
Validated: 8388613
EndChar

StartChar: Z
Encoding: 90 90 158
Width: 446
VWidth: 0
Flags: W
HStem: -33 83<167 362> 217 83<223 251> 467 83<84 279>
VStem: 84 83<50 133> 140 83<133 217> 195 84<217 300> 251 83<300 382.997> 279 83<383.004 467>
CounterMasks: 1 e0
LayerCount: 2
Back
Fore
SplineSet
84 508 m 1xf1
 84 550 l 1xf1
 223 550 l 1
 362 550 l 1
 362 467 l 2xe9
 362 388 361 383 348 383 c 0
 336 383 334 379 334 342 c 2
 334 300 l 1xe2
 306 300 l 1
 279 300 l 1
 279 258 l 1
 279 217 l 1xe4
 251 217 l 1
 223 217 l 1
 223 175 l 1
 223 133 l 1xea
 195 133 l 1
 167 133 l 1
 167 92 l 1
 167 50 l 1xf4
 265 50 l 1
 362 50 l 1
 362 8 l 1
 362 -33 l 1
 223 -33 l 1xe9
 84 -33 l 1
 84 50 l 1
 84 133 l 1xf0
 112 133 l 1
 140 133 l 1
 140 175 l 1
 140 217 l 1xe8
 167 217 l 1
 195 217 l 1
 195 258 l 1
 195 300 l 1xf4
 223 300 l 1
 251 300 l 1
 251 342 l 2xea
 251 379 253 383 265 383 c 0
 277 383 279 388 279 425 c 2
 279 467 l 1
 181 467 l 1
 84 467 l 1
 84 508 l 1xf1
EndSplineSet
Validated: 1
EndChar

StartChar: asterisk
Encoding: 42 42 159
Width: 446
VWidth: 0
Flags: W
HStem: 133 84<84 167 279 362> 217 83<167.433 193.887 252.113 278.567> 300 83<84 167 279 362>
VStem: 84 83<133 216.996 300.004 383> 167 112<217 300> 195 56<50 216.996 300.003 467> 279 83<133 216.996 300.004 383>
CounterMasks: 1 16
LayerCount: 2
Back
Fore
SplineSet
195 383 m 2xf6
 195 467 l 1
 223 467 l 1
 251 467 l 1
 251 383 l 2xf6
 251 304 252 300 265 300 c 0
 277 300 279 305 279 342 c 2
 279 383 l 1
 320 383 l 1
 362 383 l 1
 362 342 l 1
 362 300 l 1
 320 300 l 1
 279 300 l 1xf2
 279 258 l 1xf2
 279 217 l 1xf2
 320 217 l 1
 362 217 l 1
 362 175 l 1
 362 133 l 1
 320 133 l 1
 279 133 l 1
 279 175 l 2
 279 212 277 217 265 217 c 0
 252 217 251 212 251 133 c 2
 251 50 l 1
 223 50 l 1
 195 50 l 1
 195 133 l 2
 195 212 194 217 181 217 c 0
 169 217 167 212 167 175 c 2
 167 133 l 1
 126 133 l 1
 84 133 l 1
 84 175 l 1
 84 217 l 1
 126 217 l 1
 167 217 l 1
 167 258 l 1
 167 300 l 1
 126 300 l 1
 84 300 l 1
 84 342 l 1
 84 383 l 1
 126 383 l 1
 167 383 l 1
 167 342 l 2
 167 305 169 300 181 300 c 0
 194 300 195 304 195 383 c 2xf6
EndSplineSet
Validated: 8388609
EndChar

StartChar: four
Encoding: 52 52 160
Width: 446
VWidth: 0
Flags: W
HStem: -33 21G<251 334> -33 21G<251 334> 133 84<56.4326 83.6292 140 251 334 390> 467 83<195 251>
VStem: 84 56<217.003 299.996> 112 55<300.004 382.997> 140 55<383.004 467> 195 139<467 550> 251 83<-33 133 217 467>
LayerCount: 2
Back
Fore
SplineSet
251 342 m 1x3080
 251 467 l 1
 223 467 l 1
 195 467 l 1
 195 425 l 2x3280
 195 388 193 383 181 383 c 0
 169 383 167 379 167 342 c 0x34
 167 305 166 300 154 300 c 0
 142 300 140 295 140 258 c 2
 140 217 l 1
 195 217 l 1x3b
 251 217 l 1
 251 342 l 1x3080
195 508 m 1xb3
 195 550 l 1
 265 550 l 1
 334 550 l 1xb3
 334 383 l 1
 334 217 l 1
 362 217 l 1
 390 217 l 1
 390 175 l 1
 390 133 l 1
 362 133 l 1
 334 133 l 1
 334 50 l 1
 334 -33 l 1
 292 -33 l 1
 251 -33 l 1
 251 50 l 1
 251 133 l 1
 154 133 l 1
 56 133 l 1
 56 175 l 2
 56 212 58 217 70 217 c 0
 82 217 84 221 84 258 c 0xb880
 84 295 86 300 98 300 c 0
 110 300 112 305 112 342 c 0xb4
 112 379 114 383 126 383 c 0
 138 383 140 388 140 425 c 2
 140 467 l 1xb2
 167 467 l 1xb4
 195 467 l 1
 195 508 l 1xb3
EndSplineSet
Validated: 8388613
EndChar

StartChar: Eacute
Encoding: 201 201 161
Width: 446
VWidth: 0
Flags: W
HStem: -33 83<181 348> 217 83<181 348> 467 83<181 348> 633 84<181 237> 717 83<265 320>
VStem: 98 250<-33 50 217 300 467 550> 98 83<50 217 300 467> 181 84<633 717> 237 83<717 800>
LayerCount: 2
Back
Fore
SplineSet
237 758 m 1xf880
 237 800 l 1
 279 800 l 1
 320 800 l 1
 320 758 l 1
 320 717 l 1xf880
 292 717 l 1
 265 717 l 1
 265 675 l 1
 265 633 l 1
 223 633 l 1
 181 633 l 1
 181 675 l 1
 181 717 l 1xf9
 209 717 l 1
 237 717 l 1
 237 758 l 1xf880
98 258 m 1xfc
 98 550 l 1
 223 550 l 1
 348 550 l 1
 348 508 l 1
 348 467 l 1xfc
 265 467 l 1
 181 467 l 1
 181 383 l 1
 181 300 l 1
 265 300 l 1xfb
 348 300 l 1
 348 258 l 1
 348 217 l 1xfc
 265 217 l 1
 181 217 l 1
 181 133 l 1
 181 50 l 1
 265 50 l 1xfb
 348 50 l 1
 348 8 l 1
 348 -33 l 1
 223 -33 l 1
 98 -33 l 1
 98 258 l 1xfc
EndSplineSet
Validated: 8388609
EndChar

StartChar: SF050000
Encoding: 9532 9532 162
Width: 446
VWidth: 0
Flags: W
HStem: 300 83<15 209 265 431>
VStem: 209 56<-200 300 383 800>
LayerCount: 2
Back
Fore
SplineSet
209 592 m 1
 209 800 l 1
 237 800 l 1
 265 800 l 1
 265 592 l 1
 265 383 l 1
 348 383 l 1
 431 383 l 1
 431 342 l 1
 431 300 l 1
 348 300 l 1
 265 300 l 1
 265 50 l 1
 265 -200 l 1
 237 -200 l 1
 209 -200 l 1
 209 50 l 1
 209 300 l 1
 112 300 l 1
 15 300 l 1
 15 342 l 1
 15 383 l 1
 112 383 l 1
 209 383 l 1
 209 592 l 1
EndSplineSet
Validated: 1
EndChar

StartChar: cedilla
Encoding: 184 184 163
Width: 446
VWidth: 0
Flags: W
HStem: -200 83<154 209> -117 84<237 292>
VStem: 154 83<-200 -117> 209 83<-117 -33>
LayerCount: 2
Back
Fore
SplineSet
209 -75 m 1xd0
 209 -33 l 1
 251 -33 l 1
 292 -33 l 1
 292 -75 l 1
 292 -117 l 1xd0
 265 -117 l 1
 237 -117 l 1
 237 -158 l 1
 237 -200 l 1
 195 -200 l 1
 154 -200 l 1
 154 -158 l 1
 154 -117 l 1xe0
 181 -117 l 1
 209 -117 l 1
 209 -75 l 1xd0
EndSplineSet
Validated: 8388609
EndChar

StartChar: Ecircumflex
Encoding: 202 202 164
Width: 446
VWidth: 0
Flags: W
HStem: -33 83<181 348> 217 83<181 348> 467 83<181 348> 633 84<126.433 153.629 292.371 319.567> 717 83<181 265>
VStem: 98 250<-33 50 217 300 467 550> 98 83<50 217 300 467> 126 55<633 716.996> 154 138<717.003 800> 265 55<633 716.996>
LayerCount: 2
Back
Fore
SplineSet
154 758 m 2xf880
 154 800 l 1
 223 800 l 1
 292 800 l 1
 292 758 l 2xf880
 292 721 294 717 306 717 c 0
 318 717 320 712 320 675 c 2
 320 633 l 1xf840
 292 633 l 1xf880
 265 633 l 1
 265 675 l 1
 265 717 l 1
 223 717 l 1
 181 717 l 1
 181 675 l 1
 181 633 l 1xf940
 154 633 l 1xf880
 126 633 l 1
 126 675 l 2xf9
 126 712 128 717 140 717 c 0
 152 717 154 721 154 758 c 2xf880
98 258 m 1xfc
 98 550 l 1
 223 550 l 1
 348 550 l 1
 348 508 l 1
 348 467 l 1xfc
 265 467 l 1
 181 467 l 1
 181 383 l 1
 181 300 l 1
 265 300 l 1xfa40
 348 300 l 1
 348 258 l 1
 348 217 l 1xfc
 265 217 l 1
 181 217 l 1
 181 133 l 1
 181 50 l 1
 265 50 l 1xfa40
 348 50 l 1
 348 8 l 1
 348 -33 l 1
 223 -33 l 1
 98 -33 l 1
 98 258 l 1xfc
EndSplineSet
Validated: 8388609
EndChar

StartChar: S
Encoding: 83 83 165
Width: 446
VWidth: 0
Flags: W
HStem: -33 83<140 306> 50 83<56 112> 217 83<140 306> 383 84<334 390> 467 83<140 306>
VStem: 56 84<50 133 300 467> 112 222<-33 50 217 300 467 550> 306 84<50 217 383 467>
LayerCount: 2
Back
Fore
SplineSet
112 508 m 1xfa
 112 550 l 1
 223 550 l 1
 334 550 l 1
 334 508 l 1
 334 467 l 1xfa
 362 467 l 1
 390 467 l 1
 390 425 l 1
 390 383 l 1
 348 383 l 1
 306 383 l 1
 306 425 l 1
 306 467 l 1
 223 467 l 1
 140 467 l 1
 140 383 l 1
 140 300 l 1xfd
 237 300 l 1
 334 300 l 1
 334 258 l 1
 334 217 l 1xfa
 362 217 l 1
 390 217 l 1
 390 133 l 1
 390 50 l 1xf9
 362 50 l 1
 334 50 l 1
 334 8 l 1
 334 -33 l 1
 223 -33 l 1
 112 -33 l 1
 112 8 l 1
 112 50 l 1xfa
 84 50 l 1
 56 50 l 1
 56 92 l 1
 56 133 l 1
 98 133 l 1
 140 133 l 1
 140 92 l 1
 140 50 l 1
 223 50 l 1
 306 50 l 1
 306 133 l 1
 306 217 l 1xfd
 209 217 l 1
 112 217 l 1
 112 258 l 1
 112 300 l 1xfa
 84 300 l 1
 56 300 l 1
 56 383 l 1
 56 467 l 1xfc
 84 467 l 1
 112 467 l 1
 112 508 l 1xfa
EndSplineSet
Validated: 8388609
EndChar

StartChar: Udieresis
Encoding: 220 220 166
Width: 446
VWidth: 0
Flags: W
HStem: -33 83<140 306> 530 20G<56 140 306 390> 633 84<84 167 279 362>
VStem: 56 84<50 550> 84 83<633 717> 279 83<633 717> 306 84<50 550>
LayerCount: 2
Back
Fore
SplineSet
84 675 m 1xe8
 84 717 l 1
 126 717 l 1
 167 717 l 1
 167 675 l 1
 167 633 l 1
 126 633 l 1
 84 633 l 1
 84 675 l 1xe8
279 675 m 1xe4
 279 717 l 1
 320 717 l 1
 362 717 l 1
 362 675 l 1
 362 633 l 1
 320 633 l 1
 279 633 l 1
 279 675 l 1xe4
56 300 m 1xf0
 56 550 l 1
 98 550 l 1
 140 550 l 1
 140 300 l 1
 140 50 l 1
 223 50 l 1
 306 50 l 1
 306 300 l 1
 306 550 l 1
 348 550 l 1
 390 550 l 1
 390 300 l 1
 390 50 l 1xf2
 362 50 l 1
 334 50 l 1
 334 8 l 1
 334 -33 l 1
 223 -33 l 1
 112 -33 l 1
 112 8 l 1
 112 50 l 1
 84 50 l 1xec
 56 50 l 1
 56 300 l 1xf0
EndSplineSet
Validated: 1
EndChar

StartChar: SF080000
Encoding: 9500 9500 167
Width: 446
VWidth: 0
Flags: W
HStem: 300 83<249 416>
VStem: 194 55<-200 300 383 800>
LayerCount: 2
Back
Fore
SplineSet
194 300 m 1
 194 800 l 1
 222 800 l 1
 249 800 l 1
 249 592 l 1
 249 383 l 1
 333 383 l 1
 416 383 l 1
 416 342 l 1
 416 300 l 1
 333 300 l 1
 249 300 l 1
 249 50 l 1
 249 -200 l 1
 222 -200 l 1
 194 -200 l 1
 194 300 l 1
EndSplineSet
Validated: 1
EndChar

StartChar: macron
Encoding: 175 175 168
Width: 446
VWidth: 0
Flags: W
HStem: 633 84<140 306>
VStem: 140 166<633 717>
LayerCount: 2
Back
Fore
SplineSet
140 675 m 1
 140 717 l 1
 223 717 l 1
 306 717 l 1
 306 675 l 1
 306 633 l 1
 223 633 l 1
 140 633 l 1
 140 675 l 1
EndSplineSet
Validated: 1
EndChar

StartChar: Ucircumflex
Encoding: 219 219 169
Width: 446
VWidth: 0
Flags: W
HStem: -33 83<140 306> 530 20G<56 140 306 390> 633 84<112.433 139.629 306.371 333.567> 717 83<167 279>
VStem: 56 84<50 550> 112 55<633 716.996> 140 166<717.003 800> 279 55<633 716.996> 306 84<50 550>
LayerCount: 2
Back
Fore
SplineSet
140 758 m 2xf2
 140 800 l 1
 223 800 l 1
 306 800 l 1
 306 758 l 2xf2
 306 721 308 717 320 717 c 0
 332 717 334 712 334 675 c 2
 334 633 l 1xf1
 306 633 l 1xf080
 279 633 l 1
 279 675 l 1
 279 717 l 1
 223 717 l 1
 167 717 l 1
 167 675 l 1
 167 633 l 1xf5
 140 633 l 1xf2
 112 633 l 1
 112 675 l 2xf4
 112 712 114 717 126 717 c 0
 138 717 140 721 140 758 c 2xf2
56 300 m 1xf8
 56 550 l 1
 98 550 l 1
 140 550 l 1
 140 300 l 1
 140 50 l 1
 223 50 l 1
 306 50 l 1
 306 300 l 1
 306 550 l 1
 348 550 l 1
 390 550 l 1
 390 300 l 1
 390 50 l 1xf880
 362 50 l 1
 334 50 l 1
 334 8 l 1
 334 -33 l 1
 223 -33 l 1
 112 -33 l 1
 112 8 l 1
 112 50 l 1xf5
 84 50 l 1
 56 50 l 1
 56 300 l 1xf8
EndSplineSet
Validated: 8388609
EndChar

StartChar: uacute
Encoding: 250 250 170
Width: 446
VWidth: 0
Flags: W
HStem: -33 83<167 279> 363 20G<56 140 306 390> 467 83<167 223> 550 83<251 306>
VStem: 56 111<50 137.2> 56 84<131.406 383> 167 84<467 550> 223 83<550 633> 279 111<50 137.2> 306 84<-33 49.9962 131.406 383>
LayerCount: 2
Back
Fore
SplineSet
223 592 m 1xf1
 223 633 l 1
 265 633 l 1
 306 633 l 1
 306 592 l 1
 306 550 l 1xf1
 279 550 l 1
 251 550 l 1
 251 508 l 1
 251 467 l 1
 209 467 l 1
 167 467 l 1
 167 508 l 1
 167 550 l 1xf280
 195 550 l 1
 223 550 l 1
 223 592 l 1xf1
56 217 m 1xf4
 56 383 l 1
 98 383 l 1
 140 383 l 1
 140 258 l 2xf4
 140 138 141 133 154 133 c 0
 166 133 167 129 167 92 c 2
 167 50 l 1
 223 50 l 1xf9
 279 50 l 1
 279 92 l 2xf080
 279 129 280 133 292 133 c 0
 305 133 306 138 306 258 c 2
 306 383 l 1
 348 383 l 1
 390 383 l 1
 390 175 l 1
 390 -33 l 1
 348 -33 l 1
 306 -33 l 1
 306 8 l 2xf040
 306 45 304 50 292 50 c 0
 280 50 279 45 279 8 c 2
 279 -33 l 1
 195 -33 l 1
 112 -33 l 1
 112 8 l 1
 112 50 l 1
 84 50 l 1
 56 50 l 1xf880
 56 217 l 1xf4
EndSplineSet
Validated: 8388609
EndChar

StartChar: udieresis
Encoding: 252 252 171
Width: 446
VWidth: 0
Flags: W
HStem: -33 83<167 279> 363 20G<56 140 306 390> 467 83<84 167 279 362>
VStem: 56 84<131.406 383> 84 83<467 550> 279 83<467 550> 306 84<-33 49.9962 131.406 383>
LayerCount: 2
Back
Fore
SplineSet
84 508 m 1xe8
 84 550 l 1
 126 550 l 1
 167 550 l 1
 167 508 l 1
 167 467 l 1
 126 467 l 1
 84 467 l 1
 84 508 l 1xe8
279 508 m 1xe4
 279 550 l 1
 320 550 l 1
 362 550 l 1
 362 508 l 1
 362 467 l 1
 320 467 l 1
 279 467 l 1
 279 508 l 1xe4
56 217 m 1xf0
 56 383 l 1
 98 383 l 1
 140 383 l 1
 140 258 l 2xf0
 140 138 141 133 154 133 c 0
 166 133 167 129 167 92 c 2
 167 50 l 1
 223 50 l 1
 279 50 l 1
 279 92 l 2xec
 279 129 280 133 292 133 c 0
 305 133 306 138 306 258 c 2
 306 383 l 1
 348 383 l 1
 390 383 l 1
 390 175 l 1
 390 -33 l 1
 348 -33 l 1
 306 -33 l 1
 306 8 l 2xe2
 306 45 304 50 292 50 c 0
 280 50 279 45 279 8 c 2
 279 -33 l 1
 195 -33 l 1
 112 -33 l 1
 112 8 l 1
 112 50 l 1
 84 50 l 1xec
 56 50 l 1
 56 217 l 1xf0
EndSplineSet
Validated: 1
EndChar

StartChar: v
Encoding: 118 118 172
Width: 446
VWidth: 0
Flags: W
HStem: -33 21G<181 265> -33 21G<181 265> 300 83<70.4326 97.5674 348.433 375.567>
VStem: 70 84<300.004 383> 98 83<217.003 299.996> 126 83<133.004 216.996> 154 138<50.0038 132.997> 181 84<-33 49.9962> 237 83<133.004 216.996> 265 83<217.003 299.996> 292 84<300.004 383>
LayerCount: 2
Back
Fore
SplineSet
70 342 m 2xb0
 70 383 l 1
 112 383 l 1
 154 383 l 1
 154 342 l 2xb0
 154 305 155 300 167 300 c 0
 179 300 181 295 181 258 c 0xa8
 181 221 183 217 195 217 c 0
 207 217 209 212 209 175 c 0
 209 138 211 133 223 133 c 0
 235 133 237 138 237 175 c 0xa480
 237 212 239 217 251 217 c 0
 263 217 265 221 265 258 c 0xa040
 265 295 267 300 279 300 c 0
 291 300 292 305 292 342 c 2
 292 383 l 1
 334 383 l 1
 376 383 l 1
 376 342 l 2xa020
 376 305 374 300 362 300 c 0
 350 300 348 295 348 258 c 0xa040
 348 221 346 217 334 217 c 0
 322 217 320 212 320 175 c 0xa080
 320 138 318 133 306 133 c 0
 294 133 292 129 292 92 c 0xa2
 292 55 291 50 279 50 c 0
 267 50 265 45 265 8 c 2
 265 -33 l 1
 223 -33 l 1
 181 -33 l 1
 181 8 l 2xa1
 181 45 179 50 167 50 c 0
 155 50 154 55 154 92 c 0xa2
 154 129 152 133 140 133 c 0
 128 133 126 138 126 175 c 0xa4
 126 212 124 217 112 217 c 0
 100 217 98 221 98 258 c 0xa8
 98 295 96 300 84 300 c 0
 72 300 70 305 70 342 c 2xb0
EndSplineSet
Validated: 1
EndChar

StartChar: Agrave
Encoding: 192 192 173
Width: 446
VWidth: 0
Flags: W
HStem: -33 21G<56 140 306 390> -33 21G<56 140 306 390> 133 84<167 279> 530 20G<167 279> 633 84<223 279> 717 83<140 195>
VStem: 56 84<-33 132.997> 84 83<217 299.996> 112 83<300.004 382.997> 140 166<383.004 466.996> 140 83<717 800> 167 112<467.003 550> 195 84<633 717> 251 83<300.004 382.997> 279 83<217 299.996> 306 84<-33 132.997>
LayerCount: 2
Back
Fore
SplineSet
140 758 m 1x3c20
 140 800 l 1
 181 800 l 1
 223 800 l 1
 223 758 l 1
 223 717 l 1
 251 717 l 1x3c24
 279 717 l 1
 279 675 l 1
 279 633 l 1
 237 633 l 1
 195 633 l 1
 195 675 l 1
 195 717 l 1x3c08
 167 717 l 1x3c10
 140 717 l 1
 140 758 l 1x3c20
251 342 m 2
 251 383 l 1
 223 383 l 1x3c24
 195 383 l 1x3c08
 195 342 l 2x3c80
 195 305 193 300 181 300 c 0
 169 300 167 295 167 258 c 2
 167 217 l 1x3d
 223 217 l 1
 279 217 l 1
 279 258 l 2x3c22
 279 295 277 300 265 300 c 0
 253 300 251 305 251 342 c 2
167 508 m 2xbc10
 167 550 l 1xbc10
 223 550 l 1xbc20
 279 550 l 1
 279 508 l 2xbc10
 279 471 280 467 292 467 c 0
 304 467 306 462 306 425 c 0xbc40
 306 388 308 383 320 383 c 0
 332 383 334 379 334 342 c 0xbc04
 334 305 336 300 348 300 c 0
 361 300 362 296 362 217 c 0xbc02
 362 138 363 133 376 133 c 0
 389 133 390 129 390 50 c 2
 390 -33 l 1
 348 -33 l 1
 306 -33 l 1
 306 50 l 1
 306 133 l 1
 223 133 l 1
 140 133 l 1xbc21
 140 50 l 1
 140 -33 l 1
 98 -33 l 1
 56 -33 l 1
 56 50 l 2xbe
 56 129 57 133 70 133 c 0
 83 133 84 138 84 217 c 0xbd
 84 296 85 300 98 300 c 0
 110 300 112 305 112 342 c 0xbc80
 112 379 114 383 126 383 c 0
 138 383 140 388 140 425 c 0xbc40
 140 462 142 467 154 467 c 0
 166 467 167 471 167 508 c 2xbc10
EndSplineSet
Validated: 8388609
EndChar

StartChar: B
Encoding: 66 66 174
Width: 446
VWidth: 0
Flags: W
HStem: -33 83<140 306> 217 83<140 306> 467 83<140 306>
VStem: 56 84<50 217 300 467> 306 84<50 217 300 467>
CounterMasks: 1 e0
LayerCount: 2
Back
Fore
SplineSet
306 133 m 1
 306 217 l 1
 223 217 l 1
 140 217 l 1
 140 133 l 1
 140 50 l 1
 223 50 l 1
 306 50 l 1
 306 133 l 1
306 383 m 1
 306 467 l 1
 223 467 l 1
 140 467 l 1
 140 383 l 1
 140 300 l 1
 223 300 l 1
 306 300 l 1
 306 383 l 1
56 258 m 1
 56 550 l 1
 209 550 l 1
 362 550 l 1
 362 508 l 2
 362 471 364 467 376 467 c 0
 389 467 390 462 390 383 c 2
 390 300 l 1
 362 300 l 1
 334 300 l 1
 334 258 l 1
 334 217 l 1
 362 217 l 1
 390 217 l 1
 390 133 l 2
 390 54 389 50 376 50 c 0
 364 50 362 45 362 8 c 2
 362 -33 l 1
 209 -33 l 1
 56 -33 l 1
 56 258 l 1
EndSplineSet
Validated: 1
EndChar

StartChar: m
Encoding: 109 109 175
Width: 446
VWidth: 0
Flags: W
HStem: -33 21G<56 140 195 251 306 390> -33 21G<56 140 195 251 306 390> 300 83<140 195 251 306>
VStem: 56 84<-33 300> 56 56<300.004 383> 140 83<300.004 383> 195 56<-33 300> 251 111<300.004 383> 306 84<-33 300>
LayerCount: 2
Back
Fore
SplineSet
56 175 m 1xb2
 56 383 l 1
 84 383 l 1
 112 383 l 1
 112 342 l 2
 112 305 114 300 126 300 c 0
 138 300 140 305 140 342 c 2
 140 383 l 1
 181 383 l 1
 223 383 l 1
 223 342 l 2
 223 305 225 300 237 300 c 0
 249 300 251 305 251 342 c 2
 251 383 l 1xad
 306 383 l 1xa080
 362 383 l 1
 362 342 l 2xa1
 362 305 364 300 376 300 c 0
 390 300 390 295 390 133 c 2
 390 -33 l 1
 348 -33 l 1
 306 -33 l 1
 306 133 l 1
 306 300 l 1
 279 300 l 1
 251 300 l 1
 251 133 l 1
 251 -33 l 1xa280
 223 -33 l 1xa4
 195 -33 l 1
 195 133 l 1
 195 300 l 1
 167 300 l 1
 140 300 l 1
 140 133 l 1
 140 -33 l 1
 98 -33 l 1
 56 -33 l 1
 56 175 l 1xb2
EndSplineSet
Validated: 1
EndChar

StartChar: Oslash
Encoding: 216 216 176
Width: 446
VWidth: 0
Flags: W
HStem: -33 83<195 279> 467 83<167 251>
VStem: 56 84<133.004 382.996> 84 83<383.004 467> 84 56<-117 -33> 167 56<133.004 216.996> 195 56<217.003 299.996> 223 56<300.004 382.997> 279 83<50 132.997> 306 84<133.004 382.996> 306 56<550 633>
LayerCount: 2
Back
Fore
SplineSet
306 258 m 0xc040
 306 378 305 383 292 383 c 0
 280 383 279 379 279 342 c 0xc140
 279 305 277 300 265 300 c 0
 253 300 251 295 251 258 c 0xc2
 251 221 249 217 237 217 c 0
 225 217 223 212 223 175 c 0xc4
 223 138 221 133 209 133 c 0
 197 133 195 129 195 92 c 2
 195 50 l 1
 237 50 l 1
 279 50 l 1
 279 92 l 2xc280
 279 129 280 133 292 133 c 0
 305 133 306 138 306 258 c 0xc040
251 425 m 2xc2
 251 467 l 1
 209 467 l 1
 167 467 l 1
 167 425 l 2xd2
 167 388 166 383 154 383 c 0
 141 383 140 378 140 258 c 0
 140 138 141 133 154 133 c 0
 166 133 167 138 167 175 c 0xe4
 167 212 169 217 181 217 c 0
 193 217 195 221 195 258 c 0xc2
 195 295 197 300 209 300 c 0
 221 300 223 305 223 342 c 0xc1
 223 379 225 383 237 383 c 0
 249 383 251 388 251 425 c 2xc2
306 592 m 1xc920
 306 633 l 1
 334 633 l 1
 362 633 l 1
 362 508 l 2xc920
 362 388 363 383 376 383 c 0
 389 383 390 378 390 258 c 0xc040
 390 138 389 133 376 133 c 0
 364 133 362 129 362 92 c 2
 362 50 l 1xc080
 334 50 l 1
 306 50 l 1
 306 8 l 1
 306 -33 l 1
 223 -33 l 1
 140 -33 l 1
 140 -75 l 1
 140 -117 l 1
 112 -117 l 1
 84 -117 l 1
 84 8 l 2xc920
 84 128 83 133 70 133 c 0
 57 133 56 138 56 258 c 0xe0
 56 378 57 383 70 383 c 0
 82 383 84 388 84 425 c 2
 84 467 l 1xd0
 112 467 l 1
 140 467 l 1
 140 508 l 1
 140 550 l 1
 223 550 l 1
 306 550 l 1
 306 592 l 1xc920
EndSplineSet
Validated: 1
EndChar

StartChar: I
Encoding: 73 73 177
Width: 446
VWidth: 0
Flags: W
HStem: -33 83<126 181 265 320> 467 83<126 181 265 320>
VStem: 126 194<-33 50 467 550> 181 84<50 467>
LayerCount: 2
Back
Fore
SplineSet
126 508 m 1xe0
 126 550 l 1
 223 550 l 1
 320 550 l 1
 320 508 l 1
 320 467 l 1xe0
 292 467 l 1
 265 467 l 1
 265 258 l 1
 265 50 l 1xd0
 292 50 l 1
 320 50 l 1
 320 8 l 1
 320 -33 l 1
 223 -33 l 1
 126 -33 l 1
 126 8 l 1
 126 50 l 1xe0
 154 50 l 1
 181 50 l 1
 181 258 l 1
 181 467 l 1xd0
 154 467 l 1
 126 467 l 1
 126 508 l 1xe0
EndSplineSet
Validated: 1
EndChar

StartChar: comma
Encoding: 44 44 178
Width: 446
VWidth: 0
Flags: W
HStem: -200 83<112 167>
VStem: 112 111<-200 -117> 167 112<-117 -33> 223 111<-33 133>
LayerCount: 2
Back
Fore
SplineSet
223 50 m 1x90
 223 133 l 1x90
 279 133 l 1xa0
 334 133 l 1
 334 50 l 1
 334 -33 l 1x90
 306 -33 l 1
 279 -33 l 1
 279 -75 l 1
 279 -117 l 1xa0
 251 -117 l 1
 223 -117 l 1
 223 -158 l 1
 223 -200 l 1xc0
 167 -200 l 1xa0
 112 -200 l 1
 112 -158 l 1
 112 -117 l 1xc0
 140 -117 l 1
 167 -117 l 1
 167 -75 l 1
 167 -33 l 1xa0
 195 -33 l 1
 223 -33 l 1
 223 50 l 1x90
EndSplineSet
Validated: 1
EndChar

StartChar: Y
Encoding: 89 89 179
Width: 446
VWidth: 0
Flags: W
HStem: -33 21G<181 265> -33 21G<181 265> 530 20G<70 154 292 376>
VStem: 70 84<383.004 550> 98 83<300.004 382.997> 181 84<-33 217> 265 83<300.004 382.997> 292 84<383.004 550>
LayerCount: 2
Back
Fore
SplineSet
70 467 m 2xb4
 70 550 l 1
 112 550 l 1
 154 550 l 1
 154 467 l 2xb4
 154 388 154 383 167 383 c 0
 179 383 181 379 181 342 c 2
 181 300 l 1
 223 300 l 1
 265 300 l 1
 265 342 l 2
 265 379 267 383 279 383 c 0
 292 383 292 388 292 467 c 2
 292 550 l 1
 334 550 l 1
 376 550 l 1
 376 467 l 2xad
 376 388 375 383 362 383 c 0
 350 383 348 379 348 342 c 0xa4
 348 305 346 300 334 300 c 0
 322 300 320 295 320 258 c 2
 320 217 l 1
 292 217 l 1
 265 217 l 1
 265 92 l 1
 265 -33 l 1
 223 -33 l 1
 181 -33 l 1
 181 92 l 1
 181 217 l 1
 154 217 l 1xb5
 126 217 l 1
 126 258 l 2
 126 295 124 300 112 300 c 0
 100 300 98 305 98 342 c 0xac
 98 379 96 383 84 383 c 0
 71 383 70 388 70 467 c 2xb4
EndSplineSet
Validated: 8388609
EndChar

StartChar: quotedbl
Encoding: 34 34 180
Width: 446
VWidth: 0
Flags: W
HStem: 467 166<98 181 265 348>
VStem: 98 83<467 633> 265 83<467 633>
LayerCount: 2
Back
Fore
SplineSet
98 550 m 1
 98 633 l 1
 140 633 l 1
 181 633 l 1
 181 550 l 1
 181 467 l 1
 140 467 l 1
 98 467 l 1
 98 550 l 1
265 550 m 1
 265 633 l 1
 306 633 l 1
 348 633 l 1
 348 550 l 1
 348 467 l 1
 306 467 l 1
 265 467 l 1
 265 550 l 1
EndSplineSet
Validated: 1
EndChar

StartChar: Thorn
Encoding: 222 222 181
Width: 446
VWidth: 0
Flags: W
HStem: -33 21G<56 167> -33 21G<56 167> 50 83<167 279> 383 84<167 279> 530 20G<56 167>
VStem: 56 111<-33 49.9962 467.003 550> 84 83<134.098 382.076> 279 83<133 216.996 300.004 383> 306 84<217.003 299.996>
LayerCount: 2
Back
Fore
SplineSet
279 342 m 2x39
 279 383 l 1
 223 383 l 1
 167 383 l 1
 167 258 l 1
 167 133 l 1
 223 133 l 1
 279 133 l 1
 279 175 l 2x3b
 279 212 280 217 292 217 c 0
 304 217 306 221 306 258 c 0x3880
 306 295 304 300 292 300 c 0
 280 300 279 305 279 342 c 2x39
56 508 m 2xbc
 56 550 l 1
 112 550 l 1
 167 550 l 1
 167 508 l 1xbc
 167 467 l 1
 237 467 l 1
 306 467 l 1
 306 425 l 1
 306 383 l 1xba80
 334 383 l 1
 362 383 l 1
 362 342 l 2xb9
 362 305 364 300 376 300 c 0
 388 300 390 295 390 258 c 0xb880
 390 221 388 217 376 217 c 0
 364 217 362 212 362 175 c 2
 362 133 l 1xb9
 334 133 l 1
 306 133 l 1
 306 92 l 1
 306 50 l 1
 237 50 l 1
 167 50 l 1xba80
 167 8 l 1
 167 -33 l 1
 112 -33 l 1
 56 -33 l 1
 56 8 l 2xbc
 56 45 58 50 70 50 c 0
 84 50 84 54 84 258 c 0xba
 84 462 84 467 70 467 c 0
 58 467 56 471 56 508 c 2xbc
EndSplineSet
Validated: 1
EndChar

StartChar: paragraph
Encoding: 182 182 182
Width: 446
VWidth: 0
Flags: W
HStem: 550 83<237 292 351.168 375.567>
VStem: 70 167<300.003 466.996> 98 139<217 299.996 467.003 550> 154 83<133.004 217> 181 56<-117 132.996> 292 56<-117 432.483>
LayerCount: 2
Back
Fore
SplineSet
154 592 m 1x94
 154 633 l 1x94
 265 633 l 1
 376 633 l 1
 376 592 l 2
 376 555 374 550 362 550 c 0
 348 550 348 546 348 217 c 2
 348 -117 l 1
 320 -117 l 1
 292 -117 l 1
 292 217 l 1
 292 550 l 1
 265 550 l 1
 237 550 l 1
 237 217 l 1xa4
 237 -117 l 1
 209 -117 l 1
 181 -117 l 1
 181 8 l 2x8c
 181 128 180 133 167 133 c 0
 155 133 154 138 154 175 c 2
 154 217 l 1x94
 126 217 l 1
 98 217 l 1
 98 258 l 2xa4
 98 295 96 300 84 300 c 0
 71 300 70 304 70 383 c 0xc4
 70 462 71 467 84 467 c 0
 96 467 98 471 98 508 c 2
 98 550 l 1xa4
 126 550 l 1
 154 550 l 1
 154 592 l 1x94
EndSplineSet
Validated: 1
EndChar

StartChar: Uacute
Encoding: 218 218 183
Width: 446
VWidth: 0
Flags: W
HStem: -33 83<140 306> 530 20G<56 140 306 390> 633 84<167 223> 717 83<251 306>
VStem: 56 84<50 550> 167 84<633 717> 223 83<717 800> 306 84<50 550>
LayerCount: 2
Back
Fore
SplineSet
223 758 m 1xfb
 223 800 l 1
 265 800 l 1
 306 800 l 1
 306 758 l 1
 306 717 l 1xfb
 279 717 l 1
 251 717 l 1
 251 675 l 1
 251 633 l 1
 209 633 l 1
 167 633 l 1
 167 675 l 1
 167 717 l 1xfd
 195 717 l 1
 223 717 l 1
 223 758 l 1xfb
56 300 m 1
 56 550 l 1
 98 550 l 1
 140 550 l 1
 140 300 l 1
 140 50 l 1
 223 50 l 1
 306 50 l 1
 306 300 l 1
 306 550 l 1
 348 550 l 1
 390 550 l 1
 390 300 l 1
 390 50 l 1
 362 50 l 1
 334 50 l 1
 334 8 l 1
 334 -33 l 1
 223 -33 l 1
 112 -33 l 1
 112 8 l 1
 112 50 l 1
 84 50 l 1
 56 50 l 1
 56 300 l 1
EndSplineSet
Validated: 8388609
EndChar

StartChar: l
Encoding: 108 108 184
Width: 446
VWidth: 0
Flags: W
HStem: -33 83<98 181 265 348> 467 83<126 181>
VStem: 126 139<467 550> 181 84<50 467>
LayerCount: 2
Back
Fore
SplineSet
126 508 m 1xe0
 126 550 l 1
 195 550 l 1
 265 550 l 1xe0
 265 300 l 1
 265 50 l 1
 306 50 l 1
 348 50 l 1
 348 8 l 1
 348 -33 l 1
 223 -33 l 1
 98 -33 l 1
 98 8 l 1
 98 50 l 1
 140 50 l 1
 181 50 l 1
 181 258 l 1
 181 467 l 1xd0
 154 467 l 1
 126 467 l 1
 126 508 l 1xe0
EndSplineSet
Validated: 1
EndChar

StartChar: ccedilla
Encoding: 231 231 185
Width: 446
VWidth: 0
Flags: W
HStem: -200 83<112 195> -33 83<167 195 251 306> 50 83<334 390> 217 83<334 390> 300 83<167 306>
VStem: 56 84<133.004 216.996> 84 83<50 132.997 217.003 300> 112 83<-200 -117> 140 194<-33 50 300 383> 195 56<-117 -33> 306 84<50 133 217 300>
LayerCount: 2
Back
Fore
SplineSet
140 342 m 1xf880
 140 383 l 1
 237 383 l 1
 334 383 l 1
 334 342 l 1
 334 300 l 1xf880
 362 300 l 1
 390 300 l 1
 390 258 l 1
 390 217 l 1
 348 217 l 1
 306 217 l 1
 306 258 l 1
 306 300 l 1
 237 300 l 1
 167 300 l 1
 167 258 l 2xfa20
 167 221 166 217 154 217 c 0
 142 217 140 212 140 175 c 0xfc
 140 138 142 133 154 133 c 0
 166 133 167 129 167 92 c 2
 167 50 l 1
 237 50 l 1
 306 50 l 1
 306 92 l 1
 306 133 l 1
 348 133 l 1
 390 133 l 1
 390 92 l 1
 390 50 l 1xfa20
 362 50 l 1
 334 50 l 1
 334 8 l 1
 334 -33 l 1xf880
 292 -33 l 1
 251 -33 l 1
 251 -75 l 1
 251 -117 l 1xf840
 223 -117 l 1
 195 -117 l 1xf9
 195 -75 l 1
 195 -33 l 1
 167 -33 l 1xfa40
 140 -33 l 1
 140 8 l 1
 140 50 l 1xf880
 112 50 l 1xf9
 84 50 l 1
 84 92 l 2xfa
 84 129 82 133 70 133 c 0
 58 133 56 138 56 175 c 0xfc
 56 212 58 217 70 217 c 0
 82 217 84 221 84 258 c 2
 84 300 l 1xfa
 112 300 l 1xf9
 140 300 l 1
 140 342 l 1xf880
195 -117 m 1xf9
 195 -158 l 1
 195 -200 l 1
 154 -200 l 1
 112 -200 l 1
 112 -158 l 1
 112 -117 l 1
 154 -117 l 1
 195 -117 l 1xf9
EndSplineSet
Validated: 8388613
EndChar

StartChar: ntilde
Encoding: 241 241 186
Width: 446
VWidth: 0
Flags: W
HStem: -33 21G<56 140 306 390> -33 21G<56 140 306 390> 300 83<167 306> 467 83<84 140 251 334> 550 83<140 223 334 390>
VStem: 56 111<212.8 300> 56 84<-33 218.594 300.004 383> 84 56<467 550> 140 111<550 633> 167 195<300.004 383> 223 111<467 550> 306 84<-33 300> 334 56<550 633>
LayerCount: 2
Back
Fore
SplineSet
140 592 m 1x3980
 140 633 l 1
 195 633 l 1
 251 633 l 1
 251 592 l 1
 251 550 l 1x3980
 292 550 l 1
 334 550 l 1
 334 508 l 1
 334 467 l 1
 279 467 l 1
 223 467 l 1
 223 508 l 1
 223 550 l 1x3820
 181 550 l 1
 140 550 l 1
 140 592 l 1x3980
56 175 m 1xba
 56 383 l 1
 98 383 l 1
 140 383 l 1
 140 342 l 2
 140 305 142 300 154 300 c 0
 166 300 167 305 167 342 c 2
 167 383 l 1
 265 383 l 1
 362 383 l 1
 362 342 l 2xba40
 362 305 364 300 376 300 c 0
 390 300 390 295 390 133 c 2
 390 -33 l 1
 348 -33 l 1
 306 -33 l 1
 306 133 l 1
 306 300 l 1
 237 300 l 1
 167 300 l 1
 167 258 l 2xbc10
 167 221 166 217 154 217 c 0
 141 217 140 212 140 92 c 2
 140 -33 l 1
 98 -33 l 1
 56 -33 l 1
 56 175 l 1xba
140 550 m 1x39
 140 508 l 1
 140 467 l 1
 112 467 l 1
 84 467 l 1
 84 508 l 1
 84 550 l 1
 112 550 l 1
 140 550 l 1x39
334 550 m 1x3820
 334 592 l 1
 334 633 l 1x3828
 362 633 l 1x3840
 390 633 l 1
 390 592 l 1
 390 550 l 1x3808
 362 550 l 1x3840
 334 550 l 1x3820
EndSplineSet
Validated: 8388613
EndChar

StartChar: onequarter
Encoding: 188 188 187
Width: 446
VWidth: 0
Flags: W
HStem: -33 83<84.4326 111.567 195.433 222.567 251 306 363.818 389.567> 467 83<56.4326 82.1816 279.294 305.629>
VStem: 56 84<467.003 549.996> 84 56<-33 49.9962 217.004 466.996 550.004 633> 112 55<50.0038 132.997> 140 55<133.004 216.996> 167 56<217.003 299.996> 195 56<300.004 382.997> 223 56<383.004 468.594> 223 28<50.0038 133> 251 55<465.213 550> 251 28<133 216.996> 279 83<217.003 300> 306 56<-117 -33.0038 50.0041 216.996>
CounterMasks: 1 0414
LayerCount: 2
Back
Fore
SplineSet
84 592 m 2xd0
 84 633 l 1xd0
 112 633 l 1xc8
 140 633 l 1
 140 425 l 2
 140 221 140 217 154 217 c 0
 166 217 167 221 167 258 c 0xd2
 167 295 169 300 181 300 c 0
 193 300 195 305 195 342 c 0xc1
 195 379 197 383 209 383 c 0
 221 383 223 388 223 425 c 0xc080
 223 462 225 467 237 467 c 0
 249 467 251 471 251 508 c 2
 251 550 l 1xc020
 279 550 l 1xc008
 306 550 l 1
 306 508 l 2xc020
 306 471 304 467 292 467 c 0
 280 467 279 462 279 425 c 0xc080
 279 388 277 383 265 383 c 0
 253 383 251 379 251 342 c 0xc1
 251 305 249 300 237 300 c 0
 225 300 223 295 223 258 c 0xc2
 223 221 221 217 209 217 c 0
 197 217 195 212 195 175 c 0xc4
 195 138 193 133 181 133 c 0
 169 133 167 129 167 92 c 0xc8
 167 55 166 50 154 50 c 0
 142 50 140 45 140 8 c 2
 140 -33 l 1xd0
 112 -33 l 1xc8
 84 -33 l 1
 84 8 l 2xd0
 84 45 86 50 98 50 c 0
 110 50 112 55 112 92 c 0xc8
 112 129 114 133 126 133 c 0
 138 133 140 138 140 175 c 2
 140 217 l 1xc4
 112 217 l 1xc8
 84 217 l 1
 84 342 l 2xd0
 84 462 83 467 70 467 c 0
 58 467 56 471 56 508 c 0xe0
 56 545 58 550 70 550 c 0
 82 550 84 555 84 592 c 2xd0
306 133 m 2xc004
 306 212 305 217 292 217 c 0
 280 217 279 212 279 175 c 0
 279 138 277 133 265 133 c 0
 253 133 251 129 251 92 c 2
 251 50 l 1
 279 50 l 1xc058
 306 50 l 1
 306 133 l 2xc004
279 258 m 2
 279 300 l 1
 320 300 l 1
 362 300 l 1xc058
 362 175 l 2
 362 55 363 50 376 50 c 0
 388 50 390 45 390 8 c 0
 390 -29 388 -33 376 -33 c 0
 364 -33 362 -38 362 -75 c 2
 362 -117 l 1
 334 -117 l 1
 306 -117 l 1
 306 -75 l 1
 306 -33 l 1
 251 -33 l 1xc014
 195 -33 l 1
 195 8 l 2xc1
 195 45 197 50 209 50 c 0
 221 50 223 55 223 92 c 0
 223 129 225 133 237 133 c 0
 249 133 251 138 251 175 c 0
 251 212 253 217 265 217 c 0
 277 217 279 221 279 258 c 2
EndSplineSet
Validated: 8388609
EndChar

StartChar: f
Encoding: 102 102 188
Width: 446
VWidth: 0
Flags: W
HStem: -33 83<112.433 138.208 223 279> 300 83<84 140 223 362> 467 83<223 362>
VStem: 140 83<50.0041 300 383 466.996>
LayerCount: 2
Back
Fore
SplineSet
167 508 m 2
 167 550 l 1
 265 550 l 1
 362 550 l 1
 362 508 l 1
 362 467 l 1
 292 467 l 1
 223 467 l 1
 223 425 l 1
 223 383 l 1
 292 383 l 1
 362 383 l 1
 362 342 l 1
 362 300 l 1
 292 300 l 1
 223 300 l 1
 223 175 l 1
 223 50 l 1
 251 50 l 1
 279 50 l 1
 279 8 l 1
 279 -33 l 1
 195 -33 l 1
 112 -33 l 1
 112 8 l 2
 112 45 114 50 126 50 c 0
 139 50 140 55 140 175 c 2
 140 300 l 1
 112 300 l 1
 84 300 l 1
 84 342 l 1
 84 383 l 1
 112 383 l 1
 140 383 l 1
 140 425 l 2
 140 462 142 467 154 467 c 0
 166 467 167 471 167 508 c 2
EndSplineSet
Validated: 1
EndChar

StartChar: AE
Encoding: 198 198 189
Width: 446
VWidth: 0
Flags: W
HStem: -33 83<306 390> 133 84<167 223> 217 83<306 390> 467 83<167 223 306 390>
VStem: 56 84<-33 131.824> 84 83<217.003 382.997> 112 55<383.004 466.996> 223 167<-33 50 217 300> 223 83<50 133 300 467>
LayerCount: 2
Back
Fore
SplineSet
223 342 m 1xf080
 223 467 l 1
 195 467 l 1
 167 467 l 1xf280
 167 342 l 1xf4
 167 217 l 1
 195 217 l 1
 223 217 l 1xf3
 223 342 l 1xf080
140 508 m 2xf8
 140 550 l 1
 265 550 l 1
 390 550 l 1
 390 508 l 1
 390 467 l 1xf9
 348 467 l 1
 306 467 l 1
 306 383 l 1
 306 300 l 1xf080
 348 300 l 1
 390 300 l 1
 390 258 l 1
 390 217 l 1xf1
 348 217 l 1
 306 217 l 1
 306 133 l 1
 306 50 l 1xf080
 348 50 l 1
 390 50 l 1
 390 8 l 1
 390 -33 l 1xf1
 306 -33 l 1xf080
 223 -33 l 1
 223 50 l 1xf1
 223 133 l 1
 181 133 l 1
 140 133 l 1
 140 50 l 1
 140 -33 l 1
 98 -33 l 1
 56 -33 l 1
 56 92 l 2xf880
 56 212 57 217 70 217 c 0
 83 217 84 221 84 300 c 0xf4
 84 379 85 383 98 383 c 0
 110 383 112 388 112 425 c 0xf2
 112 462 114 467 126 467 c 0
 138 467 140 471 140 508 c 2xf8
EndSplineSet
Validated: 8388609
EndChar

